<?xml version="1.0" encoding="UTF-8" standalone="no"?>
<!-- Created with Inkscape (http://www.inkscape.org/) -->

<svg
   xmlns:dc="http://purl.org/dc/elements/1.1/"
   xmlns:cc="http://creativecommons.org/ns#"
   xmlns:rdf="http://www.w3.org/1999/02/22-rdf-syntax-ns#"
   xmlns:svg="http://www.w3.org/2000/svg"
   xmlns="http://www.w3.org/2000/svg"
   xmlns:sodipodi="http://sodipodi.sourceforge.net/DTD/sodipodi-0.dtd"
   xmlns:inkscape="http://www.inkscape.org/namespaces/inkscape"
   width="1080"
   height="1920"
   viewBox="0 0 285.75 508.00001"
   version="1.1"
   id="svg8"
   inkscape:version="0.92.4 5da689c313, 2019-01-14"
   sodipodi:docname="instagram-stories-1080p.svg">
  <defs
     id="defs2">
    <clipPath
       clipPathUnits="userSpaceOnUse"
       id="clipPath868">
      <rect
         style="fill:#d7f4e3;fill-opacity:1;stroke:none;stroke-width:1.32291663;stroke-miterlimit:4;stroke-dasharray:none;stroke-opacity:1"
         id="rect870"
         width="203.2"
         height="361.42084"
         x="1.5258789e-06"
         y="-64.420853" />
    </clipPath>
  </defs>
  <sodipodi:namedview
     id="base"
     pagecolor="#ffffff"
     bordercolor="#666666"
     borderopacity="1.0"
     inkscape:pageopacity="0.0"
     inkscape:pageshadow="2"
     inkscape:zoom="0.25"
     inkscape:cx="476.84916"
     inkscape:cy="953.305"
     inkscape:document-units="mm"
     inkscape:current-layer="layer1"
     showgrid="false"
     units="px"
     showguides="true"
     inkscape:guide-bbox="true"
     inkscape:window-width="1366"
     inkscape:window-height="713"
     inkscape:window-x="0"
     inkscape:window-y="0"
     inkscape:window-maximized="1"
     inkscape:pagecheckerboard="true">
    <sodipodi:guide
       position="120.11093,50.888118"
       orientation="0,1"
       id="guide957"
       inkscape:locked="false" />
    <sodipodi:guide
       position="1.5258788e-06,-2.0000001e-05"
       orientation="0,1"
       id="guide959"
       inkscape:locked="false" />
    <sodipodi:guide
       position="1.5258788e-06,-2.0000001e-05"
       orientation="1,0"
       id="guide961"
       inkscape:locked="false" />
    <sodipodi:guide
       position="285.75,-2.0000001e-05"
       orientation="1,0"
       id="guide965"
       inkscape:locked="false" />
    <sodipodi:guide
       position="115.99497,460.23813"
       orientation="0,1"
       id="guide969"
       inkscape:locked="false" />
    <sodipodi:guide
       position="285.75,508"
       orientation="0,1"
       id="guide971"
       inkscape:locked="false" />
  </sodipodi:namedview>
  <metadata
     id="metadata5">
    <rdf:RDF>
      <cc:Work
         rdf:about="">
        <dc:format>image/svg+xml</dc:format>
        <dc:type
           rdf:resource="http://purl.org/dc/dcmitype/StillImage" />
        <dc:title></dc:title>
      </cc:Work>
    </rdf:RDF>
  </metadata>
  <g
     inkscape:label="Camada 1"
     inkscape:groupmode="layer"
     id="layer1"
     transform="translate(0,211.00002)">
    <rect
       style="fill:#808080;fill-opacity:1;stroke:none;stroke-width:1.85989749;stroke-miterlimit:4;stroke-dasharray:none;stroke-opacity:1"
       id="rect872"
       width="285.75"
       height="508"
       x="1.5258788e-06"
       y="-211.00002" />
    <g
       id="g1096"
       style="display:inline">
      <g
         id="g1073">
        <circle
           style="fill:#ffffff;fill-opacity:1;stroke:none;stroke-width:1.6516192;stroke-miterlimit:4;stroke-dasharray:none;stroke-opacity:1"
           id="path885"
           cx="22.489584"
           cy="-183.97472"
           r="13.212954" />
        <rect
           style="fill:#ffffff;fill-opacity:1;stroke:none;stroke-width:1.32291663;stroke-miterlimit:4;stroke-dasharray:none;stroke-opacity:1"
           id="rect887"
           width="50.45982"
           height="6.8035712"
           x="44.034225"
           y="-186.99854"
           ry="3.4017856" />
        <g
           id="g1052">
          <rect
             ry="0.62838542"
             y="-204.71617"
             x="4.5557942"
             height="1.2567749"
             width="24.085354"
             id="rect895"
             style="fill:#ffffff;fill-opacity:1;stroke:none;stroke-width:1.32291663;stroke-miterlimit:4;stroke-dasharray:none;stroke-opacity:1" />
          <rect
             style="fill:#ffffff;fill-opacity:1;stroke:none;stroke-width:1.32291663;stroke-miterlimit:4;stroke-dasharray:none;stroke-opacity:1"
             id="rect897"
             width="24.085354"
             height="1.2567749"
             x="29.922722"
             y="-204.71617"
             ry="0.62838542" />
          <rect
             ry="0.62838542"
             y="-204.71617"
             x="55.132553"
             height="1.2567749"
             width="24.085354"
             id="rect899"
             style="fill:#ffffff;fill-opacity:1;stroke:none;stroke-width:1.32291663;stroke-miterlimit:4;stroke-dasharray:none;stroke-opacity:1" />
          <rect
             style="fill:#ffffff;fill-opacity:1;stroke:none;stroke-width:1.32291663;stroke-miterlimit:4;stroke-dasharray:none;stroke-opacity:1"
             id="rect901"
             width="24.085354"
             height="1.2567749"
             x="80.433327"
             y="-204.71617"
             ry="0.62838542" />
          <rect
             ry="0.62838542"
             y="-204.71617"
             x="105.70104"
             height="1.2567749"
             width="24.085354"
             id="rect903"
             style="fill:#ffffff;fill-opacity:1;stroke:none;stroke-width:1.32291663;stroke-miterlimit:4;stroke-dasharray:none;stroke-opacity:1" />
          <rect
             style="fill:#ffffff;fill-opacity:1;stroke:none;stroke-width:1.32291663;stroke-miterlimit:4;stroke-dasharray:none;stroke-opacity:1"
             id="rect905"
             width="24.085354"
             height="1.2567749"
             x="130.90262"
             y="-204.71617"
             ry="0.62838542" />
          <rect
             ry="0.62838542"
             y="-204.71617"
             x="156.17033"
             height="1.2567749"
             width="24.085354"
             id="rect907"
             style="fill:#ffffff;fill-opacity:1;stroke:none;stroke-width:1.32291663;stroke-miterlimit:4;stroke-dasharray:none;stroke-opacity:1" />
          <rect
             style="fill:#ffffff;fill-opacity:1;stroke:none;stroke-width:1.32291663;stroke-miterlimit:4;stroke-dasharray:none;stroke-opacity:1"
             id="rect909"
             width="24.085354"
             height="1.2567749"
             x="181.53725"
             y="-204.71617"
             ry="0.62838542" />
          <rect
             ry="0.62838542"
             y="-204.71617"
             x="206.67267"
             height="1.2567749"
             width="24.085354"
             id="rect911"
             style="fill:#ffffff;fill-opacity:1;stroke:none;stroke-width:1.32291663;stroke-miterlimit:4;stroke-dasharray:none;stroke-opacity:1" />
          <rect
             style="fill:#ffffff;fill-opacity:1;stroke:none;stroke-width:1.32291663;stroke-miterlimit:4;stroke-dasharray:none;stroke-opacity:1"
             id="rect913"
             width="24.085354"
             height="1.2567749"
             x="232.0396"
             y="-204.71617"
             ry="0.62838542" />
          <rect
             ry="0.62838542"
             y="-204.71617"
             x="257.17499"
             height="1.2567749"
             width="24.085354"
             id="rect915"
             style="fill:#ffffff;fill-opacity:1;stroke:none;stroke-width:1.32291663;stroke-miterlimit:4;stroke-dasharray:none;stroke-opacity:1" />
        </g>
      </g>
      <g
         id="g1057">
        <circle
           style="fill:#ffffff;fill-opacity:1;stroke:none;stroke-width:1.36272275;stroke-miterlimit:4;stroke-dasharray:none;stroke-opacity:1"
           id="path889"
           cx="25.379759"
           cy="271.69849"
           r="18.299419" />
        <rect
           style="fill:#ffffff;fill-opacity:1;stroke:none;stroke-width:1.38040757;stroke-miterlimit:4;stroke-dasharray:none;stroke-opacity:1"
           id="rect891"
           width="179.08511"
           height="37.710213"
           x="50.808247"
           y="252.74272"
           ry="18.855106" />
        <path
           id="path917"
           d="m 266.40333,263.7304 -19.31217,0.2323 c -1.5982,0.0214 -2.4837,1.87183 -1.4898,3.12544 l 3.0791,3.90768 -1.66024,2.96071 c -0.91275,1.62767 0.78822,3.46223 2.47527,2.70679 l 2.69905,-1.21158 3.01657,3.82188 c 0.15976,0.20024 0.35365,0.36431 0.57114,0.48627 0.28765,0.1613 0.61309,0.247 0.94983,0.24675 0.59066,-7.9e-4 1.15114,-0.27668 1.51705,-0.74009 l 9.70044,-12.41427 c 1.00281,-1.28669 0.0589,-3.13933 -1.54624,-3.12188 z m -17.6993,11.17035 1.27076,-2.26613 0.98687,1.24966 z m 8.02244,3.17533 -4.14608,-5.25299 8.89762,-4.33864 c 0.68026,-0.33326 0.32573,-1.36205 -0.41434,-1.20989 l -11.04472,2.30465 -2.90421,-3.68511 19.31414,-0.23579 z"
           inkscape:connector-curvature="0"
           style="fill:#ffffff;stroke-width:0.04021843" />
      </g>
      <g
         id="g1100"
         transform="translate(-1.05e-5,9.7938515)">
        <path
           inkscape:connector-curvature="0"
           d="m 202.06082,44.687683 q -2.59994,0 -4.82847,-0.779984 -2.19138,-0.817127 -3.41707,-2.042816 -0.55713,-0.594273 -0.48285,-1.337116 0.11143,-0.779984 0.74284,-1.262831 0.74284,-0.594274 1.44854,-0.482847 0.74285,0.07428 1.26284,0.631415 0.63141,0.7057 2.00567,1.337116 1.4114,0.594274 3.11994,0.594274 2.15424,0 3.2685,-0.7057 1.15141,-0.7057 1.18855,-1.819963 0.0371,-1.114263 -1.07712,-1.931389 -1.07712,-0.817127 -3.97421,-1.337116 -3.75135,-0.742842 -5.45989,-2.228526 -1.67139,-1.485684 -1.67139,-3.639926 0,-1.894247 1.11426,-3.119937 1.11426,-1.262831 2.85994,-1.857105 1.74568,-0.631415 3.63993,-0.631415 2.45138,0 4.34563,0.779984 1.89424,0.779984 3.00851,2.154242 0.51998,0.594273 0.48284,1.262831 -0.0371,0.631416 -0.63141,1.077121 -0.59428,0.408563 -1.4114,0.259995 -0.81713,-0.148569 -1.37426,-0.668558 -0.92855,-0.891411 -2.00567,-1.225689 -1.07713,-0.334279 -2.48853,-0.334279 -1.63425,0 -2.78565,0.557131 -1.11427,0.557132 -1.11427,1.634253 0,0.668557 0.33428,1.225689 0.37142,0.519989 1.4114,0.965695 1.03998,0.408563 3.04566,0.817126 2.78565,0.557131 4.38276,1.4114 1.63426,0.854268 2.33996,2.005673 0.7057,1.114263 0.7057,2.599947 0,1.708537 -0.92856,3.082795 -0.89141,1.374257 -2.67423,2.191384 -1.74568,0.817126 -4.38277,0.817126 z m -20.91094,0 q -3.08279,0 -5.49703,-1.299974 -2.3771,-1.337115 -3.75135,-3.639926 -1.33712,-2.339952 -1.33712,-5.348462 0,-3.045653 1.26283,-5.348463 1.29998,-2.339952 3.56564,-3.639926 2.26567,-1.337115 5.1999,-1.337115 2.89708,0 4.97704,1.299973 2.07996,1.262832 3.15708,3.5285 1.11426,2.228526 1.11426,5.162752 0,0.7057 -0.48285,1.188547 -0.48284,0.445705 -1.22568,0.445705 h -14.96827 v -2.971368 h 14.85684 l -1.52283,1.039979 q -0.0371,-1.857105 -0.74284,-3.305647 -0.7057,-1.485684 -2.00567,-2.339952 -1.29998,-0.854269 -3.15708,-0.854269 -2.1171,0 -3.63993,0.928553 -1.48568,0.928552 -2.26567,2.562805 -0.77998,1.59711 -0.77998,3.639926 0,2.042815 0.92855,3.639926 0.92856,1.59711 2.56281,2.525663 1.63425,0.928552 3.75135,0.928552 1.15141,0 2.33995,-0.408563 1.22569,-0.445705 1.96853,-1.002837 0.55714,-0.408563 1.18855,-0.408563 0.66856,-0.03714 1.15141,0.371421 0.63141,0.557132 0.66855,1.22569 0.0371,0.668557 -0.59427,1.151405 -1.26283,1.002836 -3.15708,1.634252 -1.8571,0.631416 -3.56564,0.631416 z m -18.49669,-0.148569 q -0.81713,0 -1.37426,-0.519989 -0.51999,-0.557132 -0.51999,-1.374258 V 26.116632 q 0,-0.854268 0.51999,-1.374258 0.55713,-0.519989 1.37426,-0.519989 0.85426,0 1.37425,0.519989 0.51999,0.51999 0.51999,1.374258 v 16.528235 q 0,0.817126 -0.51999,1.374258 -0.51999,0.519989 -1.37425,0.519989 z m 0,-23.622376 q -1.00284,0 -1.74568,-0.7057 -0.7057,-0.742842 -0.7057,-1.745679 0,-1.002836 0.7057,-1.708536 0.74284,-0.742842 1.74568,-0.742842 1.00283,0 1.70853,0.742842 0.74284,0.7057 0.74284,1.708536 0,1.002837 -0.74284,1.745679 -0.7057,0.7057 -1.70853,0.7057 z m -18.4967,10.919778 q 0,-2.228526 1.07712,-3.974205 1.11426,-1.782821 2.97136,-2.8228 1.85711,-1.039979 4.08564,-1.039979 2.22852,0 3.30564,0.742842 1.11427,0.7057 0.85427,1.708537 -0.11143,0.51999 -0.4457,0.817126 -0.29714,0.259995 -0.7057,0.334279 -0.40857,0.07428 -0.89141,-0.03714 -2.3771,-0.482847 -4.27135,-0.07428 -1.89424,0.408563 -3.00851,1.522826 -1.07712,1.114263 -1.07712,2.8228 z m 0.0371,12.702598 q -0.89141,0 -1.37426,-0.445705 -0.48285,-0.482847 -0.48285,-1.4114 V 26.07949 q 0,-0.89141 0.48285,-1.374258 0.48285,-0.482847 1.37426,-0.482847 0.92855,0 1.37426,0.482847 0.48284,0.445706 0.48284,1.374258 v 16.602519 q 0,0.891411 -0.48284,1.374258 -0.44571,0.482847 -1.37426,0.482847 z m -17.71672,0.148569 q -3.00851,0 -5.31132,-1.299974 -2.30281,-1.337115 -3.63992,-3.639926 -1.29998,-2.339952 -1.29998,-5.348462 0,-3.045653 1.29998,-5.348463 1.33711,-2.339952 3.63992,-3.639926 2.30281,-1.337115 5.31132,-1.337115 2.97137,0 5.27418,1.337115 2.30281,1.299974 3.60278,3.639926 1.33712,2.30281 1.33712,5.348463 0,3.00851 -1.29997,5.348462 -1.29998,2.302811 -3.60279,3.639926 -2.30281,1.299974 -5.31132,1.299974 z m 0,-3.342789 q 1.93139,0 3.41707,-0.891411 1.48569,-0.89141 2.30282,-2.451378 0.85426,-1.559969 0.85426,-3.602784 0,-2.042816 -0.85426,-3.602784 -0.81713,-1.59711 -2.30282,-2.488521 -1.48568,-0.89141 -3.41707,-0.89141 -1.93139,0 -3.41707,0.89141 -1.48569,0.891411 -2.33995,2.488521 -0.85427,1.559968 -0.85427,3.602784 0,2.042815 0.85427,3.602784 0.85426,1.559968 2.33995,2.451378 1.48568,0.891411 3.41707,0.891411 z m -16.71391,3.19422 q -1.8571,0 -3.34279,-0.928552 -1.48568,-0.965695 -2.33995,-2.599947 -0.85427,-1.634253 -0.85427,-3.677068 V 19.616764 q 0,-0.817126 0.51999,-1.337115 0.51999,-0.51999 1.33712,-0.51999 0.81712,0 1.33711,0.51999 0.51999,0.519989 0.51999,1.337115 v 17.716783 q 0,1.485684 0.81713,2.488521 0.81713,1.002836 2.00567,1.002836 h 1.26283 q 0.66856,0 1.11427,0.51999 0.48284,0.519989 0.48284,1.337115 0,0.817127 -0.63141,1.337116 -0.59427,0.519989 -1.55997,0.519989 z m -8.24554,-16.379666 q -0.77999,0 -1.26284,-0.445705 -0.482842,-0.445706 -0.482842,-1.114264 0,-0.742842 0.482842,-1.188547 0.48285,-0.445705 1.26284,-0.445705 h 8.57982 q 0.77999,0 1.26283,0.445705 0.48285,0.445705 0.48285,1.188547 0,0.668558 -0.48285,1.114264 -0.48284,0.445705 -1.26283,0.445705 z M 86.400592,44.910535 q -2.377095,0 -4.531336,-0.742842 -2.154242,-0.742842 -3.751353,-2.079957 -1.59711,-1.337116 -2.339952,-3.082795 -0.371421,-0.779984 0,-1.448542 0.408563,-0.668557 1.337116,-0.854268 0.668557,-0.148568 1.299973,0.222853 0.668558,0.334279 1.002837,1.039978 0.445705,0.928553 1.448542,1.708537 1.039979,0.779984 2.488521,1.262832 1.448542,0.482847 3.045652,0.482847 1.782821,0 3.268505,-0.557132 1.522826,-0.557131 2.451379,-1.59711 0.928552,-1.077121 0.928552,-2.637089 0,-1.968532 -1.559968,-3.5285 -1.522826,-1.559968 -5.051326,-1.931389 -4.60562,-0.445705 -7.24271,-2.711373 -2.637089,-2.265669 -2.637089,-5.608458 0,-2.451378 1.374258,-4.159915 1.374258,-1.708537 3.71421,-2.599947 2.377094,-0.891411 5.274178,-0.891411 2.265669,0 3.937063,0.631416 1.708537,0.631416 2.971368,1.745679 1.262832,1.114263 2.191384,2.637089 0.51999,0.817126 0.408563,1.559968 -0.07428,0.7057 -0.7057,1.114263 -0.7057,0.445706 -1.522826,0.185711 -0.817126,-0.259995 -1.225689,-0.965695 -0.594274,-1.077121 -1.448542,-1.819963 -0.854268,-0.742842 -2.005674,-1.151405 -1.151405,-0.445705 -2.711373,-0.445705 -2.748515,-0.03714 -4.60562,1.039979 -1.857106,1.039979 -1.857106,3.231363 0,1.114263 0.557132,2.154241 0.594274,1.002837 2.1171,1.745679 1.559968,0.742842 4.457052,1.039979 4.41991,0.445705 6.871289,2.711373 2.48852,2.228527 2.48852,5.905595 0,2.117099 -0.89141,3.677068 -0.854268,1.559968 -2.339952,2.637089 -1.448542,1.039979 -3.342789,1.559968 -1.857106,0.519989 -3.862779,0.519989 z M 236.80723,-2.979335 q -0.81713,0 -1.37426,-0.5199894 -0.51999,-0.5571315 -0.51999,-1.3742578 V -15.496223 q 0,-2.339953 -1.15141,-3.454216 -1.1514,-1.151405 -3.00851,-1.151405 -1.93139,0 -3.19422,1.337116 -1.22569,1.337116 -1.22569,3.417073 h -3.08279 q 0,-2.414236 1.03998,-4.234199 1.03998,-1.857105 2.89708,-2.897084 1.89425,-1.039979 4.30848,-1.039979 2.1171,0 3.75136,0.928553 1.63425,0.928552 2.52566,2.748515 0.92855,1.782821 0.92855,4.345626 v 10.6226408 q 0,0.8171263 -0.51999,1.3742578 -0.51999,0.5199894 -1.37425,0.5199894 z m -24.77379,0 q -0.81712,0 -1.37425,-0.5199894 -0.51999,-0.5571315 -0.51999,-1.3742578 V -21.401817 q 0,-0.854269 0.51999,-1.374258 0.55713,-0.519989 1.37425,-0.519989 0.85427,0 1.37426,0.519989 0.51999,0.519989 0.51999,1.374258 v 16.5282348 q 0,0.8171263 -0.51999,1.3742578 -0.51999,0.5199894 -1.37426,0.5199894 z m 12.40547,0 q -0.81713,0 -1.37426,-0.5199894 -0.51999,-0.5571315 -0.51999,-1.3742578 V -15.496223 q 0,-2.339953 -1.15141,-3.454216 -1.1514,-1.151405 -3.00851,-1.151405 -1.93139,0 -3.19422,1.337116 -1.26283,1.337116 -1.26283,3.417073 h -2.33995 q 0,-2.414236 0.96569,-4.234199 0.9657,-1.857105 2.67423,-2.897084 1.70854,-1.039979 3.89992,-1.039979 2.1171,0 3.75136,0.928553 1.63425,0.928552 2.52566,2.748515 0.92855,1.782821 0.92855,4.345626 v 10.6226408 q 0,0.8171263 -0.51999,1.3742578 -0.51999,0.5199894 -1.37425,0.5199894 z m -30.90221,0.1114263 q -2.71137,0 -4.86561,-1.3371156 -2.15424,-1.3742578 -3.41708,-3.6770681 -1.22568,-2.3399526 -1.22568,-5.2741786 0,-2.934226 1.33711,-5.274178 1.37426,-2.339953 3.67707,-3.677068 2.33995,-1.374258 5.23704,-1.374258 2.89708,0 5.19989,1.374258 2.30281,1.337115 3.63993,3.677068 1.37425,2.339952 1.37425,5.274178 h -1.44854 q 0,2.934226 -1.26283,5.2741786 -1.22569,2.3028103 -3.37993,3.6770681 -2.15424,1.3371156 -4.86562,1.3371156 z m 0.74285,-3.3427891 q 1.89424,0 3.37993,-0.8914104 1.48568,-0.9285526 2.33995,-2.4885208 0.85427,-1.59711 0.85427,-3.565642 0,-2.005673 -0.85427,-3.565641 -0.85427,-1.597111 -2.33995,-2.488521 -1.48569,-0.928553 -3.37993,-0.928553 -1.85711,0 -3.37994,0.928553 -1.48568,0.89141 -2.37709,2.488521 -0.85427,1.559968 -0.85427,3.565641 0,1.968532 0.85427,3.565642 0.89141,1.5599682 2.37709,2.4885208 1.52283,0.8914104 3.37994,0.8914104 z m 8.31983,3.2313628 q -0.81713,0 -1.37426,-0.5199894 -0.51999,-0.5571315 -0.51999,-1.3742578 v -5.6827418 l 0.7057,-3.937062 3.08279,1.337115 v 8.2826888 q 0,0.8171263 -0.55713,1.3742578 -0.51999,0.5199894 -1.33711,0.5199894 z M 170.323,-15.719076 q 0,-2.228526 1.07712,-3.974205 1.11426,-1.78282 2.97137,-2.822799 1.8571,-1.039979 4.08563,-1.039979 2.22852,0 3.30564,0.742842 1.11427,0.7057 0.85427,1.708537 -0.11142,0.519989 -0.4457,0.817126 -0.29714,0.259995 -0.7057,0.334279 -0.40857,0.07428 -0.89141,-0.03714 -2.3771,-0.482848 -4.27134,-0.07428 -1.89425,0.408564 -3.00851,1.522827 -1.07713,1.114263 -1.07713,2.822799 z m 0.0371,12.7025989 q -0.89141,0 -1.37426,-0.4457052 -0.48285,-0.4828473 -0.48285,-1.4113999 V -21.476101 q 0,-0.891411 0.48285,-1.374258 0.48285,-0.482848 1.37426,-0.482848 0.92855,0 1.37426,0.482848 0.48284,0.445705 0.48284,1.374258 v 16.6025188 q 0,0.8914105 -0.48284,1.3742578 -0.44571,0.4828473 -1.37426,0.4828473 z m -18.45956,0.1485684 q -2.78566,0 -4.9399,-1.2999735 -2.1171,-1.3371157 -3.34279,-3.639926 -1.22569,-2.3399528 -1.22569,-5.3484628 0,-3.045652 1.29998,-5.348462 1.33711,-2.339953 3.63992,-3.639926 2.30281,-1.337116 5.31132,-1.337116 2.97137,0 5.27418,1.337116 2.30281,1.299973 3.60279,3.639926 1.33711,2.30281 1.33711,5.348462 h -2.19138 q 0,3.00851 -1.15141,5.3484628 -1.11426,2.3028103 -3.08279,3.639926 -1.96853,1.2999735 -4.53134,1.2999735 z m 0.66856,8.2826886 q -2.63709,0 -4.9399,-1.0399789 -2.30281,-1.0399788 -3.89992,-3.0456523 -0.48285,-0.63141568 -0.37142,-1.2999735 0.14857,-0.66855783 0.74284,-1.0771209 0.66856,-0.4457053 1.37426,-0.2971369 0.74284,0.1485685 1.18854,0.74284208 1.00284,1.26283144 2.52567,1.96853132 1.52282,0.7057 3.45421,0.7057 1.78282,0 3.26851,-0.8542684 1.52282,-0.85426829 2.41423,-2.5256628 0.89142,-1.6713946 0.89142,-4.0856312 V -10.66775 l 1.22568,-3.268505 2.41424,0.779984 v 8.0226941 q 0,2.934226 -1.29997,5.3113205 -1.29998,2.4142366 -3.63993,3.8256364 -2.30281,1.4113999 -5.34846,1.4113999 z m 0.0743,-11.6254777 q 1.93139,0 3.41708,-0.8914104 1.48568,-0.8914105 2.30281,-2.4513787 0.85427,-1.5599681 0.85427,-3.6027841 0,-2.042815 -0.85427,-3.602784 -0.81713,-1.59711 -2.30281,-2.48852 -1.48569,-0.891411 -3.41708,-0.891411 -1.93139,0 -3.41707,0.891411 -1.48568,0.89141 -2.33995,2.48852 -0.85427,1.559969 -0.85427,3.602784 0,2.042816 0.85427,3.6027841 0.85427,1.5599682 2.33995,2.4513787 1.48568,0.8914104 3.41707,0.8914104 z m -25.81374,3.3427891 q -2.71138,0 -4.86562,-1.3371156 -2.15424,-1.3742578 -3.41707,-3.6770681 -1.22569,-2.3399526 -1.22569,-5.2741786 0,-2.934226 1.33711,-5.274178 1.37426,-2.339953 3.67707,-3.677068 2.33995,-1.374258 5.23704,-1.374258 2.89708,0 5.19989,1.374258 2.30281,1.337115 3.63993,3.677068 1.37426,2.339952 1.37426,5.274178 h -1.44855 q 0,2.934226 -1.26283,5.2741786 -1.22569,2.3028103 -3.37993,3.6770681 -2.15424,1.3371156 -4.86561,1.3371156 z m 0.74284,-3.3427891 q 1.89425,0 3.37993,-0.8914104 1.48568,-0.9285526 2.33995,-2.4885208 0.85427,-1.59711 0.85427,-3.565642 0,-2.005673 -0.85427,-3.565641 -0.85427,-1.597111 -2.33995,-2.488521 -1.48568,-0.928553 -3.37993,-0.928553 -1.85711,0 -3.37993,0.928553 -1.48569,0.89141 -2.3771,2.488521 -0.85427,1.559968 -0.85427,3.565641 0,1.968532 0.85427,3.565642 0.89141,1.5599682 2.3771,2.4885208 1.52282,0.8914104 3.37993,0.8914104 z m 8.31983,3.2313628 q -0.81713,0 -1.37426,-0.5199894 -0.51999,-0.5571315 -0.51999,-1.3742578 v -5.6827418 l 0.7057,-3.937062 3.0828,1.337115 v 8.2826888 q 0,0.8171263 -0.55714,1.3742578 -0.51998,0.5199894 -1.33711,0.5199894 z m -25.03375,-0.037142 q -1.8571,0 -3.34278,-0.9285525 -1.48569,-0.9656947 -2.33996,-2.5999471 -0.85427,-1.6342525 -0.85427,-3.6770684 v -17.716782 q 0,-0.817126 0.51999,-1.337116 0.51999,-0.519989 1.33712,-0.519989 0.81713,0 1.33712,0.519989 0.51998,0.51999 0.51998,1.337116 v 17.716782 q 0,1.4856844 0.81713,2.4885211 0.81713,1.0028368 2.00567,1.0028368 h 1.26284 q 0.66855,0 1.11426,0.5199894 0.48285,0.5199894 0.48285,1.3371156 0,0.8171263 -0.63142,1.3371157 -0.59427,0.5199894 -1.55997,0.5199894 z m -8.24554,-16.379667 q -0.77999,0 -1.26283,-0.445705 -0.48285,-0.445705 -0.48285,-1.114263 0,-0.742842 0.48285,-1.188547 0.48284,-0.445705 1.26283,-0.445705 h 8.57982 q 0.77999,0 1.26283,0.445705 0.48285,0.445705 0.48285,1.188547 0,0.668558 -0.48285,1.114263 -0.48284,0.445705 -1.26283,0.445705 z M 90.690451,-2.8679087 q -2.599947,0 -4.828473,-0.7799841 -2.191384,-0.8171263 -3.417073,-2.0428156 -0.557132,-0.5942736 -0.482847,-1.3371156 0.111426,-0.7799842 0.742842,-1.2628315 0.742842,-0.5942736 1.448542,-0.4828473 0.742842,0.074284 1.262831,0.6314157 0.631416,0.7056999 2.005674,1.3371157 1.411399,0.5942736 3.119936,0.5942736 2.154242,0 3.268505,-0.7056999 1.151405,-0.7057 1.188547,-1.819963 0.03714,-1.114263 -1.077121,-1.9313893 -1.077121,-0.817126 -3.974205,-1.337116 -3.751352,-0.742842 -5.459888,-2.228526 -1.671395,-1.485684 -1.671395,-3.639926 0,-1.894247 1.114263,-3.119936 1.114263,-1.262832 2.859942,-1.857105 1.745679,-0.631416 3.639926,-0.631416 2.451378,0 4.345626,0.779984 1.894247,0.779984 3.00851,2.154242 0.519989,0.594274 0.482847,1.262832 -0.03714,0.631415 -0.631416,1.07712 -0.594273,0.408564 -1.411399,0.259995 -0.817127,-0.148568 -1.374258,-0.668558 -0.928553,-0.89141 -2.005674,-1.225689 -1.077121,-0.334279 -2.48852,-0.334279 -1.634253,0 -2.785658,0.557132 -1.114263,0.557131 -1.114263,1.634252 0,0.668558 0.334279,1.225689 0.371421,0.51999 1.4114,0.965695 1.039978,0.408563 3.045652,0.817126 2.785658,0.557132 4.382768,1.4114 1.634252,0.854268 2.339952,2.005674 0.7057,1.114263 0.7057,2.5999467 0,1.7085366 -0.928552,3.0827944 -0.891411,1.3742577 -2.674232,2.191384 -1.745678,0.8171262 -4.382768,0.8171262 z M 75.12794,-2.979335 q -0.817126,0 -1.374258,-0.5199894 -0.519989,-0.5571315 -0.519989,-1.3742578 v -9.1369568 q 0,-2.1171 -0.779984,-3.454216 -0.779984,-1.337115 -2.1171,-1.968531 -1.299974,-0.668558 -3.00851,-0.668558 -1.559968,0 -2.8228,0.631416 -1.262831,0.631416 -2.005673,1.708537 -0.742842,1.039979 -0.742842,2.414236 h -2.339953 q 0,-2.339952 1.114263,-4.159915 1.151405,-1.857105 3.119937,-2.934226 1.968531,-1.077121 4.41991,-1.077121 2.562805,0 4.568478,1.114263 2.042816,1.077121 3.194221,3.194221 1.188547,2.1171 1.188547,5.199894 v 9.1369568 q 0,0.8171263 -0.557131,1.3742578 -0.51999,0.5199894 -1.337116,0.5199894 z m -15.265404,0 q -0.817126,0 -1.374257,-0.5199894 -0.51999,-0.5571315 -0.51999,-1.3742578 V -21.438959 q 0,-0.854269 0.51999,-1.374258 0.557131,-0.51999 1.374257,-0.51999 0.854269,0 1.374258,0.51999 0.51999,0.519989 0.51999,1.374258 v 16.5653768 q 0,0.8171263 -0.51999,1.3742578 -0.519989,0.5199894 -1.374258,0.5199894 z M 48.97994,-3.0164771 q -0.817126,0 -1.374258,-0.5571315 -0.557131,-0.5571315 -0.557131,-1.3742578 V -30.093069 q 0,-0.854268 0.557131,-1.374258 0.557132,-0.557131 1.374258,-0.557131 0.854268,0 1.374258,0.557131 0.557131,0.51999 0.557131,1.374258 v 25.1452026 q 0,0.8171263 -0.557131,1.3742578 -0.51999,0.5571315 -1.374258,0.5571315 z"
           style="font-style:normal;font-variant:normal;font-weight:bold;font-stretch:normal;font-size:37.14210129px;line-height:1.25;font-family:Comfortaa;-inkscape-font-specification:'Comfortaa Bold';text-align:center;letter-spacing:0px;word-spacing:0px;text-anchor:middle;fill:#ffffff;fill-opacity:1;stroke:none;stroke-width:0.92855251"
           id="path1003" />
        <path
           inkscape:connector-curvature="0"
           d="m 195.20148,98.337212 q -1.84083,0 -3.15925,-1.169171 -1.31843,-1.16917 -2.01496,-3.33338 -0.67165,-2.189085 -0.67165,-5.248829 0,-3.009992 0.67165,-5.199078 0.69653,-2.189085 2.01496,-3.358256 1.31842,-1.16917 3.15925,-1.16917 1.89057,0 3.18412,1.194046 1.31843,1.169171 1.99008,3.358256 0.69652,2.189086 0.69652,5.174202 0,3.034868 -0.69652,5.223953 -0.67165,2.16421 -1.99008,3.358256 -1.29355,1.169171 -3.18412,1.169171 z m 0,-1.940326 q 1.3433,0 2.21396,-0.995039 0.87066,-1.019914 1.29355,-2.786108 0.42289,-1.766194 0.42289,-4.029907 0,-2.238837 -0.44777,-3.980155 -0.42289,-1.766194 -1.29355,-2.786109 -0.87066,-1.019914 -2.18908,-1.019914 -1.31843,0 -2.18909,1.019914 -0.84578,0.995039 -1.29355,2.761233 -0.42289,1.766194 -0.42289,4.005031 0,2.288589 0.42289,4.054783 0.44777,1.741318 1.29355,2.761232 0.87066,0.995039 2.18909,0.995039 z m -18.80622,1.940326 q -0.39801,0 -0.69653,-0.273636 -0.27363,-0.273636 -0.27363,-0.696527 0,-0.37314 0.27363,-0.671651 l 7.53742,-8.905597 q 0.6219,-0.671651 0.99504,-1.492558 0.37314,-0.845783 0.37314,-1.567186 0,-1.169171 -0.47264,-2.064706 -0.44777,-0.895535 -1.29355,-1.393054 -0.82091,-0.522395 -1.89058,-0.522395 -1.04479,0 -1.91545,0.547271 -0.84578,0.522395 -1.3433,1.41793 -0.47264,0.895535 -0.47264,2.014954 0,0.398015 -0.27364,0.671651 -0.27363,0.273635 -0.69652,0.273635 -0.39802,0 -0.69653,-0.273635 -0.27364,-0.273636 -0.27364,-0.671651 0,-1.66669 0.74628,-2.985117 0.74628,-1.318426 2.01496,-2.089581 1.29355,-0.771155 2.91048,-0.771155 1.61694,0 2.86074,0.746279 1.26867,0.746279 1.9652,2.064705 0.7214,1.318427 0.7214,3.034869 0,0.820907 -0.27363,1.567186 -0.24876,0.746279 -0.69653,1.442806 -0.44777,0.671651 -0.97016,1.268674 l -6.36825,7.388163 h 7.78618 q 0.39802,0 0.67165,0.298512 0.29851,0.298511 0.29851,0.671651 0,0.422891 -0.29851,0.696527 -0.27363,0.273636 -0.67165,0.273636 z M 166.19615,78.884204 q 1.69156,0 3.00999,0.771155 1.31843,0.746279 2.06471,2.064705 0.77115,1.318427 0.77115,3.009993 0,1.66669 -0.77115,3.009992 -0.74628,1.318426 -2.06471,2.089581 -1.31843,0.746279 -3.00999,0.746279 -1.66669,0 -2.98512,-0.746279 -1.31842,-0.771155 -2.08958,-2.089581 -0.74628,-1.343302 -0.74628,-3.009992 0,-1.691566 0.74628,-3.009993 0.77116,-1.318426 2.08958,-2.064705 1.31843,-0.771155 2.98512,-0.771155 z m 0.0249,1.79107 q -1.14429,0 -2.0647,0.522395 -0.89554,0.522395 -1.41793,1.442806 -0.5224,0.920411 -0.5224,2.089582 0,1.16917 0.5224,2.089581 0.52239,0.920411 1.41793,1.467682 0.92041,0.522396 2.0647,0.522396 1.1443,0 2.03983,-0.522396 0.89554,-0.547271 1.41793,-1.467682 0.5224,-0.920411 0.5224,-2.089581 0,-1.169171 -0.5224,-2.089582 -0.52239,-0.920411 -1.41793,-1.442806 -0.89553,-0.522395 -2.03983,-0.522395 z m 5.09958,7.015023 -6.14437,10.099643 q -0.32338,0.522396 -0.87066,0.522396 -0.37314,0 -0.64677,-0.223884 -0.27364,-0.223884 -0.34826,-0.572147 -0.0498,-0.348264 0.14925,-0.671652 l 4.10454,-6.691635 z m -15.5226,10.646915 q -0.39801,0 -0.69652,-0.273636 -0.27364,-0.273636 -0.27364,-0.696527 v -16.16938 l -2.4876,0.870659 q -0.27363,0.12438 -0.49752,0.12438 -0.42289,0 -0.69652,-0.273636 -0.27364,-0.273636 -0.27364,-0.671651 0,-0.298512 0.12438,-0.547271 0.14926,-0.24876 0.49752,-0.37314 l 3.8309,-1.318426 q 0.12438,-0.04975 0.24876,-0.07463 0.14926,-0.04975 0.24876,-0.04975 0.42289,0 0.67165,0.298512 0.27364,0.273635 0.27364,0.671651 v 17.512682 q 0,0.422891 -0.27364,0.696527 -0.27364,0.273636 -0.69653,0.273636 z m -7.83589,0 q -0.29851,0 -0.49752,-0.0995 -0.17413,-0.0995 -0.37314,-0.348264 l -4.30354,-5.472713 -0.74628,-0.646775 -4.32842,-5.497589 q -0.27363,-0.323388 -0.27363,-0.671651 0.0249,-0.348264 0.24876,-0.597024 0.22388,-0.273635 0.64677,-0.273635 0.42289,0 0.7214,0.298511 l 4.17917,5.348334 0.67165,0.547271 4.62693,5.92048 q 0.32339,0.398016 0.27363,0.74628 -0.0497,0.348263 -0.32338,0.547271 -0.24876,0.199008 -0.5224,0.199008 z m -9.85088,0 q -0.39802,0 -0.64678,-0.24876 -0.22388,-0.24876 -0.24876,-0.597023 0,-0.348264 0.27364,-0.671651 l 4.57718,-5.721473 1.06966,1.41793 -4.35329,5.522465 q -0.22388,0.298512 -0.67165,0.298512 z m 5.82097,-6.467752 -1.21892,-1.243799 4.30354,-5.447837 q 0.17414,-0.24876 0.37314,-0.348264 0.22389,-0.0995 0.44777,-0.0995 0.42289,0 0.64678,0.273635 0.22388,0.24876 0.199,0.621899 0,0.348264 -0.24876,0.671652 z m -14.82605,6.467752 q -1.84083,0 -3.15925,-1.169171 -1.31843,-1.16917 -2.01496,-3.33338 -0.67165,-2.189085 -0.67165,-5.248829 0,-3.009992 0.67165,-5.199078 0.69653,-2.189085 2.01496,-3.358256 1.31842,-1.16917 3.15925,-1.16917 1.89057,0 3.18412,1.194046 1.31843,1.169171 1.99008,3.358256 0.69653,2.189086 0.69653,5.174202 0,3.034868 -0.69653,5.223953 -0.67165,2.16421 -1.99008,3.358256 -1.29355,1.169171 -3.18412,1.169171 z m 0,-1.940326 q 1.3433,0 2.21396,-0.995039 0.87066,-1.019914 1.29355,-2.786108 0.42289,-1.766194 0.42289,-4.029907 0,-2.238837 -0.44777,-3.980155 -0.42289,-1.766194 -1.29355,-2.786109 -0.87066,-1.019914 -2.18908,-1.019914 -1.31843,0 -2.18909,1.019914 -0.84578,0.995039 -1.29355,2.761233 -0.42289,1.766194 -0.42289,4.005031 0,2.288589 0.42289,4.054783 0.44777,1.741318 1.29355,2.761232 0.87066,0.995039 2.18909,0.995039 z m -14.4529,2.039829 q -1.66669,0 -2.98512,-0.771155 -1.31843,-0.796031 -2.08958,-2.139333 -0.74628,-1.343302 -0.74628,-3.034868 0,-1.641814 0.74628,-2.935364 0.77115,-1.293551 2.08958,-2.03983 1.31843,-0.746279 2.98512,-0.746279 1.66669,0 2.98511,0.746279 1.31843,0.746279 2.06471,2.03983 0.74628,1.29355 0.74628,2.935364 -0.0249,1.691566 -0.79603,3.034868 -0.74628,1.343302 -2.06471,2.139333 -1.29355,0.771155 -2.93536,0.771155 z m 0,-1.741317 q 1.09454,0 1.9652,-0.547272 0.87066,-0.572147 1.36818,-1.517434 0.52239,-0.945287 0.52239,-2.139333 0,-1.144295 -0.49752,-2.03983 -0.49752,-0.92041 -1.36818,-1.442806 -0.87065,-0.522395 -1.99007,-0.522395 -1.11942,0 -1.99008,0.522395 -0.87066,0.522396 -1.39306,1.442806 -0.49751,0.895535 -0.49751,2.03983 0,1.194046 0.49751,2.139333 0.49752,0.945287 1.36818,1.517434 0.89554,0.547272 2.01496,0.547272 z m 0,-8.383202 q -1.36818,0 -2.46272,-0.621899 -1.09455,-0.621899 -1.71645,-1.691566 -0.6219,-1.069667 -0.6219,-2.437845 0,-1.318426 0.6219,-2.388093 0.6219,-1.069667 1.71645,-1.691566 1.09454,-0.621899 2.46272,-0.621899 1.36817,-0.02488 2.46272,0.597023 1.09454,0.597023 1.71644,1.691566 0.6219,1.069667 0.59702,2.412969 0,1.368178 -0.64677,2.437845 -0.6219,1.069667 -1.71644,1.691566 -1.06967,0.621899 -2.41297,0.621899 z m 0,-1.66669 q 0.8209,0 1.46768,-0.398015 0.67165,-0.422892 1.06967,-1.119419 0.39801,-0.721403 0.39801,-1.592062 0.0249,-0.845783 -0.37314,-1.492558 -0.37314,-0.671651 -1.04479,-1.044791 -0.67165,-0.373139 -1.51743,-0.373139 -1.26868,0 -2.11446,0.845783 -0.82091,0.820907 -0.84578,2.064705 -0.0249,1.318426 0.8209,2.213961 0.84579,0.895535 2.13934,0.895535 z m -14.50267,11.691706 q -1.840823,0 -3.159249,-1.169171 -1.318426,-1.16917 -2.014953,-3.33338 -0.671652,-2.189085 -0.671652,-5.248829 0,-3.009992 0.671652,-5.199078 0.696527,-2.189085 2.014953,-3.358256 1.318426,-1.16917 3.159249,-1.16917 1.89057,0 3.18412,1.194046 1.31843,1.169171 1.99008,3.358256 0.69653,2.189086 0.69653,5.174202 0,3.034868 -0.69653,5.223953 -0.67165,2.16421 -1.99008,3.358256 -1.29355,1.169171 -3.18412,1.169171 z m 0,-1.940326 q 1.3433,0 2.21396,-0.995039 0.87066,-1.019914 1.29355,-2.786108 0.42289,-1.766194 0.42289,-4.029907 0,-2.238837 -0.44777,-3.980155 -0.42289,-1.766194 -1.29355,-2.786109 -0.87065,-1.019914 -2.18908,-1.019914 -1.318427,0 -2.189086,1.019914 -0.845783,0.995039 -1.293551,2.761233 -0.422891,1.766194 -0.422891,4.005031 0,2.288589 0.422891,4.054783 0.447768,1.741318 1.293551,2.761232 0.870659,0.995039 2.189086,0.995039 z m -10.547371,1.940326 q -0.398015,0 -0.696527,-0.273636 -0.273636,-0.273636 -0.273636,-0.696527 v -16.16938 l -2.487596,0.870659 q -0.273636,0.12438 -0.49752,0.12438 -0.422891,0 -0.696527,-0.273636 -0.273636,-0.273636 -0.273636,-0.671651 0,-0.298512 0.12438,-0.547271 0.149256,-0.24876 0.49752,-0.37314 l 3.830899,-1.318426 q 0.12438,-0.04975 0.24876,-0.07463 0.149255,-0.04975 0.248759,-0.04975 0.422892,0 0.671651,0.298512 0.273636,0.273635 0.273636,0.671651 v 17.512682 q 0,0.422891 -0.273636,0.696527 -0.273635,0.273636 -0.696527,0.273636 z"
           style="font-style:normal;font-variant:normal;font-weight:normal;font-stretch:normal;font-size:24.87596893px;line-height:1.25;font-family:Comfortaa;-inkscape-font-specification:Comfortaa;letter-spacing:0px;word-spacing:0px;fill:#e6e6e6;fill-opacity:1;stroke:none;stroke-width:0.62189919"
           id="path1022" />
      </g>
    </g>
  </g>
</svg>
