<?xml version="1.0" encoding="UTF-8" standalone="no"?>
<!-- Created with Inkscape (http://www.inkscape.org/) -->

<svg
   xmlns:dc="http://purl.org/dc/elements/1.1/"
   xmlns:cc="http://creativecommons.org/ns#"
   xmlns:rdf="http://www.w3.org/1999/02/22-rdf-syntax-ns#"
   xmlns:svg="http://www.w3.org/2000/svg"
   xmlns="http://www.w3.org/2000/svg"
   xmlns:sodipodi="http://sodipodi.sourceforge.net/DTD/sodipodi-0.dtd"
   xmlns:inkscape="http://www.inkscape.org/namespaces/inkscape"
   width="3607.3916"
   height="1550"
   viewBox="0 0 954.45566 410.10419"
   version="1.1"
   id="svg5858"
   inkscape:version="0.92.4 5da689c313, 2019-01-14"
   sodipodi:docname="instagram-feed-1080p.svg"
   inkscape:export-filename="/home/jjpaulo2/bitmap.png"
   inkscape:export-xdpi="66.529999"
   inkscape:export-ydpi="66.529999">
  <defs
     id="defs5852" />
  <sodipodi:namedview
     id="base"
     pagecolor="#ffffff"
     bordercolor="#666666"
     borderopacity="1.0"
     inkscape:pageopacity="0.0"
     inkscape:pageshadow="2"
     inkscape:zoom="0.20707483"
     inkscape:cx="1677.2714"
     inkscape:cy="799.72349"
     inkscape:document-units="mm"
     inkscape:current-layer="g6671"
     showgrid="false"
     units="px"
     showguides="true"
     inkscape:guide-bbox="true"
     fit-margin-top="100"
     fit-margin-left="100"
     fit-margin-right="100"
     fit-margin-bottom="100"
     inkscape:window-width="1366"
     inkscape:window-height="713"
     inkscape:window-x="0"
     inkscape:window-y="0"
     inkscape:window-maximized="1"
     inkscape:pagecheckerboard="true">
    <sodipodi:guide
       position="312.20832,383.64585"
       orientation="0,1"
       id="guide6433"
       inkscape:locked="false" />
    <sodipodi:guide
       position="927.9973,26.458339"
       orientation="0,1"
       id="guide6435"
       inkscape:locked="false" />
    <sodipodi:guide
       position="312.20832,97.895843"
       orientation="0,1"
       id="guide6437"
       inkscape:locked="false" />
    <sodipodi:guide
       position="26.458332,383.64585"
       orientation="1,0"
       id="guide6439"
       inkscape:locked="false" />
    <sodipodi:guide
       position="312.20831,383.64587"
       orientation="1,0"
       id="guide6441"
       inkscape:locked="false" />
    <sodipodi:guide
       position="642.24731,383.64586"
       orientation="1,0"
       id="guide6443"
       inkscape:locked="false" />
    <sodipodi:guide
       position="927.9973,383.64586"
       orientation="1,0"
       id="guide6445"
       inkscape:locked="false" />
    <sodipodi:guide
       position="621.47802,233.89167"
       orientation="0,1"
       id="guide6447"
       inkscape:locked="false" />
    <sodipodi:guide
       position="335.72804,233.89167"
       orientation="1,0"
       id="guide6449"
       inkscape:locked="false" />
    <sodipodi:guide
       position="621.47802,233.89167"
       orientation="1,0"
       id="guide6451"
       inkscape:locked="false" />
  </sodipodi:namedview>
  <metadata
     id="metadata5855">
    <rdf:RDF>
      <cc:Work
         rdf:about="">
        <dc:format>image/svg+xml</dc:format>
        <dc:type
           rdf:resource="http://purl.org/dc/dcmitype/StillImage" />
        <dc:title></dc:title>
      </cc:Work>
    </rdf:RDF>
  </metadata>
  <g
     inkscape:label="Camada 1"
     inkscape:groupmode="layer"
     id="layer1"
     transform="translate(-19.86649,132.94793)">
    <rect
       style="fill:#999999;fill-opacity:1;stroke:none;stroke-width:4.79844475;stroke-miterlimit:4;stroke-dasharray:none;stroke-opacity:1"
       id="rect6431"
       width="954.45569"
       height="410.10416"
       x="19.866493"
       y="-132.94792" />
    <g
       id="g6429"
       transform="translate(46.324823,-117.73957)"
       style="fill:#666666"
       inkscape:label="g6429">
      <rect
         y="11.249983"
         x="-2.1316282e-14"
         height="285.75"
         width="285.75"
         id="rect6403"
         style="fill:#666666;fill-opacity:1;stroke:none;stroke-width:5.29166651;stroke-miterlimit:4;stroke-dasharray:none;stroke-opacity:1"
         inkscape:export-filename="/home/jjpaulo2/insta-square.png"
         inkscape:export-xdpi="96"
         inkscape:export-ydpi="96" />
      <rect
         y="11.249983"
         x="309.26971"
         height="149.75417"
         width="285.75"
         id="rect6420"
         style="fill:#666666;fill-opacity:1;stroke:none;stroke-width:5.29166651;stroke-miterlimit:4;stroke-dasharray:none;stroke-opacity:1"
         inkscape:export-filename="/home/jjpaulo2/insta-landscape.png"
         inkscape:export-xdpi="96"
         inkscape:export-ydpi="96" />
      <rect
         y="11.249973"
         x="615.789"
         height="357.1875"
         width="285.75"
         id="rect6422"
         style="fill:#666666;fill-opacity:1;stroke:none;stroke-width:5.29166651;stroke-miterlimit:4;stroke-dasharray:none;stroke-opacity:1"
         inkscape:export-filename="/home/jjpaulo2/insta-portait.png"
         inkscape:export-xdpi="96"
         inkscape:export-ydpi="96" />
    </g>
    <g
       id="g6671">
      <g
         id="g6480"
         transform="translate(653.56775,-84.355587)">
        <path
           id="path6597"
           style="font-style:normal;font-variant:normal;font-weight:normal;font-stretch:normal;font-size:19.30029297px;line-height:1.25;font-family:Comfortaa;-inkscape-font-specification:Comfortaa;letter-spacing:0px;word-spacing:0px;fill:#ffffff;fill-opacity:1;stroke:none;stroke-width:0.48250729"
           d="m 192.98415,92.319511 q -1.42822,0 -2.45114,-0.907113 -1.02291,-0.907114 -1.56332,-2.58624 -0.52111,-1.698425 -0.52111,-4.072361 0,-2.335336 0.52111,-4.033762 0.54041,-1.698425 1.56332,-2.605539 1.02292,-0.907114 2.45114,-0.907114 1.46682,0 2.47044,0.926414 1.02291,0.907114 1.54402,2.60554 0.54041,1.698425 0.54041,4.014461 0,2.354635 -0.54041,4.053061 -0.52111,1.679126 -1.54402,2.60554 -1.00362,0.907113 -2.47044,0.907113 z m 0,-1.505422 q 1.04222,0 1.71773,-0.772012 0.67551,-0.791312 1.00361,-2.161633 0.32811,-1.370321 0.32811,-3.126647 0,-1.737027 -0.34741,-3.088047 -0.3281,-1.370321 -1.00361,-2.161633 -0.67551,-0.791312 -1.69843,-0.791312 -1.02292,0 -1.69843,0.791312 -0.65621,0.772012 -1.00361,2.142332 -0.32811,1.370321 -0.32811,3.107348 0,1.775627 0.32811,3.145947 0.3474,1.351021 1.00361,2.142333 0.67551,0.772012 1.69843,0.772012 z m -11.46435,1.505422 q -1.38962,0 -2.48974,-0.636909 -1.10011,-0.65621 -1.75632,-1.756327 -0.63691,-1.119417 -0.63691,-2.509038 0,-0.328105 0.2123,-0.540408 0.2123,-0.212303 0.52111,-0.212303 0.3281,0 0.54041,0.212303 0.2316,0.212303 0.2316,0.540408 0,0.965015 0.44391,1.737026 0.4439,0.772012 1.19662,1.215919 0.77201,0.443907 1.73702,0.443907 0.96502,0 1.73703,-0.443907 0.77201,-0.443907 1.21592,-1.215919 0.4439,-0.772011 0.4439,-1.737026 0,-0.965015 -0.4439,-1.737026 -0.44391,-0.772012 -1.21592,-1.215919 -0.77201,-0.443907 -1.73703,-0.443907 h -3.37755 q -0.3281,0 -0.54041,-0.212303 -0.2123,-0.231603 -0.2123,-0.540408 v -5.28828 q 0,-0.308805 0.2123,-0.521108 0.21231,-0.231604 0.54041,-0.231604 h 6.7744 q 0.30881,0 0.52111,0.231604 0.23161,0.212303 0.23161,0.521108 0,0.308804 -0.21231,0.540408 -0.2123,0.212303 -0.54041,0.212303 h -6.04099 v 3.782858 h 2.64414 q 1.40892,0 2.50904,0.65621 1.10012,0.636909 1.73703,1.756326 0.65621,1.100117 0.65621,2.489738 0,1.389621 -0.65621,2.509038 -0.63691,1.100117 -1.73703,1.756327 -1.10012,0.636909 -2.50904,0.636909 z m -11.63806,0.0965 q -1.35102,0 -2.43184,-0.579009 -1.06151,-0.598309 -1.67912,-1.621225 -0.61761,-1.022915 -0.61761,-2.316035 0,-0.328105 0.193,-0.559708 0.193,-0.231604 0.52111,-0.231604 0.3281,0 0.52111,0.231604 0.193,0.231603 0.193,0.559708 0,0.887814 0.42461,1.601925 0.4246,0.69481 1.15801,1.119417 0.75272,0.405306 1.65983,0.405306 1.50542,0 2.35463,-0.829913 0.84922,-0.849213 0.84922,-2.180933 0,-0.945714 -0.40531,-1.640525 -0.4053,-0.714111 -1.10012,-1.100117 -0.69481,-0.405306 -1.56332,-0.405306 -0.3088,0 -0.52111,-0.212303 -0.2123,-0.212303 -0.2123,-0.540408 0,-0.308805 0.2123,-0.521108 0.21231,-0.212303 0.52111,-0.212303 0.67551,0 1.23522,-0.328105 0.57901,-0.347405 0.92641,-0.907114 0.34741,-0.559708 0.34741,-1.235219 0,-1.022915 -0.69481,-1.698426 -0.69481,-0.69481 -1.85283,-0.69481 -0.81061,0 -1.44752,0.328105 -0.63691,0.308805 -1.00362,0.849213 -0.3474,0.521108 -0.3474,1.196618 0,0.328105 -0.21231,0.559708 -0.193,0.212304 -0.5018,0.212304 -0.32811,0 -0.52111,-0.212304 -0.193,-0.231603 -0.193,-0.540408 0,-1.061516 0.5404,-1.910729 0.55971,-0.868513 1.50543,-1.35102 0.94571,-0.501808 2.18093,-0.501808 1.11942,0 2.00723,0.501808 0.90711,0.482507 1.42822,1.35102 0.54041,0.849213 0.54041,1.910729 0,0.65621 -0.3281,1.27382 -0.30881,0.617609 -0.82992,1.119417 -0.5211,0.482507 -1.13871,0.752711 0.98431,0.289504 1.64052,0.887813 0.65621,0.59831 0.96502,1.408922 0.3088,0.791312 0.3088,1.659825 0,1.273819 -0.61761,2.277435 -0.59831,0.984315 -1.65982,1.563323 -1.06152,0.559709 -2.35464,0.559709 z m -8.4728,-0.0965 q -0.3088,0 -0.54041,-0.212303 -0.2123,-0.212303 -0.2123,-0.540408 V 79.02161 l -1.93003,0.67551 q -0.2123,0.0965 -0.386,0.0965 -0.32811,0 -0.54041,-0.212303 -0.2123,-0.212303 -0.2123,-0.521108 0,-0.231603 0.0965,-0.424606 0.1158,-0.193003 0.386,-0.289505 l 2.97225,-1.022915 q 0.0965,-0.0386 0.193,-0.0579 0.1158,-0.0386 0.193,-0.0386 0.32811,0 0.52111,0.231604 0.2123,0.212303 0.2123,0.521108 V 91.5668 q 0,0.328105 -0.2123,0.540408 -0.2123,0.212303 -0.54041,0.212303 z m -6.07956,0 q -0.2316,0 -0.386,-0.0772 -0.13511,-0.0772 -0.28951,-0.270204 l -3.33895,-4.246064 -0.57901,-0.501808 -3.35825,-4.265365 q -0.2123,-0.250903 -0.2123,-0.521108 0.0193,-0.270204 0.193,-0.463207 0.1737,-0.212303 0.50181,-0.212303 0.3281,0 0.55971,0.231604 l 3.24245,4.149563 0.5211,0.424606 3.58986,4.59347 q 0.2509,0.308805 0.2123,0.579009 -0.0386,0.270204 -0.2509,0.424606 -0.19301,0.154402 -0.40531,0.154401 z m -7.64292,0 q -0.3088,0 -0.5018,-0.193003 -0.17371,-0.193002 -0.19301,-0.463207 0,-0.270204 0.21231,-0.521107 l 3.55125,-4.439068 0.82991,1.100117 -3.37755,4.284665 q -0.1737,0.231603 -0.52111,0.231603 z m 4.51627,-5.018076 -0.94571,-0.965014 3.33895,-4.226765 q 0.1351,-0.193002 0.2895,-0.270204 0.17371,-0.0772 0.34741,-0.0772 0.3281,0 0.50181,0.212303 0.1737,0.193003 0.1544,0.482508 0,0.270204 -0.193,0.521108 z m -11.50295,5.018076 q -1.42823,0 -2.45114,-0.907113 -1.02292,-0.907114 -1.56333,-2.58624 -0.5211,-1.698425 -0.5211,-4.072361 0,-2.335336 0.5211,-4.033762 0.54041,-1.698425 1.56333,-2.605539 1.02291,-0.907114 2.45114,-0.907114 1.46682,0 2.47043,0.926414 1.02292,0.907114 1.54403,2.60554 0.5404,1.698425 0.5404,4.014461 0,2.354635 -0.5404,4.053061 -0.52111,1.679126 -1.54403,2.60554 -1.00361,0.907113 -2.47043,0.907113 z m 0,-1.505422 q 1.04221,0 1.71772,-0.772012 0.67551,-0.791312 1.00362,-2.161633 0.3281,-1.370321 0.3281,-3.126647 0,-1.737027 -0.3474,-3.088047 -0.32811,-1.370321 -1.00362,-2.161633 -0.67551,-0.791312 -1.69842,-0.791312 -1.02292,0 -1.69843,0.791312 -0.65621,0.772012 -1.00362,2.142332 -0.3281,1.370321 -0.3281,3.107348 0,1.775627 0.3281,3.145947 0.34741,1.351021 1.00362,2.142333 0.67551,0.772012 1.69843,0.772012 z m -11.21345,1.582624 q -1.29312,0 -2.31603,-0.598309 -1.02292,-0.61761 -1.62123,-1.659826 -0.579,-1.042216 -0.579,-2.354635 0,-1.27382 0.579,-2.277435 0.59831,-1.003615 1.62123,-1.582624 1.02291,-0.579009 2.31603,-0.579009 1.29312,0 2.31604,0.579009 1.02291,0.579009 1.60192,1.582624 0.57901,1.003615 0.57901,2.277435 -0.0193,1.312419 -0.61761,2.354635 -0.57901,1.042216 -1.60192,1.659826 -1.00362,0.598309 -2.27744,0.598309 z m 0,-1.351021 q 0.84922,0 1.52473,-0.424606 0.67551,-0.443907 1.06151,-1.177318 0.40531,-0.733411 0.40531,-1.659825 0,-0.887814 -0.38601,-1.582624 -0.386,-0.714111 -1.06151,-1.119417 -0.67551,-0.405307 -1.54403,-0.405307 -0.86851,0 -1.54402,0.405307 -0.67551,0.405306 -1.08082,1.119417 -0.386,0.69481 -0.386,1.582624 0,0.926414 0.386,1.659825 0.38601,0.733411 1.06152,1.177318 0.69481,0.424606 1.56332,0.424606 z m 0,-6.504199 q -1.06151,0 -1.91073,-0.482507 -0.84921,-0.482507 -1.33172,-1.31242 -0.4825,-0.829912 -0.4825,-1.891429 0,-1.022915 0.4825,-1.852828 0.48251,-0.829912 1.33172,-1.31242 0.84922,-0.482507 1.91073,-0.482507 1.06152,-0.0193 1.91073,0.463207 0.84922,0.463207 1.33172,1.31242 0.48251,0.829913 0.46321,1.872128 0,1.061517 -0.50181,1.891429 -0.48251,0.829913 -1.33172,1.31242 -0.82991,0.482507 -1.87213,0.482507 z m 0,-1.293119 q 0.63691,0 1.13872,-0.308805 0.52111,-0.328105 0.82991,-0.868513 0.30881,-0.559709 0.30881,-1.235219 0.0193,-0.65621 -0.28951,-1.158017 -0.2895,-0.521108 -0.81061,-0.810613 -0.52111,-0.289504 -1.17732,-0.289504 -0.98431,0 -1.64052,0.65621 -0.63691,0.636909 -0.65621,1.601924 -0.0193,1.022916 0.63691,1.717726 0.65621,0.694811 1.65982,0.694811 z m -11.25205,9.071137 q -1.42822,0 -2.45114,-0.907113 -1.02291,-0.907114 -1.56332,-2.58624 -0.52111,-1.698425 -0.52111,-4.072361 0,-2.335336 0.52111,-4.033762 0.54041,-1.698425 1.56332,-2.605539 1.02292,-0.907114 2.45114,-0.907114 1.46682,0 2.47044,0.926414 1.02291,0.907114 1.54402,2.60554 0.54041,1.698425 0.54041,4.014461 0,2.354635 -0.54041,4.053061 -0.52111,1.679126 -1.54402,2.60554 -1.00362,0.907113 -2.47044,0.907113 z m 0,-1.505422 q 1.04222,0 1.71773,-0.772012 0.67551,-0.791312 1.00361,-2.161633 0.32811,-1.370321 0.32811,-3.126647 0,-1.737027 -0.34741,-3.088047 -0.3281,-1.370321 -1.00361,-2.161633 -0.67551,-0.791312 -1.69843,-0.791312 -1.02292,0 -1.69843,0.791312 -0.65621,0.772012 -1.00361,2.142332 -0.32811,1.370321 -0.32811,3.107348 0,1.775627 0.32811,3.145947 0.3474,1.351021 1.00361,2.142333 0.67551,0.772012 1.69843,0.772012 z m -8.18329,1.505422 q -0.30881,0 -0.54041,-0.212303 -0.2123,-0.212303 -0.2123,-0.540408 V 79.02161 l -1.93003,0.67551 q -0.21231,0.0965 -0.38601,0.0965 -0.3281,0 -0.54041,-0.212303 -0.2123,-0.212303 -0.2123,-0.521108 0,-0.231603 0.0965,-0.424606 0.1158,-0.193003 0.38601,-0.289505 l 2.97224,-1.022915 q 0.0965,-0.0386 0.193,-0.0579 0.11581,-0.0386 0.19301,-0.0386 0.3281,0 0.52111,0.231604 0.2123,0.212303 0.2123,0.521108 V 91.5668 q 0,0.328105 -0.2123,0.540408 -0.21231,0.212303 -0.54041,0.212303 z"
           inkscape:connector-curvature="0" />
        <path
           id="path932"
           style="font-style:normal;font-variant:normal;font-weight:600;font-stretch:normal;font-size:28.11587524px;line-height:1.25;font-family:Comfortaa;-inkscape-font-specification:'Comfortaa Semi-Bold';letter-spacing:0px;word-spacing:0px;fill:#ffffff;fill-opacity:1;stroke:none;stroke-width:0.70289683"
           d="m 203.23854,62.296307 q -1.43391,0 -2.58666,-0.702897 -1.12464,-0.731013 -1.79942,-1.939996 -0.64667,-1.237098 -0.64667,-2.811587 V 43.318091 q 0,-0.562318 0.36551,-0.927824 0.36551,-0.365506 0.92782,-0.365506 0.59044,0 0.95594,0.365506 0.36551,0.365506 0.36551,0.927824 v 13.523736 q 0,1.237098 0.67478,2.052459 0.7029,0.81536 1.74319,0.81536 h 0.8997 q 0.47797,0 0.78725,0.365506 0.33739,0.365507 0.33739,0.927824 0,0.562318 -0.42174,0.927824 -0.42174,0.365507 -1.0684,0.365507 z M 196.74377,49.72851 q -0.5342,0 -0.87159,-0.309274 -0.33739,-0.337391 -0.33739,-0.787245 0,-0.534201 0.33739,-0.843476 0.33739,-0.309275 0.87159,-0.309275 h 6.71969 q 0.5342,0 0.8716,0.309275 0.33739,0.309275 0.33739,0.843476 0,0.449854 -0.33739,0.787245 -0.3374,0.309274 -0.8716,0.309274 z m -5.96052,12.567797 q -0.59044,0 -0.95594,-0.365507 -0.36551,-0.365506 -0.36551,-0.95594 V 48.238369 q 0,-0.590433 0.36551,-0.95594 0.3655,-0.365506 0.95594,-0.365506 0.59043,0 0.95594,0.365506 0.3655,0.365507 0.3655,0.95594 V 60.97486 q 0,0.590434 -0.3655,0.95594 -0.36551,0.365507 -0.95594,0.365507 z m 0,-18.022276 q -0.7029,0 -1.2371,-0.506086 -0.50609,-0.534202 -0.50609,-1.237099 0,-0.759128 0.50609,-1.237098 0.5342,-0.506086 1.2371,-0.506086 0.70289,0 1.20898,0.506086 0.5342,0.47797 0.5342,1.237098 0,0.702897 -0.50608,1.237099 -0.50609,0.506086 -1.2371,0.506086 z M 176.641,62.40877 q -2.08058,0 -3.73941,-1.012171 -1.65884,-1.012172 -2.61478,-2.783472 -0.95594,-1.7713 -0.95594,-3.992454 0,-2.24927 1.01217,-3.992455 1.04029,-1.7713 2.78348,-2.783471 1.7713,-1.040288 3.96433,-1.040288 2.22116,0 3.96434,1.040288 1.74319,1.012171 2.75536,2.783471 1.04029,1.771301 1.04029,3.992455 l -1.01218,0.224927 q 0,2.136806 -0.95594,3.851875 -0.92782,1.715068 -2.55854,2.727239 -1.60261,0.984056 -3.68318,0.984056 z m 0.44985,-2.333618 q 1.51826,0 2.67101,-0.702896 1.18087,-0.731013 1.85565,-1.968112 0.7029,-1.237098 0.7029,-2.783471 0,-1.574489 -0.7029,-2.811588 -0.67478,-1.237098 -1.85565,-1.939995 -1.15275,-0.731013 -2.67101,-0.731013 -1.46202,0 -2.671,0.731013 -1.18087,0.702897 -1.88377,1.939995 -0.67478,1.237099 -0.67478,2.811588 0,1.546373 0.67478,2.783471 0.7029,1.237099 1.88377,1.968112 1.20898,0.702896 2.671,0.702896 z m 6.43854,2.24927 q -0.56232,0 -0.95594,-0.365506 -0.36551,-0.393622 -0.36551,-0.95594 v -4.470424 l 0.5342,-2.72724 2.1087,0.815361 v 6.382303 q 0,0.562318 -0.36551,0.95594 -0.36551,0.365506 -0.95594,0.365506 z M 159.0405,52.736909 q 0.0281,-1.715068 0.84348,-3.06463 0.84348,-1.349562 2.22116,-2.136807 1.40579,-0.787244 3.06463,-0.787244 1.54637,0 2.33361,0.506085 0.78725,0.47797 0.61855,1.208983 -0.11246,0.393622 -0.3655,0.590433 -0.22493,0.196811 -0.56232,0.224927 -0.33739,0.02812 -0.73101,-0.05623 -1.74319,-0.281159 -3.12087,0.08435 -1.34956,0.365507 -2.1368,1.237099 -0.78725,0.871592 -0.78725,2.193038 z m 0.0844,9.559398 q -0.61855,0 -0.95594,-0.309275 -0.33739,-0.337391 -0.33739,-0.984056 V 48.210253 q 0,-0.618549 0.33739,-0.95594 0.33739,-0.33739 0.95594,-0.33739 0.64667,0 0.95594,0.33739 0.33739,0.309275 0.33739,0.95594 v 12.792723 q 0,0.61855 -0.33739,0.95594 -0.30927,0.337391 -0.95594,0.337391 z m -6.83218,0 q -1.43391,0 -2.58666,-0.702897 -1.12464,-0.731013 -1.79942,-1.939996 -0.64666,-1.237098 -0.64666,-2.811587 V 43.318091 q 0,-0.562318 0.3655,-0.927824 0.36551,-0.365506 0.92783,-0.365506 0.59043,0 0.95594,0.365506 0.3655,0.365506 0.3655,0.927824 v 13.523736 q 0,1.237098 0.67479,2.052459 0.70289,0.81536 1.74318,0.81536 h 0.89971 q 0.47797,0 0.78724,0.365506 0.33739,0.365507 0.33739,0.927824 0,0.562318 -0.42174,0.927824 -0.42173,0.365507 -1.0684,0.365507 z M 145.79795,49.72851 q -0.5342,0 -0.87159,-0.309274 -0.33739,-0.337391 -0.33739,-0.787245 0,-0.534201 0.33739,-0.843476 0.33739,-0.309275 0.87159,-0.309275 h 6.7197 q 0.5342,0 0.87159,0.309275 0.33739,0.309275 0.33739,0.843476 0,0.449854 -0.33739,0.787245 -0.33739,0.309274 -0.87159,0.309274 z m -11.44314,3.008399 q 0.0281,-1.715068 0.84348,-3.06463 0.84348,-1.349562 2.22115,-2.136807 1.4058,-0.787244 3.06463,-0.787244 1.54638,0 2.33362,0.506085 0.78725,0.47797 0.61855,1.208983 -0.11246,0.393622 -0.36551,0.590433 -0.22492,0.196811 -0.56231,0.224927 -0.33739,0.02812 -0.73102,-0.05623 -1.74318,-0.281159 -3.12086,0.08435 -1.34956,0.365507 -2.1368,1.237099 -0.78725,0.871592 -0.78725,2.193038 z m 0.0844,9.559398 q -0.61855,0 -0.95594,-0.309275 -0.33739,-0.337391 -0.33739,-0.984056 V 48.210253 q 0,-0.618549 0.33739,-0.95594 0.33739,-0.33739 0.95594,-0.33739 0.64667,0 0.95594,0.33739 0.33739,0.309275 0.33739,0.95594 v 12.792723 q 0,0.61855 -0.33739,0.95594 -0.30927,0.337391 -0.95594,0.337391 z m -13.32694,0.112463 q -2.24927,0 -4.02057,-0.984056 -1.74318,-1.012171 -2.75535,-2.755355 -0.98406,-1.7713 -0.98406,-4.048686 0,-2.305502 0.98406,-4.048686 1.01217,-1.771301 2.75535,-2.755356 1.7713,-1.012172 4.02057,-1.012172 2.24927,0 3.99246,1.012172 1.74318,0.984055 2.75535,2.755356 1.01217,1.743184 1.01217,4.048686 0,2.277386 -1.01217,4.048686 -0.98405,1.743184 -2.72724,2.755355 -1.74318,0.984056 -4.02057,0.984056 z m 0,-2.333618 q 1.51826,0 2.69913,-0.702896 1.18086,-0.702897 1.85565,-1.91188 0.67478,-1.237098 0.67478,-2.839703 0,-1.602605 -0.67478,-2.839704 -0.67479,-1.237098 -1.85565,-1.939995 -1.18087,-0.702897 -2.69913,-0.702897 -1.51825,0 -2.69912,0.702897 -1.18087,0.702897 -1.85565,1.939995 -0.67478,1.237099 -0.67478,2.839704 0,1.602605 0.67478,2.839703 0.67478,1.208983 1.85565,1.91188 1.18087,0.702896 2.69912,0.702896 z m -22.183394,2.221155 q -0.59044,0 -0.98406,-0.365507 -0.36551,-0.393622 -0.36551,-0.984055 V 41.68737 q 0,-0.590433 0.36551,-0.95594 0.39362,-0.393622 0.98406,-0.393622 h 5.623174 q 2.08058,0 3.7113,0.927824 1.63072,0.927824 2.53043,2.558545 0.8997,1.602604 0.8997,3.739411 0,2.080575 -0.8997,3.68318 -0.89971,1.574489 -2.53043,2.474197 -1.63072,0.899708 -3.7113,0.899708 h -4.30173 v 6.326072 q 0,0.590433 -0.365504,0.984055 -0.36551,0.365507 -0.95594,0.365507 z M 100.25032,52.11836 h 4.30173 q 1.32145,0 2.36173,-0.562318 1.04029,-0.590433 1.60261,-1.63072 0.59043,-1.040288 0.59043,-2.361734 0,-1.405794 -0.59043,-2.446081 -0.56232,-1.068403 -1.60261,-1.658837 -1.04028,-0.618549 -2.36173,-0.618549 h -4.30173 z M 80.881482,13.070043 c -0.409258,0 -0.753481,0.139544 -1.03251,0.418579 -0.27903,0.260429 -0.418571,0.604644 -0.418571,1.032494 v 18.890321 c 0,0.409247 0.139541,0.753462 0.418571,1.032494 0.279029,0.279032 0.623252,0.418579 1.03251,0.418579 0.427831,0 0.772054,-0.139547 1.032483,-0.418579 0.27903,-0.279032 0.418571,-0.623247 0.418571,-1.032494 V 14.521116 c 0,-0.42785 -0.139541,-0.772065 -0.418571,-1.032494 -0.260429,-0.279035 -0.604652,-0.418579 -1.032483,-0.418579 z m 42.971008,1.674315 c -0.40923,0 -0.74414,0.130244 -1.0046,0.390676 -0.26043,0.260424 -0.39066,0.595339 -0.39066,1.004588 v 4.017844 h -1.28312 c -0.39066,0 -0.70697,0.111635 -0.9488,0.334862 -0.24183,0.223226 -0.36277,0.520925 -0.36277,0.892968 0,0.334841 0.12094,0.613932 0.36277,0.837158 0.24183,0.223229 0.55814,0.334865 0.9488,0.334865 h 1.28312 v 6.892086 c 0,1.023122 0.21397,1.944124 0.64183,2.76262 0.42783,0.818499 1.01394,1.469194 1.75802,1.952853 0.74409,0.465055 1.58137,0.697632 2.51148,0.697632 h 0.50229 c 0.48365,0 0.87439,-0.130241 1.17202,-0.390673 0.31623,-0.260432 0.47387,-0.595342 0.47387,-1.004592 0,-0.409246 -0.12041,-0.74364 -0.36224,-1.004072 -0.22323,-0.260429 -0.50234,-0.390673 -0.83717,-0.390673 h -0.94877 c -0.59528,0 -1.09765,-0.251182 -1.50688,-0.753444 -0.40926,-0.502258 -0.61394,-1.125564 -0.61391,-1.869651 v -6.892086 h 2.37193 c 0.39066,0 0.70694,-0.111636 0.94877,-0.334865 0.24183,-0.223226 0.36277,-0.502317 0.36277,-0.837158 0,-0.372043 -0.12094,-0.669742 -0.36277,-0.892968 -0.24183,-0.223227 -0.55811,-0.334862 -0.94877,-0.334862 h -2.37193 v -4.017844 c 0,-0.409249 -0.13026,-0.744164 -0.39069,-1.004588 -0.26043,-0.260432 -0.59534,-0.390676 -1.00459,-0.390676 z m 54.30004,4.68757 c -1.11612,0 -2.13945,0.260485 -3.06957,0.781346 -0.62383,0.349343 -1.16205,0.784514 -1.61851,1.301213 v -0.519864 c 0,-0.465055 -0.12094,-0.809268 -0.36277,-1.032494 -0.22322,-0.241832 -0.56692,-0.36277 -1.03198,-0.36277 -0.44645,0 -0.79068,0.120938 -1.03251,0.36277 -0.24177,0.241827 -0.36274,0.586042 -0.36274,1.032494 v 12.472622 c 0,0.465059 0.12097,0.818574 0.36274,1.060403 0.24183,0.223226 0.58606,0.334862 1.03251,0.334862 0.46506,0 0.80876,-0.120939 1.03198,-0.362768 0.24183,-0.241829 0.36277,-0.586041 0.36277,-1.032497 v -8.147303 c 0,-0.855703 0.2698,-1.562735 0.80926,-2.120803 0.55806,-0.558067 1.31162,-0.93949 2.26031,-1.144116 0.94871,-0.204621 2.01856,-0.186018 3.2091,0.05581 0.24183,0.05581 0.46461,0.06511 0.66921,0.02791 0.20463,-0.03721 0.3814,-0.120933 0.53023,-0.251148 0.16735,-0.148818 0.27905,-0.353486 0.33485,-0.613915 0.13021,-0.502262 -0.0838,-0.930201 -0.64182,-1.283645 -0.53946,-0.372044 -1.36692,-0.558104 -2.48306,-0.558104 z m -82.92878,0.02791 c -1.227746,0 -2.334286,0.269787 -3.320203,0.809251 -0.535437,0.292968 -1.008459,0.646023 -1.423167,1.054201 v -0.300757 c 0,-0.427853 -0.130255,-0.772065 -0.390684,-1.032497 -0.260429,-0.260429 -0.604652,-0.390673 -1.03251,-0.390673 -0.409231,0 -0.753454,0.130244 -1.032483,0.390673 -0.26043,0.260432 -0.390684,0.604644 -0.390684,1.032497 v 12.444716 c 0,0.40925 0.130254,0.753462 0.390684,1.032497 0.279029,0.26043 0.623252,0.390673 1.032483,0.390673 0.427858,0 0.772081,-0.130243 1.03251,-0.390673 0.260429,-0.279035 0.390684,-0.623247 0.390684,-1.032497 v -7.868253 c 0,-0.688281 0.186055,-1.292979 0.558085,-1.813843 0.372058,-0.539464 0.874422,-0.967404 1.506882,-1.283642 0.632486,-0.316238 1.339003,-0.47439 2.120291,-0.47439 0.855716,0 1.609249,0.167455 2.260336,0.502296 0.669687,0.316238 1.199938,0.809299 1.590595,1.478978 0.390658,0.669682 0.585999,1.534354 0.585999,2.594674 v 6.86418 c 0,0.40925 0.130255,0.753462 0.390684,1.032497 0.27903,0.26043 0.622728,0.390673 1.031978,0.390673 0.40926,0 0.74417,-0.130243 1.0046,-0.390673 0.27903,-0.279035 0.41857,-0.623247 0.41857,-1.032497 v -6.86418 c 0,-1.543979 -0.29768,-2.845893 -0.89297,-3.906221 -0.57666,-1.060326 -1.376202,-1.860389 -2.399346,-2.399853 -1.004517,-0.558067 -2.148787,-0.837157 -3.432334,-0.837157 z m 113.48246,0 c -1.09752,0 -2.07383,0.260484 -2.92952,0.781346 -0.36025,0.219281 -0.68548,0.477134 -0.97978,0.768945 -0.008,-0.408363 -0.13575,-0.74036 -0.38758,-0.992187 -0.26043,-0.26043 -0.60466,-0.390673 -1.03249,-0.390673 -0.40925,0 -0.75348,0.130243 -1.03251,0.390673 -0.26043,0.260432 -0.39065,0.604644 -0.39065,1.032496 v 12.416811 c 0,0.40925 0.13022,0.753462 0.39065,1.032497 0.27903,0.26043 0.62326,0.390673 1.03251,0.390673 0.42783,0 0.77206,-0.130243 1.03249,-0.390673 0.26043,-0.279035 0.39068,-0.623247 0.39068,-1.032497 v -7.868253 c 0,-1.041722 0.31631,-1.897605 0.94877,-2.567283 0.63249,-0.669682 1.43253,-1.004592 2.39985,-1.004592 0.93012,0 1.68315,0.288396 2.25981,0.865063 0.57668,0.558068 0.86508,1.423252 0.86508,2.595193 v 7.979872 c 0,0.40925 0.13023,0.753462 0.39066,1.032497 0.27902,0.26043 0.62325,0.390673 1.03251,0.390673 0.42785,0 0.77205,-0.130243 1.03248,-0.390673 0.26043,-0.279035 0.39068,-0.623247 0.39068,-1.032497 v -7.868253 c 0,-1.041722 0.307,-1.897605 0.92088,-2.567283 0.63241,-0.669682 1.43201,-1.004592 2.39933,-1.004592 0.93011,0 1.68367,0.288396 2.26033,0.865063 0.57666,0.558068 0.86506,1.423252 0.86506,2.595193 v 7.979872 c 0,0.40925 0.13025,0.753462 0.39068,1.032497 0.27903,0.26043 0.62323,0.390673 1.03248,0.390673 0.42786,0 0.77206,-0.130243 1.03251,-0.390673 0.26043,-0.279035 0.39066,-0.623247 0.39066,-1.032497 v -7.979872 c 0,-1.283555 -0.23257,-2.372011 -0.69763,-3.264919 -0.44645,-0.911508 -1.07907,-1.599933 -1.89756,-2.064988 -0.81849,-0.465056 -1.7581,-0.697632 -2.81842,-0.697632 -1.20915,0 -2.28777,0.260484 -3.23649,0.781346 -0.65741,0.368144 -1.21052,0.840764 -1.66346,1.413351 -0.41204,-0.634042 -0.93536,-1.134454 -1.57356,-1.497065 -0.81851,-0.465056 -1.7581,-0.697632 -2.81845,-0.697632 z m -96.68451,0.02791 c -0.94872,0 -1.86042,0.158152 -2.73474,0.47439 -0.87429,0.297635 -1.59012,0.762789 -2.14818,1.395262 -0.55805,0.613873 -0.83716,1.39533 -0.83716,2.344044 0,1.078929 0.41812,1.990111 1.25523,2.734199 0.85569,0.74409 2.22324,1.302274 4.10208,1.674318 1.45097,0.260429 2.44639,0.595341 2.98585,1.004588 0.55808,0.40925 0.82735,0.893009 0.80875,1.451076 -0.0185,0.558067 -0.31578,1.013915 -0.89247,1.367358 -0.55806,0.353441 -1.37673,0.530199 -2.45565,0.530199 -0.85572,0 -1.63716,-0.148847 -2.34405,-0.446484 -0.68829,-0.316238 -1.19065,-0.651148 -1.50688,-1.004589 -0.26043,-0.279032 -0.57624,-0.437184 -0.94827,-0.47439 -0.35345,-0.05581 -0.71625,0.06513 -1.08831,0.362768 -0.31623,0.241829 -0.50231,0.558133 -0.55811,0.94878 -0.0372,0.372043 0.0837,0.706958 0.36277,1.004588 0.61389,0.613876 1.46926,1.125027 2.56678,1.534274 1.11614,0.390647 2.32552,0.586012 3.6277,0.586012 1.32069,0 2.41797,-0.204668 3.29229,-0.613918 0.89291,-0.409247 1.56273,-0.957612 2.00919,-1.645893 0.46503,-0.688282 0.69763,-1.460442 0.69763,-2.316136 0,-0.744091 -0.17677,-1.395304 -0.5302,-1.953371 -0.35346,-0.576668 -0.93954,-1.079035 -1.75805,-1.506885 -0.79989,-0.427852 -1.89712,-0.781367 -3.29229,-1.060399 -1.00452,-0.204624 -1.76739,-0.408776 -2.28825,-0.6134 -0.52086,-0.223226 -0.87437,-0.465105 -1.0604,-0.725537 -0.1674,-0.279033 -0.25114,-0.586034 -0.25114,-0.920875 0,-0.539464 0.27908,-0.948798 0.83717,-1.22783 0.57666,-0.279035 1.27439,-0.418579 2.09288,-0.418579 0.70689,0 1.33019,0.08373 1.86965,0.251145 0.53946,0.16742 1.04132,0.474422 1.50638,0.920874 0.27903,0.260432 0.62325,0.427887 1.03248,0.502296 0.40926,0.07441 0.76277,0.0093 1.06043,-0.195337 0.29763,-0.223226 0.45577,-0.493014 0.47437,-0.809252 0.0185,-0.33484 -0.10234,-0.651145 -0.36277,-0.94878 -0.55806,-0.688281 -1.31162,-1.227859 -2.26031,-1.618506 -0.94872,-0.390647 -2.03666,-0.58601 -3.2644,-0.58601 z m 27.90319,0 c -1.45097,0 -2.76219,0.344212 -3.93411,1.032494 -1.15335,0.669679 -2.07434,1.590683 -2.76262,2.762623 -0.66969,1.171938 -1.0046,2.492457 -1.0046,3.962032 0,1.469576 0.307,2.790608 0.92088,3.962549 0.63246,1.153337 1.48834,2.073822 2.56728,2.762104 1.07892,0.669682 2.29711,1.004591 3.65506,1.004591 1.35797,0 2.57667,-0.334909 3.65559,-1.004591 0.66529,-0.424407 1.24116,-0.937694 1.72961,-1.538922 v 1.036626 c 0,0.40925 0.13025,0.753462 0.39068,1.032497 0.27903,0.26043 0.62325,0.390673 1.03251,0.390673 0.40923,0 0.74414,-0.130243 1.00457,-0.390673 0.27903,-0.279035 0.4186,-0.623247 0.4186,-1.032497 v -6.222357 c 0,-1.469575 -0.34422,-2.790094 -1.03251,-3.962032 -0.66969,-1.17194 -1.58086,-2.092944 -2.73421,-2.762623 -1.15331,-0.688282 -2.45575,-1.032494 -3.90673,-1.032494 z m 18.83453,0 c -1.50681,0 -2.8366,0.33491 -3.98995,1.004589 -1.15334,0.651078 -2.06504,1.562777 -2.73473,2.734717 -0.65106,1.153337 -0.97668,2.49246 -0.97668,4.017843 0,1.506779 0.30699,2.84642 0.92088,4.01836 0.61388,1.153337 1.45116,2.06452 2.51148,2.734199 1.07891,0.651078 2.31624,0.976685 3.71139,0.976685 1.28357,0 2.41802,-0.325607 3.40394,-0.976685 0.86077,-0.584677 1.55824,-1.353492 2.09288,-2.306836 v 1.38648 c 0,1.209138 -0.22325,2.231961 -0.66971,3.069061 -0.44646,0.837102 -1.05117,1.46971 -1.81385,1.89756 -0.74409,0.427852 -1.56277,0.641821 -2.45565,0.641821 -0.96735,0 -1.83201,-0.176758 -2.59469,-0.530202 -0.76269,-0.353441 -1.39531,-0.846502 -1.89757,-1.478978 -0.22323,-0.297635 -0.52091,-0.483696 -0.89297,-0.558104 -0.35343,-0.07441 -0.69765,1.3e-5 -1.03248,0.223242 -0.29763,0.204623 -0.48369,0.474411 -0.55811,0.809252 -0.0558,0.334841 0.0372,0.660447 0.27905,0.976685 0.79989,1.00452 1.77671,1.767369 2.93005,2.288231 1.15335,0.520864 2.39014,0.780833 3.71089,0.780833 1.52537,0 2.86501,-0.353002 4.01836,-1.059884 1.17194,-0.706885 2.08364,-1.6651 2.73473,-2.874245 0.65106,-1.190541 0.97615,-2.520879 0.97615,-3.990454 v -6.027021 c 0,-1.525383 -0.33438,-2.864506 -1.00406,-4.017843 -0.65109,-1.17194 -1.55348,-2.083639 -2.70682,-2.734717 -1.15335,-0.669679 -2.47439,-1.004589 -3.96253,-1.004589 z m 31.27972,0 c -1.45097,0 -2.76219,0.344212 -3.93411,1.032494 -1.15335,0.669679 -2.07436,1.590683 -2.76262,2.762623 -0.66969,1.171938 -1.0046,2.492457 -1.0046,3.962032 0,1.469576 0.307,2.790608 0.92088,3.962549 0.63246,1.153337 1.48834,2.073822 2.56728,2.762104 1.07892,0.669682 2.29712,1.004591 3.65506,1.004591 1.35798,0 2.57667,-0.334909 3.65559,-1.004591 0.6653,-0.424407 1.24116,-0.937694 1.72964,-1.538922 v 1.036626 c 0,0.40925 0.13022,0.753462 0.39065,1.032497 0.27903,0.26043 0.62326,0.390673 1.03251,0.390673 0.40923,0 0.74414,-0.130243 1.00457,-0.390673 0.27903,-0.279035 0.4186,-0.623247 0.4186,-1.032497 v -6.222357 c 0,-1.469575 -0.34422,-2.790094 -1.03251,-3.962032 -0.66969,-1.17194 -1.58086,-2.092944 -2.7342,-2.762623 -1.15332,-0.688282 -2.45576,-1.032494 -3.90674,-1.032494 z m -50.11425,2.511473 c 0.94872,0 1.79531,0.232576 2.53939,0.697632 0.74409,0.446455 1.32967,1.069758 1.7575,1.869654 0.42786,0.781294 0.64182,1.673871 0.64182,2.67839 0,0.985917 -0.21396,1.87901 -0.64182,2.678907 -0.42783,0.781293 -1.01341,1.404596 -1.7575,1.869651 -0.74408,0.446456 -1.59067,0.669727 -2.53939,0.669727 -0.93011,0 -1.77675,-0.223271 -2.53936,-0.669727 -0.74409,-0.465055 -1.33898,-1.088358 -1.78544,-1.869651 -0.42786,-0.799897 -0.64182,-1.69299 -0.64182,-2.678907 0,-1.004519 0.21396,-1.897096 0.64182,-2.67839 0.44646,-0.799896 1.04135,-1.423199 1.78544,-1.869654 0.76261,-0.465056 1.60925,-0.697632 2.53936,-0.697632 z m 18.83453,0 c 0.96729,0 1.82319,0.223274 2.56727,0.669726 0.74409,0.446453 1.32088,1.069758 1.73011,1.869655 0.42786,0.781293 0.64183,1.683173 0.64183,2.706295 0,1.02312 -0.21397,1.925519 -0.64183,2.706812 -0.40923,0.781286 -0.98602,1.395294 -1.73011,1.841746 -0.74408,0.446456 -1.59998,0.669727 -2.56727,0.669727 -0.96735,0 -1.82269,-0.223271 -2.56678,-0.669727 -0.74409,-0.446452 -1.33019,-1.06046 -1.75805,-1.841746 -0.42778,-0.781293 -0.6418,-1.683692 -0.6418,-2.706812 0,-1.023122 0.21402,-1.925002 0.6418,-2.706295 0.42786,-0.799897 1.01396,-1.423202 1.75805,-1.869655 0.74409,-0.446452 1.59943,-0.669726 2.56678,-0.669726 z m 31.27972,0 c 0.94872,0 1.79531,0.232576 2.5394,0.697632 0.74408,0.446455 1.32966,1.069758 1.75749,1.869654 0.42786,0.781294 0.64183,1.673871 0.64183,2.67839 0,0.985917 -0.21397,1.87901 -0.64183,2.678907 -0.42783,0.781293 -1.01341,1.404596 -1.75749,1.869651 -0.74409,0.446456 -1.59068,0.669727 -2.5394,0.669727 -0.93011,0 -1.7767,-0.223271 -2.53936,-0.669727 -0.74411,-0.465055 -1.33898,-1.088358 -1.78544,-1.869651 -0.42785,-0.799897 -0.64182,-1.69299 -0.64182,-2.678907 0,-1.004519 0.21397,-1.897096 0.64182,-2.67839 0.44646,-0.799896 1.04133,-1.423199 1.78544,-1.869654 0.76266,-0.465056 1.60925,-0.697632 2.53936,-0.697632 z"
           inkscape:connector-curvature="0" />
      </g>
      <g
         transform="translate(347.04847,-84.345937)"
         id="g6492">
        <path
           id="path6528"
           style="font-style:normal;font-variant:normal;font-weight:bold;font-stretch:normal;font-size:27.90332794px;line-height:1.25;font-family:Comfortaa;-inkscape-font-specification:'Comfortaa Bold';text-align:center;letter-spacing:0px;word-spacing:0px;text-anchor:middle;fill:#ffffff;fill-opacity:1;stroke:none;stroke-width:0.69758314"
           d="m 225.02998,62.470819 q -2.31598,0 -4.1297,-0.976616 -1.78581,-1.00452 -2.81823,-2.734527 -1.00452,-1.757909 -1.00452,-4.018079 0,-2.288073 0.94871,-4.018079 0.97662,-1.75791 2.67872,-2.734526 1.7021,-1.00452 3.90647,-1.00452 2.17646,0 3.73904,0.976616 1.56259,0.948714 2.37179,2.650817 0.8371,1.674199 0.8371,3.878562 0,0.530163 -0.36275,0.892907 -0.36274,0.33484 -0.92081,0.33484 h -11.24504 v -2.232267 h 11.16133 l -1.14403,0.781294 q -0.0279,-1.395167 -0.55807,-2.483397 -0.53016,-1.116133 -1.50678,-1.757909 -0.97662,-0.641777 -2.37178,-0.641777 -1.59049,0 -2.73453,0.697583 -1.11613,0.697584 -1.7021,1.92533 -0.58597,1.199843 -0.58597,2.734526 0,1.534683 0.69758,2.734526 0.69758,1.199843 1.92533,1.897427 1.22775,0.697583 2.81824,0.697583 0.865,0 1.75791,-0.306937 0.92081,-0.33484 1.47887,-0.75339 0.41855,-0.306936 0.89291,-0.306936 0.50226,-0.0279 0.865,0.279033 0.47436,0.41855 0.50226,0.92081 0.0279,0.50226 -0.44645,0.865003 -0.94871,0.75339 -2.37178,1.227746 -1.39517,0.474357 -2.67872,0.474357 z m -25.36411,6.417765 q -0.61387,0 -1.03242,-0.418549 -0.39065,-0.390647 -0.39065,-1.00452 V 54.741597 q 0.0279,-2.204363 1.03242,-3.962272 1.00452,-1.75791 2.73453,-2.76243 1.73001,-1.032423 3.90647,-1.032423 2.20436,0 3.93437,1.032423 1.73,1.00452 2.73452,2.76243 1.03243,1.757909 1.03243,3.962272 0,2.204363 -0.94872,3.962273 -0.92081,1.730006 -2.5392,2.762429 -1.61839,1.00452 -3.65534,1.00452 -1.64629,0 -3.04146,-0.66968 -1.36726,-0.697583 -2.34388,-1.869523 v 7.533899 q 0,0.613873 -0.39065,1.00452 -0.39064,0.418549 -1.03242,0.418549 z m 6.25035,-8.929065 q 1.42307,0 2.5392,-0.669679 1.11613,-0.697584 1.75791,-1.869523 0.66968,-1.199843 0.66968,-2.67872 0,-1.50678 -0.66968,-2.678719 -0.64178,-1.199843 -1.75791,-1.869523 -1.11613,-0.697583 -2.5392,-0.697583 -1.39517,0 -2.53921,0.697583 -1.11613,0.66968 -1.75791,1.869523 -0.64177,1.171939 -0.64177,2.678719 0,1.478877 0.64177,2.67872 0.64178,1.171939 1.75791,1.869523 1.14404,0.669679 2.53921,0.669679 z m -20.14618,2.5113 q -2.03695,0 -3.65534,-1.00452 -1.61839,-1.032423 -2.56711,-2.762429 -0.92081,-1.75791 -0.92081,-3.962273 0,-2.204363 1.00452,-3.962272 1.03243,-1.75791 2.76243,-2.76243 1.75791,-1.032423 3.93437,-1.032423 2.17646,0 3.90647,1.032423 1.73,1.00452 2.73452,2.76243 1.03243,1.757909 1.03243,3.962272 h -1.08823 q 0,2.204363 -0.94872,3.962273 -0.92081,1.730006 -2.5392,2.762429 -1.61839,1.00452 -3.65533,1.00452 z m 0.55806,-2.5113 q 1.42307,0 2.53921,-0.669679 1.11613,-0.697584 1.75791,-1.869523 0.64177,-1.199843 0.64177,-2.67872 0,-1.50678 -0.64177,-2.678719 -0.64178,-1.199843 -1.75791,-1.869523 -1.11614,-0.697583 -2.53921,-0.697583 -1.39516,0 -2.5392,0.697583 -1.11613,0.66968 -1.78581,1.869523 -0.64178,1.171939 -0.64178,2.678719 0,1.478877 0.64178,2.67872 0.66968,1.171939 1.78581,1.869523 1.14404,0.669679 2.5392,0.669679 z m 6.25035,2.42759 q -0.61388,0 -1.03243,-0.390647 -0.39064,-0.418549 -0.39064,-1.032423 V 56.69483 l 0.53016,-2.957753 2.31598,1.00452 v 6.222442 q 0,0.613874 -0.41855,1.032423 -0.39065,0.390647 -1.00452,0.390647 z m -23.02024,0.08371 q -2.23226,0 -3.99017,-1.00452 -1.73001,-1.032423 -2.73453,-2.762429 -0.97662,-1.75791 -0.97662,-3.962273 0,-2.260169 0.97662,-4.018079 0.97662,-1.75791 2.67872,-2.734526 1.7021,-1.00452 3.90647,-1.00452 1.64629,0 3.01356,0.641777 1.36726,0.613873 2.45549,1.869523 0.39064,0.446453 0.27903,0.920809 -0.11161,0.474357 -0.61387,0.8371 -0.39065,0.279033 -0.865,0.195323 -0.47436,-0.111613 -0.86501,-0.502259 -1.36726,-1.450973 -3.4042,-1.450973 -1.42307,0 -2.5113,0.669679 -1.08823,0.641777 -1.70211,1.813717 -0.61387,1.171939 -0.61387,2.762429 0,1.50678 0.61387,2.67872 0.64178,1.171939 1.75791,1.869523 1.11614,0.669679 2.59501,0.669679 0.97662,0 1.70211,-0.223226 0.75339,-0.25113 1.36726,-0.75339 0.44645,-0.362743 0.92081,-0.390647 0.47436,-0.05581 0.8371,0.25113 0.47436,0.390647 0.53016,0.892907 0.0558,0.474356 -0.33484,0.865003 -2.00904,1.869523 -5.0226,1.869523 z m -16.51875,0 q -1.95323,0 -3.62743,-0.58597 -1.6463,-0.613873 -2.56711,-1.534683 -0.41855,-0.446453 -0.36274,-1.00452 0.0837,-0.58597 0.55806,-0.948713 0.55807,-0.446453 1.08823,-0.362743 0.55807,0.05581 0.94872,0.474356 0.47435,0.530164 1.50678,1.00452 1.06032,0.446453 2.34388,0.446453 1.61839,0 2.45549,-0.530163 0.865,-0.530163 0.89291,-1.367263 0.0279,-0.8371 -0.8092,-1.450973 -0.8092,-0.613873 -2.98566,-1.00452 -2.81823,-0.558066 -4.10179,-1.674199 -1.25565,-1.116133 -1.25565,-2.734526 0,-1.42307 0.8371,-2.34388 0.8371,-0.948713 2.14856,-1.395166 1.31146,-0.474357 2.73453,-0.474357 1.84162,0 3.26469,0.58597 1.42307,0.58597 2.26017,1.618393 0.39064,0.446453 0.36274,0.948713 -0.0279,0.474357 -0.47436,0.809197 -0.44645,0.306936 -1.06032,0.195323 -0.61388,-0.111613 -1.03243,-0.50226 -0.69758,-0.66968 -1.50678,-0.92081 -0.80919,-0.25113 -1.86952,-0.25113 -1.22775,0 -2.09275,0.41855 -0.8371,0.41855 -0.8371,1.227747 0,0.502259 0.25113,0.920809 0.27903,0.390647 1.06033,0.725487 0.78129,0.306936 2.28807,0.613873 2.09275,0.41855 3.29259,1.060327 1.22775,0.641776 1.75791,1.506779 0.53017,0.8371 0.53017,1.953233 0,1.283553 -0.69759,2.315976 -0.66968,1.032424 -2.00904,1.646297 -1.31145,0.613873 -3.29259,0.613873 z m -18.24875,0 q -2.17646,0 -3.93437,-1.00452 -1.73,-1.032423 -2.76243,-2.790333 -1.00452,-1.757909 -1.00452,-3.962272 0,-2.204363 0.92081,-3.934369 0.94872,-1.75791 2.56711,-2.76243 1.61839,-1.032423 3.65533,-1.032423 1.6463,0 3.04147,0.697583 1.39516,0.66968 2.34388,1.84162 v -7.533899 q 0,-0.641776 0.39064,-1.032423 0.41855,-0.390646 1.03243,-0.390646 0.64177,0 1.03242,0.390646 0.39065,0.390647 0.39065,1.032423 v 12.723918 q 0,2.204363 -1.03243,3.962272 -1.00452,1.75791 -2.73452,2.790333 -1.73001,1.00452 -3.90647,1.00452 z m 0,-2.5113 q 1.42307,0 2.5392,-0.669679 1.11614,-0.697584 1.75791,-1.897427 0.64178,-1.199843 0.64178,-2.678719 0,-1.50678 -0.64178,-2.67872 -0.64177,-1.171939 -1.75791,-1.841619 -1.11613,-0.697583 -2.5392,-0.697583 -1.39517,0 -2.5392,0.697583 -1.11614,0.66968 -1.78581,1.841619 -0.64178,1.17194 -0.64178,2.67872 0,1.478876 0.64178,2.678719 0.66967,1.199843 1.78581,1.897427 1.14403,0.669679 2.5392,0.669679 z m -13.05874,2.42759 q -0.61387,0 -1.03242,-0.390647 -0.39065,-0.418549 -0.39065,-1.032423 v -6.864218 q 0,-1.59049 -0.58597,-2.59501 -0.58597,-1.00452 -1.59049,-1.478876 -0.97661,-0.50226 -2.26017,-0.50226 -1.17194,0 -2.12065,0.474356 -0.94871,0.474357 -1.50678,1.283554 -0.55807,0.781293 -0.55807,1.813716 h -1.75791 q 0,-1.75791 0.8371,-3.125173 0.86501,-1.395166 2.34388,-2.204363 1.47888,-0.809196 3.3205,-0.809196 1.92533,0 3.43211,0.8371 1.53468,0.809196 2.39968,2.399686 0.89291,1.590489 0.89291,3.906466 v 6.864218 q 0,0.613874 -0.41855,1.032423 -0.39065,0.390647 -1.00452,0.390647 z m -11.46827,0 q -0.61387,0 -1.03242,-0.390647 -0.39065,-0.418549 -0.39065,-1.032423 V 48.519155 q 0,-0.641777 0.39065,-1.032423 0.41855,-0.390647 1.03242,-0.390647 0.64178,0 1.03243,0.390647 0.39064,0.390646 0.39064,1.032423 v 12.444884 q 0,0.613874 -0.39064,1.032423 -0.39065,0.390647 -1.03243,0.390647 z m -13.89583,0.08371 q -2.036943,0 -3.655336,-1.00452 -1.618393,-1.032423 -2.567107,-2.762429 -0.920809,-1.75791 -0.920809,-3.962273 0,-2.204363 1.004519,-3.962272 1.032424,-1.75791 2.76243,-2.76243 1.75791,-1.032423 3.934369,-1.032423 2.17646,0 3.906464,1.032423 1.73001,1.00452 2.73453,2.76243 1.03242,1.757909 1.03242,3.962272 h -1.08823 q 0,2.204363 -0.94871,3.962273 -0.92081,1.730006 -2.5392,2.762429 -1.618397,1.00452 -3.65534,1.00452 z m 0.558066,-2.5113 q 1.42307,0 2.539203,-0.669679 1.116131,-0.697584 1.757911,-1.869523 0.64178,-1.199843 0.64178,-2.67872 0,-1.50678 -0.64178,-2.678719 -0.64178,-1.199843 -1.757911,-1.869523 -1.116133,-0.697583 -2.539203,-0.697583 -1.395166,0 -2.539203,0.697583 -1.116133,0.66968 -1.785813,1.869523 -0.641776,1.171939 -0.641776,2.678719 0,1.478877 0.641776,2.67872 0.66968,1.171939 1.785813,1.869523 1.144037,0.669679 2.539203,0.669679 z m 6.250344,2.42759 q -0.61387,0 -1.03242,-0.390647 -0.39065,-0.418549 -0.39065,-1.032423 V 56.69483 l 0.53017,-2.957753 2.31597,1.00452 v 6.222442 q 0,0.613874 -0.41855,1.032423 -0.39065,0.390647 -1.00452,0.390647 z m -29.382155,-0.0279 q -0.613873,0 -1.032423,-0.41855 -0.390647,-0.41855 -0.390647,-1.032423 V 42.01768 q 0,-0.613874 0.41855,-1.032424 0.41855,-0.418549 1.00452,-0.418549 0.613873,0 1.032423,0.418549 0.41855,0.41855 0.41855,1.032424 v 17.43958 h 10.101005 q 0.613873,0 1.032423,0.41855 0.41855,0.418549 0.41855,1.032423 0,0.613873 -0.41855,1.032423 -0.41855,0.41855 -1.032423,0.41855 z M 221.98847,34.890555 q -0.61388,0 -1.03243,-0.390646 -0.39064,-0.41855 -0.39064,-1.032424 v -7.980351 q 0,-1.75791 -0.86501,-2.59501 -0.865,-0.865003 -2.26016,-0.865003 -1.45098,0 -2.39969,1.00452 -0.92081,1.00452 -0.92081,2.567106 h -2.31598 q 0,-1.813716 0.7813,-3.180979 0.78129,-1.395167 2.17646,-2.17646 1.42307,-0.781293 3.23678,-0.781293 1.59049,0 2.81824,0.697583 1.22774,0.697583 1.89742,2.064846 0.69759,1.33936 0.69759,3.26469 v 7.980351 q 0,0.613874 -0.39065,1.032424 -0.39065,0.390646 -1.03242,0.390646 z m -18.61152,0 q -0.61388,0 -1.03243,-0.390646 -0.39064,-0.41855 -0.39064,-1.032424 V 21.050504 q 0,-0.641776 0.39064,-1.032423 0.41855,-0.390646 1.03243,-0.390646 0.64177,0 1.03242,0.390646 0.39065,0.390647 0.39065,1.032423 v 12.416981 q 0,0.613874 -0.39065,1.032424 -0.39065,0.390646 -1.03242,0.390646 z m 9.31971,0 q -0.61387,0 -1.03242,-0.390646 -0.39065,-0.41855 -0.39065,-1.032424 v -7.980351 q 0,-1.75791 -0.865,-2.59501 -0.86501,-0.865003 -2.26017,-0.865003 -1.45098,0 -2.39969,1.00452 -0.94871,1.00452 -0.94871,2.567106 h -1.75791 q 0,-1.813716 0.72548,-3.180979 0.72549,-1.395167 2.00904,-2.17646 1.28356,-0.781293 2.92985,-0.781293 1.59049,0 2.81824,0.697583 1.22775,0.697583 1.89743,2.064846 0.69758,1.33936 0.69758,3.26469 v 7.980351 q 0,0.613874 -0.39065,1.032424 -0.39064,0.390646 -1.03242,0.390646 z m -23.21555,0.08371 q -2.03694,0 -3.65533,-1.00452 -1.6184,-1.032423 -2.56711,-2.762429 -0.92081,-1.75791 -0.92081,-3.962273 0,-2.204363 1.00452,-3.962272 1.03242,-1.75791 2.76243,-2.76243 1.75791,-1.032423 3.93437,-1.032423 2.17646,0 3.90647,1.032423 1.73,1.00452 2.73452,2.76243 1.03242,1.757909 1.03242,3.962272 h -1.08823 q 0,2.204363 -0.94871,3.962273 -0.92081,1.730006 -2.5392,2.762429 -1.61839,1.00452 -3.65534,1.00452 z m 0.55807,-2.511299 q 1.42307,0 2.5392,-0.66968 1.11614,-0.697583 1.75791,-1.869523 0.64178,-1.199843 0.64178,-2.67872 0,-1.506779 -0.64178,-2.678719 -0.64177,-1.199843 -1.75791,-1.869523 -1.11613,-0.697583 -2.5392,-0.697583 -1.39517,0 -2.5392,0.697583 -1.11614,0.66968 -1.78582,1.869523 -0.64177,1.17194 -0.64177,2.678719 0,1.478877 0.64177,2.67872 0.66968,1.17194 1.78582,1.869523 1.14403,0.66968 2.5392,0.66968 z m 6.25034,2.427589 q -0.61387,0 -1.03242,-0.390646 -0.39065,-0.41855 -0.39065,-1.032424 v -4.269209 l 0.53017,-2.957753 2.31597,1.00452 v 6.222442 q 0,0.613874 -0.41855,1.032424 -0.39064,0.390646 -1.00452,0.390646 z m -24.24791,-9.570841 q 0,-1.6742 0.80919,-2.985656 0.8371,-1.33936 2.23227,-2.120653 1.39517,-0.781294 3.06937,-0.781294 1.6742,0 2.48339,0.558067 0.8371,0.530163 0.64178,1.283553 -0.0837,0.390647 -0.33484,0.613873 -0.22323,0.195324 -0.53016,0.25113 -0.30694,0.05581 -0.66968,-0.0279 -1.78582,-0.362743 -3.20889,-0.05581 -1.42307,0.306937 -2.26017,1.144037 -0.80919,0.8371 -0.80919,2.120653 z m 0.0279,9.542938 q -0.66968,0 -1.03242,-0.33484 -0.36275,-0.362743 -0.36275,-1.060327 V 20.994698 q 0,-0.66968 0.36275,-1.032423 0.36274,-0.362744 1.03242,-0.362744 0.69758,0 1.03242,0.362744 0.36275,0.33484 0.36275,1.032423 v 12.472787 q 0,0.66968 -0.36275,1.032424 -0.33484,0.362743 -1.03242,0.362743 z m -13.86793,0.111613 q -2.09275,0 -3.71114,-0.976616 -1.59049,-1.00452 -2.5113,-2.734526 -0.92081,-1.75791 -0.92081,-4.01808 0,-2.288073 0.97661,-4.018079 1.00452,-1.75791 2.73453,-2.734526 1.73001,-1.00452 3.99018,-1.00452 2.23226,0 3.96227,1.00452 1.73,0.976616 2.70662,2.734526 1.00452,1.730006 1.00452,4.018079 h -1.6463 q 0,2.26017 -0.865,4.01808 -0.8371,1.730006 -2.31597,2.734526 -1.47888,0.976616 -3.40421,0.976616 z m 0.50226,6.222442 q -1.98114,0 -3.71114,-0.781293 -1.73001,-0.781293 -2.92985,-2.288073 -0.36275,-0.474356 -0.27904,-0.976616 0.11162,-0.50226 0.55807,-0.809197 0.50226,-0.33484 1.03242,-0.223226 0.55807,0.111613 0.89291,0.558066 0.75339,0.948713 1.89743,1.478877 1.14403,0.530163 2.59501,0.530163 1.33936,0 2.45549,-0.641777 1.14404,-0.641776 1.81371,-1.897426 0.66968,-1.25565 0.66968,-3.069366 v -3.962273 l 0.92081,-2.455493 1.81372,0.58597 v 6.027119 q 0,2.204363 -0.97662,3.990176 -0.97661,1.813716 -2.73452,2.874043 -1.73001,1.060326 -4.01808,1.060326 z m 0.0558,-8.733741 q 1.45097,0 2.5671,-0.66968 1.11614,-0.66968 1.73001,-1.84162 0.64177,-1.17194 0.64177,-2.706623 0,-1.534683 -0.64177,-2.706623 -0.61387,-1.199843 -1.73001,-1.869522 -1.11613,-0.66968 -2.5671,-0.66968 -1.45098,0 -2.56711,0.66968 -1.11613,0.669679 -1.75791,1.869522 -0.64178,1.17194 -0.64178,2.706623 0,1.534683 0.64178,2.706623 0.64178,1.17194 1.75791,1.84162 1.11613,0.66968 2.56711,0.66968 z m -19.39279,2.511299 q -2.03694,0 -3.65533,-1.00452 -1.61839,-1.032423 -2.56711,-2.762429 -0.92081,-1.75791 -0.92081,-3.962273 0,-2.204363 1.00452,-3.962272 1.03243,-1.75791 2.76243,-2.76243 1.75791,-1.032423 3.93437,-1.032423 2.17646,0 3.90647,1.032423 1.73,1.00452 2.73452,2.76243 1.03243,1.757909 1.03243,3.962272 h -1.08823 q 0,2.204363 -0.94872,3.962273 -0.92081,1.730006 -2.5392,2.762429 -1.61839,1.00452 -3.65534,1.00452 z m 0.55807,-2.511299 q 1.42307,0 2.5392,-0.66968 1.11614,-0.697583 1.75791,-1.869523 0.64178,-1.199843 0.64178,-2.67872 0,-1.506779 -0.64178,-2.678719 -0.64177,-1.199843 -1.75791,-1.869523 -1.11613,-0.697583 -2.5392,-0.697583 -1.39517,0 -2.5392,0.697583 -1.11613,0.66968 -1.78581,1.869523 -0.64178,1.17194 -0.64178,2.678719 0,1.478877 0.64178,2.67872 0.66968,1.17194 1.78581,1.869523 1.14403,0.66968 2.5392,0.66968 z m 6.25035,2.427589 q -0.61388,0 -1.03243,-0.390646 -0.39064,-0.41855 -0.39064,-1.032424 v -4.269209 l 0.53016,-2.957753 2.31598,1.00452 v 6.222442 q 0,0.613874 -0.41855,1.032424 -0.39065,0.390646 -1.00452,0.390646 z m -18.80682,-0.0279 q -1.39517,0 -2.5113,-0.697583 -1.11613,-0.725487 -1.75791,-1.953233 -0.64178,-1.227747 -0.64178,-2.76243 v -13.30989 q 0,-0.613873 0.39065,-1.00452 0.39065,-0.390647 1.00452,-0.390647 0.61387,0 1.00452,0.390647 0.39065,0.390647 0.39065,1.00452 v 13.309887 q 0,1.116133 0.61387,1.869523 0.61387,0.75339 1.50678,0.75339 h 0.94871 q 0.50226,0 0.8371,0.390647 0.36275,0.390646 0.36275,1.004519 0,0.613874 -0.47436,1.00452 -0.44645,0.390647 -1.17194,0.390647 z m -6.19454,-12.305368 q -0.58597,0 -0.94871,-0.33484 -0.36275,-0.33484 -0.36275,-0.8371 0,-0.558066 0.36275,-0.892906 0.36274,-0.33484 0.94871,-0.33484 h 6.44567 q 0.58597,0 0.94871,0.33484 0.36275,0.33484 0.36275,0.892906 0,0.50226 -0.36275,0.8371 -0.36274,0.33484 -0.94871,0.33484 z m -8.95695,12.416981 q -1.95323,0 -3.62743,-0.58597 -1.6463,-0.613873 -2.5671,-1.534683 -0.41855,-0.446453 -0.36275,-1.00452 0.0837,-0.585969 0.55807,-0.948713 0.55806,-0.446453 1.08823,-0.362743 0.55806,0.05581 0.94871,0.474357 0.47436,0.530163 1.50678,1.004519 1.06033,0.446454 2.34388,0.446454 1.61839,0 2.45549,-0.530164 0.86501,-0.530163 0.89291,-1.367263 0.0279,-0.8371 -0.8092,-1.450973 -0.80919,-0.613873 -2.98565,-1.00452 -2.81824,-0.558066 -4.10179,-1.674199 -1.25565,-1.116133 -1.25565,-2.734526 0,-1.42307 0.8371,-2.34388 0.8371,-0.948713 2.14855,-1.395166 1.31146,-0.474357 2.73453,-0.474357 1.84162,0 3.26469,0.58597 1.42307,0.58597 2.26017,1.618393 0.39065,0.446453 0.36274,0.948713 -0.0279,0.474357 -0.47435,0.809197 -0.44646,0.306936 -1.06033,0.195323 -0.61387,-0.111613 -1.03242,-0.50226 -0.69759,-0.66968 -1.50678,-0.92081 -0.8092,-0.25113 -1.86953,-0.25113 -1.22774,0 -2.09275,0.41855 -0.8371,0.41855 -0.8371,1.227747 0,0.50226 0.25113,0.920809 0.27904,0.390647 1.06033,0.725487 0.78129,0.306937 2.28807,0.613873 2.09275,0.41855 3.2926,1.060327 1.22774,0.641776 1.75791,1.506779 0.53016,0.8371 0.53016,1.953233 0,1.283553 -0.69758,2.315977 -0.66968,1.032423 -2.00904,1.646296 -1.31146,0.613873 -3.2926,0.613873 z m -11.69147,-0.08371 q -0.613873,0 -1.032422,-0.390646 -0.390647,-0.41855 -0.390647,-1.032424 V 26.60327 q 0,-1.59049 -0.58597,-2.59501 -0.58597,-1.00452 -1.59049,-1.478876 -0.976616,-0.50226 -2.260169,-0.50226 -1.17194,0 -2.120653,0.474357 -0.948713,0.474356 -1.50678,1.283553 -0.558066,0.781293 -0.558066,1.813716 h -1.75791 q 0,-1.75791 0.8371,-3.125173 0.865003,-1.395166 2.343879,-2.204363 1.478877,-0.809196 3.320496,-0.809196 1.92533,0 3.43211,0.8371 1.534682,0.809196 2.399682,2.399686 0.89291,1.59049 0.89291,3.906466 v 6.864218 q 0,0.613874 -0.41855,1.032424 -0.39065,0.390646 -1.00452,0.390646 z m -11.468267,0 q -0.613873,0 -1.032423,-0.390646 -0.390647,-0.41855 -0.390647,-1.032424 V 21.022601 q 0,-0.641776 0.390647,-1.032423 0.41855,-0.390647 1.032423,-0.390647 0.641776,0 1.032423,0.390647 0.390647,0.390647 0.390647,1.032423 v 12.444884 q 0,0.613874 -0.390647,1.032424 -0.390647,0.390646 -1.032423,0.390646 z m -8.175646,-0.0279 q -0.613873,0 -1.032423,-0.41855 -0.41855,-0.41855 -0.41855,-1.032423 V 14.521126 q 0,-0.641777 0.41855,-1.032423 0.41855,-0.41855 1.032423,-0.41855 0.641777,0 1.032424,0.41855 0.418549,0.390646 0.418549,1.032423 v 18.890553 q 0,0.613873 -0.418549,1.032423 -0.390647,0.41855 -1.032424,0.41855 z"
           inkscape:connector-curvature="0" />
        <path
           id="path6545"
           style="font-style:normal;font-variant:normal;font-weight:normal;font-stretch:normal;font-size:19.30029297px;line-height:1.25;font-family:Comfortaa;-inkscape-font-specification:Comfortaa;letter-spacing:0px;word-spacing:0px;fill:#ffffff;fill-opacity:1;stroke:none;stroke-width:0.48250729"
           d="m 185.86236,92.319511 q -1.31242,0 -2.33533,-0.579008 -1.02292,-0.598309 -1.62123,-1.621225 -0.57901,-1.022916 -0.57901,-2.335335 0,-1.29312 0.57901,-2.316036 0.59831,-1.042215 1.62123,-1.621224 1.02291,-0.598309 2.33533,-0.598309 1.29312,0 2.31604,0.598309 1.02291,0.579009 1.60192,1.621224 0.59831,1.022916 0.59831,2.316036 0,1.312419 -0.59831,2.335335 -0.57901,1.022916 -1.60192,1.621225 -1.02292,0.579008 -2.31604,0.579008 z m -0.0193,-1.389621 q 0.88781,0 1.58262,-0.405306 0.71412,-0.405306 1.11942,-1.119417 0.40531,-0.714111 0.40531,-1.621224 0,-0.907114 -0.40531,-1.621225 -0.4053,-0.714111 -1.11942,-1.119417 -0.69481,-0.424606 -1.58262,-0.424606 -0.88781,0 -1.58262,0.424606 -0.69481,0.405306 -1.10012,1.119417 -0.40531,0.714111 -0.40531,1.621225 0,0.907113 0.40531,1.621224 0.40531,0.714111 1.10012,1.119417 0.69481,0.405306 1.58262,0.405306 z m -3.95656,-5.442682 4.76717,-7.835919 q 0.25091,-0.405306 0.67551,-0.405306 0.28951,0 0.50181,0.173702 0.2123,0.173703 0.2509,0.443907 0.0579,0.270204 -0.0965,0.521108 l -3.18454,5.191779 z m -7.19898,6.832303 q -1.31242,0 -2.33533,-0.579008 -1.02292,-0.598309 -1.62123,-1.621225 -0.57901,-1.022916 -0.57901,-2.335335 0,-1.29312 0.57901,-2.316036 0.59831,-1.042215 1.62123,-1.621224 1.02291,-0.598309 2.33533,-0.598309 1.29312,0 2.31604,0.598309 1.02291,0.579009 1.60192,1.621224 0.59831,1.022916 0.59831,2.316036 0,1.312419 -0.59831,2.335335 -0.57901,1.022916 -1.60192,1.621225 -1.02292,0.579008 -2.31604,0.579008 z m -0.0193,-1.389621 q 0.88782,0 1.58263,-0.405306 0.71411,-0.405306 1.11941,-1.119417 0.40531,-0.714111 0.40531,-1.621224 0,-0.907114 -0.40531,-1.621225 -0.4053,-0.714111 -1.11941,-1.119417 -0.69481,-0.424606 -1.58263,-0.424606 -0.88781,0 -1.58262,0.424606 -0.69481,0.405306 -1.10012,1.119417 -0.40531,0.714111 -0.40531,1.621225 0,0.907113 0.40531,1.621224 0.40531,0.714111 1.10012,1.119417 0.69481,0.405306 1.58262,0.405306 z m -3.95656,-5.442682 4.76717,-7.835919 q 0.25091,-0.405306 0.67551,-0.405306 0.28951,0 0.50181,0.173702 0.21231,0.173703 0.25091,0.443907 0.0579,0.270204 -0.0965,0.521108 l -3.18454,5.191779 z m -7.77799,6.832303 q -1.38962,0 -2.48974,-0.636909 -1.10012,-0.65621 -1.75633,-1.756327 -0.63691,-1.119417 -0.63691,-2.509038 0,-0.328105 0.21231,-0.540408 0.2123,-0.212303 0.5211,-0.212303 0.32811,0 0.54041,0.212303 0.2316,0.212303 0.2316,0.540408 0,0.965015 0.44391,1.737026 0.44391,0.772012 1.19662,1.215919 0.77201,0.443907 1.73703,0.443907 0.96501,0 1.73702,-0.443907 0.77201,-0.443907 1.21592,-1.215919 0.44391,-0.772011 0.44391,-1.737026 0,-0.965015 -0.44391,-1.737026 -0.44391,-0.772012 -1.21592,-1.215919 -0.77201,-0.443907 -1.73702,-0.443907 h -3.37756 q -0.3281,0 -0.5404,-0.212303 -0.21231,-0.231603 -0.21231,-0.540408 v -5.28828 q 0,-0.308805 0.21231,-0.521108 0.2123,-0.231604 0.5404,-0.231604 h 6.77441 q 0.3088,0 0.52111,0.231604 0.2316,0.212303 0.2316,0.521108 0,0.308804 -0.2123,0.540408 -0.21231,0.212303 -0.54041,0.212303 h -6.04099 v 3.782858 h 2.64414 q 1.40892,0 2.50903,0.65621 1.10012,0.636909 1.73703,1.756326 0.65621,1.100117 0.65621,2.489738 0,1.389621 -0.65621,2.509038 -0.63691,1.100117 -1.73703,1.756327 -1.10011,0.636909 -2.50903,0.636909 z m -7.60429,0 q -0.2316,0 -0.386,-0.0772 -0.13511,-0.0772 -0.28951,-0.270204 l -3.33895,-4.246064 -0.57901,-0.501808 -3.35825,-4.265365 q -0.2123,-0.250903 -0.2123,-0.521108 0.0193,-0.270204 0.193,-0.463207 0.1737,-0.212303 0.50181,-0.212303 0.3281,0 0.55971,0.231604 l 3.24245,4.149563 0.5211,0.424606 3.58986,4.59347 q 0.2509,0.308805 0.2123,0.579009 -0.0386,0.270204 -0.2509,0.424606 -0.19301,0.154402 -0.40531,0.154401 z m -7.64292,0 q -0.3088,0 -0.5018,-0.193003 -0.17371,-0.193002 -0.19301,-0.463207 0,-0.270204 0.21231,-0.521107 l 3.55125,-4.439068 0.82991,1.100117 -3.37755,4.284665 q -0.1737,0.231603 -0.52111,0.231603 z m 4.51627,-5.018076 -0.94571,-0.965014 3.33895,-4.226765 q 0.1351,-0.193002 0.2895,-0.270204 0.17371,-0.0772 0.34741,-0.0772 0.3281,0 0.50181,0.212303 0.1737,0.193003 0.1544,0.482508 0,0.270204 -0.193,0.521108 z m -11.50295,5.018076 q -1.42823,0 -2.45114,-0.907113 -1.02292,-0.907114 -1.56333,-2.58624 -0.5211,-1.698425 -0.5211,-4.072361 0,-2.335336 0.5211,-4.033762 0.54041,-1.698425 1.56333,-2.605539 1.02291,-0.907114 2.45114,-0.907114 1.46682,0 2.47043,0.926414 1.02292,0.907114 1.54403,2.60554 0.5404,1.698425 0.5404,4.014461 0,2.354635 -0.5404,4.053061 -0.52111,1.679126 -1.54403,2.60554 -1.00361,0.907113 -2.47043,0.907113 z m 0,-1.505422 q 1.04221,0 1.71772,-0.772012 0.67551,-0.791312 1.00362,-2.161633 0.3281,-1.370321 0.3281,-3.126647 0,-1.737027 -0.3474,-3.088047 -0.32811,-1.370321 -1.00362,-2.161633 -0.67551,-0.791312 -1.69842,-0.791312 -1.02292,0 -1.69843,0.791312 -0.65621,0.772012 -1.00362,2.142332 -0.3281,1.370321 -0.3281,3.107348 0,1.775627 0.3281,3.145947 0.34741,1.351021 1.00362,2.142333 0.67551,0.772012 1.69843,0.772012 z m -11.21345,1.582624 q -1.29312,0 -2.31603,-0.598309 -1.02292,-0.61761 -1.62123,-1.659826 -0.579,-1.042216 -0.579,-2.354635 0,-1.27382 0.579,-2.277435 0.59831,-1.003615 1.62123,-1.582624 1.02291,-0.579009 2.31603,-0.579009 1.29312,0 2.31604,0.579009 1.02291,0.579009 1.60192,1.582624 0.57901,1.003615 0.57901,2.277435 -0.0193,1.312419 -0.61761,2.354635 -0.57901,1.042216 -1.60192,1.659826 -1.00362,0.598309 -2.27744,0.598309 z m 0,-1.351021 q 0.84922,0 1.52473,-0.424606 0.67551,-0.443907 1.06151,-1.177318 0.40531,-0.733411 0.40531,-1.659825 0,-0.887814 -0.38601,-1.582624 -0.386,-0.714111 -1.06151,-1.119417 -0.67551,-0.405307 -1.54403,-0.405307 -0.86851,0 -1.54402,0.405307 -0.67551,0.405306 -1.08082,1.119417 -0.386,0.69481 -0.386,1.582624 0,0.926414 0.386,1.659825 0.38601,0.733411 1.06152,1.177318 0.69481,0.424606 1.56332,0.424606 z m 0,-6.504199 q -1.06151,0 -1.91073,-0.482507 -0.84921,-0.482507 -1.33172,-1.31242 -0.4825,-0.829912 -0.4825,-1.891429 0,-1.022915 0.4825,-1.852828 0.48251,-0.829912 1.33172,-1.31242 0.84922,-0.482507 1.91073,-0.482507 1.06152,-0.0193 1.91073,0.463207 0.84922,0.463207 1.33172,1.31242 0.48251,0.829913 0.46321,1.872128 0,1.061517 -0.50181,1.891429 -0.48251,0.829913 -1.33172,1.31242 -0.82991,0.482507 -1.87213,0.482507 z m 0,-1.293119 q 0.63691,0 1.13872,-0.308805 0.52111,-0.328105 0.82991,-0.868513 0.30881,-0.559709 0.30881,-1.235219 0.0193,-0.65621 -0.28951,-1.158017 -0.2895,-0.521108 -0.81061,-0.810613 -0.52111,-0.289504 -1.17732,-0.289504 -0.98431,0 -1.64052,0.65621 -0.63691,0.636909 -0.65621,1.601924 -0.0193,1.022916 0.63691,1.717726 0.65621,0.694811 1.65982,0.694811 z m -11.25205,9.071137 q -1.42822,0 -2.45114,-0.907113 -1.02291,-0.907114 -1.56332,-2.58624 -0.52111,-1.698425 -0.52111,-4.072361 0,-2.335336 0.52111,-4.033762 0.54041,-1.698425 1.56332,-2.605539 1.02292,-0.907114 2.45114,-0.907114 1.46682,0 2.47044,0.926414 1.02291,0.907114 1.54402,2.60554 0.54041,1.698425 0.54041,4.014461 0,2.354635 -0.54041,4.053061 -0.52111,1.679126 -1.54402,2.60554 -1.00362,0.907113 -2.47044,0.907113 z m 0,-1.505422 q 1.04222,0 1.71773,-0.772012 0.67551,-0.791312 1.00361,-2.161633 0.32811,-1.370321 0.32811,-3.126647 0,-1.737027 -0.34741,-3.088047 -0.3281,-1.370321 -1.00361,-2.161633 -0.67551,-0.791312 -1.69843,-0.791312 -1.02292,0 -1.69843,0.791312 -0.65621,0.772012 -1.00361,2.142332 -0.32811,1.370321 -0.32811,3.107348 0,1.775627 0.32811,3.145947 0.3474,1.351021 1.00361,2.142333 0.67551,0.772012 1.69843,0.772012 z m -8.18329,1.505422 q -0.30881,0 -0.54041,-0.212303 -0.2123,-0.212303 -0.2123,-0.540408 V 79.02161 l -1.93003,0.67551 q -0.21231,0.0965 -0.38601,0.0965 -0.3281,0 -0.54041,-0.212303 -0.2123,-0.212303 -0.2123,-0.521108 0,-0.231603 0.0965,-0.424606 0.1158,-0.193003 0.38601,-0.289505 l 2.97224,-1.022915 q 0.0965,-0.0386 0.193,-0.0579 0.11581,-0.0386 0.19301,-0.0386 0.3281,0 0.52111,0.231604 0.2123,0.212303 0.2123,0.521108 V 91.5668 q 0,0.328105 -0.2123,0.540408 -0.21231,0.212303 -0.54041,0.212303 z"
           inkscape:connector-curvature="0" />
      </g>
      <g
         transform="translate(37.778752,-84.345937)"
         id="g6468">
        <path
           id="path6628"
           style="font-style:normal;font-variant:normal;font-weight:bold;font-stretch:normal;font-size:27.90332794px;line-height:1.25;font-family:Comfortaa;-inkscape-font-specification:'Comfortaa Bold';text-align:center;letter-spacing:0px;word-spacing:0px;text-anchor:middle;fill:#ffffff;fill-opacity:1;stroke:none;stroke-width:0.69758314"
           d="m 196.70812,62.470819 q -2.31598,0 -4.1297,-0.976616 -1.78581,-1.00452 -2.81823,-2.734527 -1.00452,-1.757909 -1.00452,-4.018079 0,-2.288073 0.94871,-4.018079 0.97662,-1.75791 2.67872,-2.734526 1.7021,-1.00452 3.90647,-1.00452 2.17646,0 3.73904,0.976616 1.56259,0.948714 2.37178,2.650817 0.8371,1.674199 0.8371,3.878562 0,0.530163 -0.36274,0.892907 -0.36274,0.33484 -0.92081,0.33484 H 190.7089 v -2.232267 h 11.16133 l -1.14404,0.781294 q -0.0279,-1.395167 -0.55806,-2.483397 -0.53017,-1.116133 -1.50678,-1.757909 -0.97662,-0.641777 -2.37178,-0.641777 -1.59049,0 -2.73453,0.697583 -1.11613,0.697584 -1.7021,1.92533 -0.58597,1.199843 -0.58597,2.734526 0,1.534683 0.69758,2.734526 0.69758,1.199843 1.92533,1.897427 1.22775,0.697583 2.81824,0.697583 0.865,0 1.75791,-0.306937 0.9208,-0.33484 1.47887,-0.75339 0.41855,-0.306936 0.89291,-0.306936 0.50226,-0.0279 0.865,0.279033 0.47436,0.41855 0.50226,0.92081 0.0279,0.50226 -0.44645,0.865003 -0.94872,0.75339 -2.37179,1.227746 -1.39516,0.474357 -2.67871,0.474357 z m -18.24871,-9.654551 q 0,-1.6742 0.8092,-2.985657 0.8371,-1.339359 2.23227,-2.120652 1.39516,-0.781294 3.06936,-0.781294 1.6742,0 2.4834,0.558067 0.8371,0.530163 0.64178,1.283553 -0.0837,0.390647 -0.33484,0.613873 -0.22323,0.195324 -0.53017,0.25113 -0.30693,0.05581 -0.66968,-0.0279 -1.78581,-0.362743 -3.20888,-0.05581 -1.42307,0.306937 -2.26017,1.144037 -0.8092,0.837099 -0.8092,2.120653 z m 0.0279,9.542938 q -0.66968,0 -1.03243,-0.33484 -0.36274,-0.362743 -0.36274,-1.060327 V 48.491252 q 0,-0.66968 0.36274,-1.032423 0.36275,-0.362744 1.03243,-0.362744 0.69758,0 1.03242,0.362744 0.36274,0.33484 0.36274,1.032423 v 12.472787 q 0,0.66968 -0.36274,1.032423 -0.33484,0.362744 -1.03242,0.362744 z m -13.86792,0.111613 q -2.03695,0 -3.65534,-1.00452 -1.61839,-1.032423 -2.56711,-2.762429 -0.92081,-1.75791 -0.92081,-3.962273 0,-2.204363 1.00452,-3.962272 1.03243,-1.75791 2.76243,-2.76243 1.75791,-1.032423 3.93437,-1.032423 2.17646,0 3.90647,1.032423 1.73,1.00452 2.73452,2.76243 1.03243,1.757909 1.03243,3.962272 h -1.08823 q 0,2.204363 -0.94872,3.962273 -0.92081,1.730006 -2.5392,2.762429 -1.61839,1.00452 -3.65533,1.00452 z m 0.55806,-2.5113 q 1.42307,0 2.5392,-0.669679 1.11614,-0.697584 1.75791,-1.869523 0.64178,-1.199843 0.64178,-2.67872 0,-1.50678 -0.64178,-2.678719 -0.64177,-1.199843 -1.75791,-1.869523 -1.11613,-0.697583 -2.5392,-0.697583 -1.39516,0 -2.5392,0.697583 -1.11613,0.66968 -1.78581,1.869523 -0.64178,1.171939 -0.64178,2.678719 0,1.478877 0.64178,2.67872 0.66968,1.171939 1.78581,1.869523 1.14404,0.669679 2.5392,0.669679 z m 6.25035,2.42759 q -0.61388,0 -1.03243,-0.390647 -0.39064,-0.418549 -0.39064,-1.032423 V 56.69483 l 0.53016,-2.957753 2.31598,1.00452 v 6.222442 q 0,0.613874 -0.41855,1.032423 -0.39065,0.390647 -1.00452,0.390647 z m -25.78266,0.111613 q -1.92533,0 -3.46001,-0.809196 -1.50678,-0.8371 -2.39969,-2.42759 -0.865,-1.590489 -0.865,-3.906466 v -6.864218 q 0,-0.613874 0.39065,-1.00452 0.41855,-0.41855 1.03242,-0.41855 0.61387,0 1.00452,0.41855 0.41855,0.390646 0.41855,1.00452 v 6.864218 q 0,1.562587 0.58597,2.59501 0.58597,1.00452 1.59049,1.50678 1.00452,0.474356 2.26017,0.474356 1.19984,0 2.12065,-0.474356 0.94872,-0.474357 1.50678,-1.283553 0.55807,-0.809197 0.55807,-1.813717 h 1.75791 q 0,1.730007 -0.865,3.125173 -0.8371,1.395166 -2.31598,2.204363 -1.45097,0.809196 -3.3205,0.809196 z m 6.16664,-0.139516 q -0.61387,0 -1.03242,-0.390647 -0.39065,-0.41855 -0.39065,-1.032423 V 48.491252 q 0,-0.641777 0.39065,-1.032423 0.41855,-0.390647 1.03242,-0.390647 0.64178,0 1.03242,0.390647 0.39065,0.390646 0.39065,1.032423 v 12.444884 q 0,0.613873 -0.39065,1.032423 -0.39064,0.390647 -1.03242,0.390647 z m -19.00214,6.529378 q -0.64178,0 -1.06033,-0.418549 -0.39065,-0.390647 -0.39065,-1.00452 v -7.533899 q -0.94871,1.17194 -2.34387,1.869523 -1.39517,0.66968 -3.04147,0.66968 -2.03694,0 -3.65533,-1.00452 -1.6184,-1.032423 -2.56711,-2.762429 -0.92081,-1.75791 -0.92081,-3.962273 0,-2.204363 1.00452,-3.962272 1.03242,-1.75791 2.76243,-2.76243 1.75791,-1.032423 3.93437,-1.032423 2.17646,0 3.90647,1.032423 1.73,1.00452 2.73452,2.76243 1.03242,1.757909 1.03242,3.962272 v 12.723918 q 0,0.613873 -0.39064,1.00452 -0.39065,0.418549 -1.00452,0.418549 z m -6.27825,-8.929065 q 1.42307,0 2.5392,-0.669679 1.11614,-0.697584 1.75791,-1.869523 0.64178,-1.199843 0.64178,-2.67872 0,-1.50678 -0.64178,-2.678719 -0.64177,-1.199843 -1.75791,-1.869523 -1.11613,-0.697583 -2.5392,-0.697583 -1.39517,0 -2.5392,0.697583 -1.11614,0.66968 -1.78582,1.869523 -0.64177,1.171939 -0.64177,2.678719 0,1.478877 0.64177,2.67872 0.66968,1.171939 1.78582,1.869523 1.14403,0.669679 2.5392,0.669679 z m -18.91845,2.67872 q -1.78581,0 -3.4042,-0.558067 -1.6184,-0.558066 -2.81824,-1.562586 -1.19984,-1.00452 -1.75791,-2.315976 -0.279034,-0.58597 0,-1.08823 0.306936,-0.50226 1.00452,-0.641776 0.50226,-0.111614 0.97662,0.167419 0.50226,0.25113 0.75339,0.781294 0.33484,0.697583 1.08823,1.283553 0.78129,0.58597 1.86952,0.948713 1.08823,0.362743 2.28807,0.362743 1.33936,0 2.45549,-0.41855 1.14404,-0.41855 1.84162,-1.199843 0.69759,-0.809196 0.69759,-1.981136 0,-1.478877 -1.17194,-2.650816 -1.14404,-1.17194 -3.79486,-1.450973 -3.46001,-0.33484 -5.44114,-2.036943 -1.98114,-1.702103 -1.98114,-4.213403 0,-1.841619 1.03242,-3.125173 1.03243,-1.283553 2.79034,-1.953233 1.78581,-0.669679 3.96227,-0.669679 1.7021,0 2.95775,0.474356 1.28355,0.474357 2.23227,1.311457 0.94871,0.837099 1.64629,1.981136 0.39065,0.613873 0.30694,1.17194 -0.0558,0.530163 -0.53016,0.8371 -0.53017,0.334839 -1.14404,0.139516 -0.61387,-0.195323 -0.92081,-0.725486 -0.44645,-0.809197 -1.08823,-1.367263 -0.64178,-0.558067 -1.50678,-0.865004 -0.865,-0.33484 -2.03694,-0.33484 -2.06485,-0.0279 -3.46001,0.781294 -1.39517,0.781293 -1.39517,2.427589 0,0.8371 0.41855,1.618393 0.44645,0.75339 1.59049,1.311457 1.17194,0.558066 3.3484,0.781293 3.32049,0.33484 5.16211,2.036943 1.86953,1.674199 1.86953,4.436629 0,1.59049 -0.66968,2.762429 -0.64178,1.17194 -1.75791,1.981137 -1.08823,0.781293 -2.5113,1.171939 -1.39517,0.390647 -2.90195,0.390647 z M 221.98847,34.890555 q -0.61388,0 -1.03243,-0.390646 -0.39064,-0.41855 -0.39064,-1.032424 v -7.980351 q 0,-1.75791 -0.86501,-2.59501 -0.865,-0.865003 -2.26016,-0.865003 -1.45098,0 -2.39969,1.00452 -0.92081,1.00452 -0.92081,2.567106 h -2.31598 q 0,-1.813716 0.7813,-3.180979 0.78129,-1.395167 2.17646,-2.17646 1.42307,-0.781293 3.23678,-0.781293 1.59049,0 2.81824,0.697583 1.22774,0.697583 1.89742,2.064846 0.69759,1.33936 0.69759,3.26469 v 7.980351 q 0,0.613874 -0.39065,1.032424 -0.39065,0.390646 -1.03242,0.390646 z m -18.61152,0 q -0.61388,0 -1.03243,-0.390646 -0.39064,-0.41855 -0.39064,-1.032424 V 21.050504 q 0,-0.641776 0.39064,-1.032423 0.41855,-0.390646 1.03243,-0.390646 0.64177,0 1.03242,0.390646 0.39065,0.390647 0.39065,1.032423 v 12.416981 q 0,0.613874 -0.39065,1.032424 -0.39065,0.390646 -1.03242,0.390646 z m 9.31971,0 q -0.61387,0 -1.03242,-0.390646 -0.39065,-0.41855 -0.39065,-1.032424 v -7.980351 q 0,-1.75791 -0.865,-2.59501 -0.86501,-0.865003 -2.26017,-0.865003 -1.45098,0 -2.39969,1.00452 -0.94871,1.00452 -0.94871,2.567106 h -1.75791 q 0,-1.813716 0.72548,-3.180979 0.72549,-1.395167 2.00904,-2.17646 1.28356,-0.781293 2.92985,-0.781293 1.59049,0 2.81824,0.697583 1.22775,0.697583 1.89743,2.064846 0.69758,1.33936 0.69758,3.26469 v 7.980351 q 0,0.613874 -0.39065,1.032424 -0.39064,0.390646 -1.03242,0.390646 z m -23.21555,0.08371 q -2.03694,0 -3.65533,-1.00452 -1.6184,-1.032423 -2.56711,-2.762429 -0.92081,-1.75791 -0.92081,-3.962273 0,-2.204363 1.00452,-3.962272 1.03242,-1.75791 2.76243,-2.76243 1.75791,-1.032423 3.93437,-1.032423 2.17646,0 3.90647,1.032423 1.73,1.00452 2.73452,2.76243 1.03242,1.757909 1.03242,3.962272 h -1.08823 q 0,2.204363 -0.94871,3.962273 -0.92081,1.730006 -2.5392,2.762429 -1.61839,1.00452 -3.65534,1.00452 z m 0.55807,-2.511299 q 1.42307,0 2.5392,-0.66968 1.11614,-0.697583 1.75791,-1.869523 0.64178,-1.199843 0.64178,-2.67872 0,-1.506779 -0.64178,-2.678719 -0.64177,-1.199843 -1.75791,-1.869523 -1.11613,-0.697583 -2.5392,-0.697583 -1.39517,0 -2.5392,0.697583 -1.11614,0.66968 -1.78582,1.869523 -0.64177,1.17194 -0.64177,2.678719 0,1.478877 0.64177,2.67872 0.66968,1.17194 1.78582,1.869523 1.14403,0.66968 2.5392,0.66968 z m 6.25034,2.427589 q -0.61387,0 -1.03242,-0.390646 -0.39065,-0.41855 -0.39065,-1.032424 v -4.269209 l 0.53017,-2.957753 2.31597,1.00452 v 6.222442 q 0,0.613874 -0.41855,1.032424 -0.39064,0.390646 -1.00452,0.390646 z m -24.24791,-9.570841 q 0,-1.6742 0.80919,-2.985656 0.8371,-1.33936 2.23227,-2.120653 1.39517,-0.781294 3.06937,-0.781294 1.6742,0 2.48339,0.558067 0.8371,0.530163 0.64178,1.283553 -0.0837,0.390647 -0.33484,0.613873 -0.22323,0.195324 -0.53016,0.25113 -0.30694,0.05581 -0.66968,-0.0279 -1.78582,-0.362743 -3.20889,-0.05581 -1.42307,0.306937 -2.26017,1.144037 -0.80919,0.8371 -0.80919,2.120653 z m 0.0279,9.542938 q -0.66968,0 -1.03242,-0.33484 -0.36275,-0.362743 -0.36275,-1.060327 V 20.994698 q 0,-0.66968 0.36275,-1.032423 0.36274,-0.362744 1.03242,-0.362744 0.69758,0 1.03242,0.362744 0.36275,0.33484 0.36275,1.032423 v 12.472787 q 0,0.66968 -0.36275,1.032424 -0.33484,0.362743 -1.03242,0.362743 z m -13.86793,0.111613 q -2.09275,0 -3.71114,-0.976616 -1.59049,-1.00452 -2.5113,-2.734526 -0.92081,-1.75791 -0.92081,-4.01808 0,-2.288073 0.97661,-4.018079 1.00452,-1.75791 2.73453,-2.734526 1.73001,-1.00452 3.99018,-1.00452 2.23226,0 3.96227,1.00452 1.73,0.976616 2.70662,2.734526 1.00452,1.730006 1.00452,4.018079 h -1.6463 q 0,2.26017 -0.865,4.01808 -0.8371,1.730006 -2.31597,2.734526 -1.47888,0.976616 -3.40421,0.976616 z m 0.50226,6.222442 q -1.98114,0 -3.71114,-0.781293 -1.73001,-0.781293 -2.92985,-2.288073 -0.36275,-0.474356 -0.27904,-0.976616 0.11162,-0.50226 0.55807,-0.809197 0.50226,-0.33484 1.03242,-0.223226 0.55807,0.111613 0.89291,0.558066 0.75339,0.948713 1.89743,1.478877 1.14403,0.530163 2.59501,0.530163 1.33936,0 2.45549,-0.641777 1.14404,-0.641776 1.81371,-1.897426 0.66968,-1.25565 0.66968,-3.069366 v -3.962273 l 0.92081,-2.455493 1.81372,0.58597 v 6.027119 q 0,2.204363 -0.97662,3.990176 -0.97661,1.813716 -2.73452,2.874043 -1.73001,1.060326 -4.01808,1.060326 z m 0.0558,-8.733741 q 1.45097,0 2.5671,-0.66968 1.11614,-0.66968 1.73001,-1.84162 0.64177,-1.17194 0.64177,-2.706623 0,-1.534683 -0.64177,-2.706623 -0.61387,-1.199843 -1.73001,-1.869522 -1.11613,-0.66968 -2.5671,-0.66968 -1.45098,0 -2.56711,0.66968 -1.11613,0.669679 -1.75791,1.869522 -0.64178,1.17194 -0.64178,2.706623 0,1.534683 0.64178,2.706623 0.64178,1.17194 1.75791,1.84162 1.11613,0.66968 2.56711,0.66968 z m -19.39279,2.511299 q -2.03694,0 -3.65533,-1.00452 -1.61839,-1.032423 -2.56711,-2.762429 -0.92081,-1.75791 -0.92081,-3.962273 0,-2.204363 1.00452,-3.962272 1.03243,-1.75791 2.76243,-2.76243 1.75791,-1.032423 3.93437,-1.032423 2.17646,0 3.90647,1.032423 1.73,1.00452 2.73452,2.76243 1.03243,1.757909 1.03243,3.962272 h -1.08823 q 0,2.204363 -0.94872,3.962273 -0.92081,1.730006 -2.5392,2.762429 -1.61839,1.00452 -3.65534,1.00452 z m 0.55807,-2.511299 q 1.42307,0 2.5392,-0.66968 1.11614,-0.697583 1.75791,-1.869523 0.64178,-1.199843 0.64178,-2.67872 0,-1.506779 -0.64178,-2.678719 -0.64177,-1.199843 -1.75791,-1.869523 -1.11613,-0.697583 -2.5392,-0.697583 -1.39517,0 -2.5392,0.697583 -1.11613,0.66968 -1.78581,1.869523 -0.64178,1.17194 -0.64178,2.678719 0,1.478877 0.64178,2.67872 0.66968,1.17194 1.78581,1.869523 1.14403,0.66968 2.5392,0.66968 z m 6.25035,2.427589 q -0.61388,0 -1.03243,-0.390646 -0.39064,-0.41855 -0.39064,-1.032424 v -4.269209 l 0.53016,-2.957753 2.31598,1.00452 v 6.222442 q 0,0.613874 -0.41855,1.032424 -0.39065,0.390646 -1.00452,0.390646 z m -18.80682,-0.0279 q -1.39517,0 -2.5113,-0.697583 -1.11613,-0.725487 -1.75791,-1.953233 -0.64178,-1.227747 -0.64178,-2.76243 v -13.30989 q 0,-0.613873 0.39065,-1.00452 0.39065,-0.390647 1.00452,-0.390647 0.61387,0 1.00452,0.390647 0.39065,0.390647 0.39065,1.00452 v 13.309887 q 0,1.116133 0.61387,1.869523 0.61387,0.75339 1.50678,0.75339 h 0.94871 q 0.50226,0 0.8371,0.390647 0.36275,0.390646 0.36275,1.004519 0,0.613874 -0.47436,1.00452 -0.44645,0.390647 -1.17194,0.390647 z m -6.19454,-12.305368 q -0.58597,0 -0.94871,-0.33484 -0.36275,-0.33484 -0.36275,-0.8371 0,-0.558066 0.36275,-0.892906 0.36274,-0.33484 0.94871,-0.33484 h 6.44567 q 0.58597,0 0.94871,0.33484 0.36275,0.33484 0.36275,0.892906 0,0.50226 -0.36275,0.8371 -0.36274,0.33484 -0.94871,0.33484 z m -8.95695,12.416981 q -1.95323,0 -3.62743,-0.58597 -1.6463,-0.613873 -2.5671,-1.534683 -0.41855,-0.446453 -0.36275,-1.00452 0.0837,-0.585969 0.55807,-0.948713 0.55806,-0.446453 1.08823,-0.362743 0.55806,0.05581 0.94871,0.474357 0.47436,0.530163 1.50678,1.004519 1.06033,0.446454 2.34388,0.446454 1.61839,0 2.45549,-0.530164 0.86501,-0.530163 0.89291,-1.367263 0.0279,-0.8371 -0.8092,-1.450973 -0.80919,-0.613873 -2.98565,-1.00452 -2.81824,-0.558066 -4.10179,-1.674199 -1.25565,-1.116133 -1.25565,-2.734526 0,-1.42307 0.8371,-2.34388 0.8371,-0.948713 2.14855,-1.395166 1.31146,-0.474357 2.73453,-0.474357 1.84162,0 3.26469,0.58597 1.42307,0.58597 2.26017,1.618393 0.39065,0.446453 0.36274,0.948713 -0.0279,0.474357 -0.47435,0.809197 -0.44646,0.306936 -1.06033,0.195323 -0.61387,-0.111613 -1.03242,-0.50226 -0.69759,-0.66968 -1.50678,-0.92081 -0.8092,-0.25113 -1.86953,-0.25113 -1.22774,0 -2.09275,0.41855 -0.8371,0.41855 -0.8371,1.227747 0,0.50226 0.25113,0.920809 0.27904,0.390647 1.06033,0.725487 0.78129,0.306937 2.28807,0.613873 2.09275,0.41855 3.2926,1.060327 1.22774,0.641776 1.75791,1.506779 0.53016,0.8371 0.53016,1.953233 0,1.283553 -0.69758,2.315977 -0.66968,1.032423 -2.00904,1.646296 -1.31146,0.613873 -3.2926,0.613873 z m -11.69147,-0.08371 q -0.613873,0 -1.032422,-0.390646 -0.390647,-0.41855 -0.390647,-1.032424 V 26.60327 q 0,-1.59049 -0.58597,-2.59501 -0.58597,-1.00452 -1.59049,-1.478876 -0.976616,-0.50226 -2.260169,-0.50226 -1.17194,0 -2.120653,0.474357 -0.948713,0.474356 -1.50678,1.283553 -0.558066,0.781293 -0.558066,1.813716 h -1.75791 q 0,-1.75791 0.8371,-3.125173 0.865003,-1.395166 2.343879,-2.204363 1.478877,-0.809196 3.320496,-0.809196 1.92533,0 3.43211,0.8371 1.534682,0.809196 2.399682,2.399686 0.89291,1.59049 0.89291,3.906466 v 6.864218 q 0,0.613874 -0.41855,1.032424 -0.39065,0.390646 -1.00452,0.390646 z m -11.468267,0 q -0.613873,0 -1.032423,-0.390646 -0.390647,-0.41855 -0.390647,-1.032424 V 21.022601 q 0,-0.641776 0.390647,-1.032423 0.41855,-0.390647 1.032423,-0.390647 0.641776,0 1.032423,0.390647 0.390647,0.390647 0.390647,1.032423 v 12.444884 q 0,0.613874 -0.390647,1.032424 -0.390647,0.390646 -1.032423,0.390646 z m -8.175646,-0.0279 q -0.613873,0 -1.032423,-0.41855 -0.41855,-0.41855 -0.41855,-1.032423 V 14.521126 q 0,-0.641777 0.41855,-1.032423 0.41855,-0.41855 1.032423,-0.41855 0.641777,0 1.032424,0.41855 0.418549,0.390646 0.418549,1.032423 v 18.890553 q 0,0.613873 -0.418549,1.032423 -0.390647,0.41855 -1.032424,0.41855 z"
           inkscape:connector-curvature="0" />
        <path
           id="path6647"
           style="font-style:normal;font-variant:normal;font-weight:normal;font-stretch:normal;font-size:19.30029297px;line-height:1.25;font-family:Comfortaa;-inkscape-font-specification:Comfortaa;letter-spacing:0px;word-spacing:0px;fill:#ffffff;fill-opacity:1;stroke:none;stroke-width:0.48250729"
           d="m 192.05773,92.319511 q -1.42822,0 -2.45114,-0.907113 -1.02292,-0.907114 -1.56332,-2.58624 -0.52111,-1.698425 -0.52111,-4.072361 0,-2.335336 0.52111,-4.033762 0.5404,-1.698425 1.56332,-2.605539 1.02292,-0.907114 2.45114,-0.907114 1.46682,0 2.47044,0.926414 1.02291,0.907114 1.54402,2.60554 0.54041,1.698425 0.54041,4.014461 0,2.354635 -0.54041,4.053061 -0.52111,1.679126 -1.54402,2.60554 -1.00362,0.907113 -2.47044,0.907113 z m 0,-1.505422 q 1.04221,0 1.71772,-0.772012 0.67551,-0.791312 1.00362,-2.161633 0.3281,-1.370321 0.3281,-3.126647 0,-1.737027 -0.3474,-3.088047 -0.32811,-1.370321 -1.00362,-2.161633 -0.67551,-0.791312 -1.69842,-0.791312 -1.02292,0 -1.69843,0.791312 -0.65621,0.772012 -1.00361,2.142332 -0.32811,1.370321 -0.32811,3.107348 0,1.775627 0.32811,3.145947 0.3474,1.351021 1.00361,2.142333 0.67551,0.772012 1.69843,0.772012 z m -11.21344,1.582624 q -1.29312,0 -2.31604,-0.598309 -1.02291,-0.61761 -1.62122,-1.659826 -0.57901,-1.042216 -0.57901,-2.354635 0,-1.27382 0.57901,-2.277435 0.59831,-1.003615 1.62122,-1.582624 1.02292,-0.579009 2.31604,-0.579009 1.29312,0 2.31603,0.579009 1.02292,0.579009 1.60193,1.582624 0.579,1.003615 0.579,2.277435 -0.0193,1.312419 -0.61761,2.354635 -0.579,1.042216 -1.60192,1.659826 -1.00361,0.598309 -2.27743,0.598309 z m 0,-1.351021 q 0.84921,0 1.52472,-0.424606 0.67551,-0.443907 1.06151,-1.177318 0.40531,-0.733411 0.40531,-1.659825 0,-0.887814 -0.386,-1.582624 -0.38601,-0.714111 -1.06152,-1.119417 -0.67551,-0.405307 -1.54402,-0.405307 -0.86852,0 -1.54403,0.405307 -0.67551,0.405306 -1.08081,1.119417 -0.38601,0.69481 -0.38601,1.582624 0,0.926414 0.38601,1.659825 0.386,0.733411 1.06151,1.177318 0.69481,0.424606 1.56333,0.424606 z m 0,-6.504199 q -1.06152,0 -1.91073,-0.482507 -0.84922,-0.482507 -1.33172,-1.31242 -0.48251,-0.829912 -0.48251,-1.891429 0,-1.022915 0.48251,-1.852828 0.4825,-0.829912 1.33172,-1.31242 0.84921,-0.482507 1.91073,-0.482507 1.06151,-0.0193 1.91072,0.463207 0.84922,0.463207 1.33172,1.31242 0.48251,0.829913 0.46321,1.872128 0,1.061517 -0.50181,1.891429 -0.4825,0.829913 -1.33172,1.31242 -0.82991,0.482507 -1.87212,0.482507 z m 0,-1.293119 q 0.63691,0 1.13871,-0.308805 0.52111,-0.328105 0.82992,-0.868513 0.3088,-0.559709 0.3088,-1.235219 0.0193,-0.65621 -0.2895,-1.158017 -0.28951,-0.521108 -0.81062,-0.810613 -0.5211,-0.289504 -1.17731,-0.289504 -0.98432,0 -1.64053,0.65621 -0.63691,0.636909 -0.65621,1.601924 -0.0193,1.022916 0.63691,1.717726 0.65621,0.694811 1.65983,0.694811 z m -11.25205,9.071137 q -1.42823,0 -2.45114,-0.907113 -1.02292,-0.907114 -1.56333,-2.58624 -0.5211,-1.698425 -0.5211,-4.072361 0,-2.335336 0.5211,-4.033762 0.54041,-1.698425 1.56333,-2.605539 1.02291,-0.907114 2.45114,-0.907114 1.46682,0 2.47043,0.926414 1.02292,0.907114 1.54403,2.60554 0.5404,1.698425 0.5404,4.014461 0,2.354635 -0.5404,4.053061 -0.52111,1.679126 -1.54403,2.60554 -1.00361,0.907113 -2.47043,0.907113 z m 0,-1.505422 q 1.04221,0 1.71772,-0.772012 0.67551,-0.791312 1.00362,-2.161633 0.3281,-1.370321 0.3281,-3.126647 0,-1.737027 -0.3474,-3.088047 -0.32811,-1.370321 -1.00362,-2.161633 -0.67551,-0.791312 -1.69842,-0.791312 -1.02292,0 -1.69843,0.791312 -0.65621,0.772012 -1.00362,2.142332 -0.3281,1.370321 -0.3281,3.107348 0,1.775627 0.3281,3.145947 0.34741,1.351021 1.00362,2.142333 0.67551,0.772012 1.69843,0.772012 z m -8.1833,1.505422 q -0.3088,0 -0.54041,-0.212303 -0.2123,-0.212303 -0.2123,-0.540408 V 79.02161 l -1.93003,0.67551 q -0.2123,0.0965 -0.386,0.0965 -0.32811,0 -0.54041,-0.212303 -0.2123,-0.212303 -0.2123,-0.521108 0,-0.231603 0.0965,-0.424606 0.1158,-0.193003 0.386,-0.289505 l 2.97225,-1.022915 q 0.0965,-0.0386 0.193,-0.0579 0.1158,-0.0386 0.193,-0.0386 0.32811,0 0.52111,0.231604 0.2123,0.212303 0.2123,0.521108 V 91.5668 q 0,0.328105 -0.2123,0.540408 -0.2123,0.212303 -0.54041,0.212303 z m -6.07956,0 q -0.2316,0 -0.386,-0.0772 -0.13511,-0.0772 -0.28951,-0.270204 l -3.33895,-4.246064 -0.57901,-0.501808 -3.35825,-4.265365 q -0.2123,-0.250903 -0.2123,-0.521108 0.0193,-0.270204 0.193,-0.463207 0.1737,-0.212303 0.50181,-0.212303 0.3281,0 0.55971,0.231604 l 3.24245,4.149563 0.5211,0.424606 3.58986,4.59347 q 0.2509,0.308805 0.2123,0.579009 -0.0386,0.270204 -0.2509,0.424606 -0.19301,0.154402 -0.40531,0.154401 z m -7.64292,0 q -0.3088,0 -0.5018,-0.193003 -0.17371,-0.193002 -0.19301,-0.463207 0,-0.270204 0.21231,-0.521107 l 3.55125,-4.439068 0.82991,1.100117 -3.37755,4.284665 q -0.1737,0.231603 -0.52111,0.231603 z m 4.51627,-5.018076 -0.94571,-0.965014 3.33895,-4.226765 q 0.1351,-0.193002 0.2895,-0.270204 0.17371,-0.0772 0.34741,-0.0772 0.3281,0 0.50181,0.212303 0.1737,0.193003 0.1544,0.482508 0,0.270204 -0.193,0.521108 z m -11.50295,5.018076 q -1.42823,0 -2.45114,-0.907113 -1.02292,-0.907114 -1.56333,-2.58624 -0.5211,-1.698425 -0.5211,-4.072361 0,-2.335336 0.5211,-4.033762 0.54041,-1.698425 1.56333,-2.605539 1.02291,-0.907114 2.45114,-0.907114 1.46682,0 2.47043,0.926414 1.02292,0.907114 1.54403,2.60554 0.5404,1.698425 0.5404,4.014461 0,2.354635 -0.5404,4.053061 -0.52111,1.679126 -1.54403,2.60554 -1.00361,0.907113 -2.47043,0.907113 z m 0,-1.505422 q 1.04221,0 1.71772,-0.772012 0.67551,-0.791312 1.00362,-2.161633 0.3281,-1.370321 0.3281,-3.126647 0,-1.737027 -0.3474,-3.088047 -0.32811,-1.370321 -1.00362,-2.161633 -0.67551,-0.791312 -1.69842,-0.791312 -1.02292,0 -1.69843,0.791312 -0.65621,0.772012 -1.00362,2.142332 -0.3281,1.370321 -0.3281,3.107348 0,1.775627 0.3281,3.145947 0.34741,1.351021 1.00362,2.142333 0.67551,0.772012 1.69843,0.772012 z m -11.21345,1.582624 q -1.29312,0 -2.31603,-0.598309 -1.02292,-0.61761 -1.62123,-1.659826 -0.579,-1.042216 -0.579,-2.354635 0,-1.27382 0.579,-2.277435 0.59831,-1.003615 1.62123,-1.582624 1.02291,-0.579009 2.31603,-0.579009 1.29312,0 2.31604,0.579009 1.02291,0.579009 1.60192,1.582624 0.57901,1.003615 0.57901,2.277435 -0.0193,1.312419 -0.61761,2.354635 -0.57901,1.042216 -1.60192,1.659826 -1.00362,0.598309 -2.27744,0.598309 z m 0,-1.351021 q 0.84922,0 1.52473,-0.424606 0.67551,-0.443907 1.06151,-1.177318 0.40531,-0.733411 0.40531,-1.659825 0,-0.887814 -0.38601,-1.582624 -0.386,-0.714111 -1.06151,-1.119417 -0.67551,-0.405307 -1.54403,-0.405307 -0.86851,0 -1.54402,0.405307 -0.67551,0.405306 -1.08082,1.119417 -0.386,0.69481 -0.386,1.582624 0,0.926414 0.386,1.659825 0.38601,0.733411 1.06152,1.177318 0.69481,0.424606 1.56332,0.424606 z m 0,-6.504199 q -1.06151,0 -1.91073,-0.482507 -0.84921,-0.482507 -1.33172,-1.31242 -0.4825,-0.829912 -0.4825,-1.891429 0,-1.022915 0.4825,-1.852828 0.48251,-0.829912 1.33172,-1.31242 0.84922,-0.482507 1.91073,-0.482507 1.06152,-0.0193 1.91073,0.463207 0.84922,0.463207 1.33172,1.31242 0.48251,0.829913 0.46321,1.872128 0,1.061517 -0.50181,1.891429 -0.48251,0.829913 -1.33172,1.31242 -0.82991,0.482507 -1.87213,0.482507 z m 0,-1.293119 q 0.63691,0 1.13872,-0.308805 0.52111,-0.328105 0.82991,-0.868513 0.30881,-0.559709 0.30881,-1.235219 0.0193,-0.65621 -0.28951,-1.158017 -0.2895,-0.521108 -0.81061,-0.810613 -0.52111,-0.289504 -1.17732,-0.289504 -0.98431,0 -1.64052,0.65621 -0.63691,0.636909 -0.65621,1.601924 -0.0193,1.022916 0.63691,1.717726 0.65621,0.694811 1.65982,0.694811 z m -11.25205,9.071137 q -1.42822,0 -2.45114,-0.907113 -1.02291,-0.907114 -1.56332,-2.58624 -0.52111,-1.698425 -0.52111,-4.072361 0,-2.335336 0.52111,-4.033762 0.54041,-1.698425 1.56332,-2.605539 1.02292,-0.907114 2.45114,-0.907114 1.46682,0 2.47044,0.926414 1.02291,0.907114 1.54402,2.60554 0.54041,1.698425 0.54041,4.014461 0,2.354635 -0.54041,4.053061 -0.52111,1.679126 -1.54402,2.60554 -1.00362,0.907113 -2.47044,0.907113 z m 0,-1.505422 q 1.04222,0 1.71773,-0.772012 0.67551,-0.791312 1.00361,-2.161633 0.32811,-1.370321 0.32811,-3.126647 0,-1.737027 -0.34741,-3.088047 -0.3281,-1.370321 -1.00361,-2.161633 -0.67551,-0.791312 -1.69843,-0.791312 -1.02292,0 -1.69843,0.791312 -0.65621,0.772012 -1.00361,2.142332 -0.32811,1.370321 -0.32811,3.107348 0,1.775627 0.32811,3.145947 0.3474,1.351021 1.00361,2.142333 0.67551,0.772012 1.69843,0.772012 z m -8.18329,1.505422 q -0.30881,0 -0.54041,-0.212303 -0.2123,-0.212303 -0.2123,-0.540408 V 79.02161 l -1.93003,0.67551 q -0.21231,0.0965 -0.38601,0.0965 -0.3281,0 -0.54041,-0.212303 -0.2123,-0.212303 -0.2123,-0.521108 0,-0.231603 0.0965,-0.424606 0.1158,-0.193003 0.38601,-0.289505 l 2.97224,-1.022915 q 0.0965,-0.0386 0.193,-0.0579 0.11581,-0.0386 0.19301,-0.0386 0.3281,0 0.52111,0.231604 0.2123,0.212303 0.2123,0.521108 V 91.5668 q 0,0.328105 -0.2123,0.540408 -0.21231,0.212303 -0.54041,0.212303 z"
           inkscape:connector-curvature="0" />
      </g>
    </g>
  </g>
</svg>
