<?xml version="1.0" encoding="UTF-8" standalone="no"?>
<!-- Created with Inkscape (http://www.inkscape.org/) -->

<svg
   xmlns:dc="http://purl.org/dc/elements/1.1/"
   xmlns:cc="http://creativecommons.org/ns#"
   xmlns:rdf="http://www.w3.org/1999/02/22-rdf-syntax-ns#"
   xmlns:svg="http://www.w3.org/2000/svg"
   xmlns="http://www.w3.org/2000/svg"
   xmlns:sodipodi="http://sodipodi.sourceforge.net/DTD/sodipodi-0.dtd"
   xmlns:inkscape="http://www.inkscape.org/namespaces/inkscape"
   version="1.1"
   id="svg869"
   width="2560"
   height="1440"
   viewBox="0 0 2560 1440"
   sodipodi:docname="youtube-channel-art-1440p.svg"
   inkscape:version="0.92.4 5da689c313, 2019-01-14">
  <metadata
     id="metadata875">
    <rdf:RDF>
      <cc:Work
         rdf:about="">
        <dc:format>image/svg+xml</dc:format>
        <dc:type
           rdf:resource="http://purl.org/dc/dcmitype/StillImage" />
        <dc:title></dc:title>
      </cc:Work>
    </rdf:RDF>
  </metadata>
  <defs
     id="defs873" />
  <sodipodi:namedview
     pagecolor="#ffffff"
     bordercolor="#666666"
     borderopacity="1"
     objecttolerance="10"
     gridtolerance="10"
     guidetolerance="10"
     inkscape:pageopacity="0"
     inkscape:pageshadow="2"
     inkscape:window-width="1366"
     inkscape:window-height="713"
     id="namedview871"
     showgrid="false"
     width="2580px"
     showguides="true"
     inkscape:guide-bbox="true"
     inkscape:zoom="0.28400295"
     inkscape:cx="497.41423"
     inkscape:cy="712.25517"
     inkscape:window-x="0"
     inkscape:window-y="0"
     inkscape:window-maximized="1"
     inkscape:current-layer="g1316"
     inkscape:pagecheckerboard="true">
    <sodipodi:guide
       position="507,931.5"
       orientation="1,0"
       id="guide885"
       inkscape:locked="false" />
    <sodipodi:guide
       position="352.5,931.5"
       orientation="1,0"
       id="guide887"
       inkscape:locked="false" />
    <sodipodi:guide
       position="0,1440"
       orientation="1,0"
       id="guide891"
       inkscape:locked="false" />
    <sodipodi:guide
       position="2560,1440"
       orientation="0,1"
       id="guide895"
       inkscape:locked="false" />
    <sodipodi:guide
       position="2550,0"
       orientation="0,1"
       id="guide897"
       inkscape:locked="false" />
    <sodipodi:guide
       position="352.5,931.5"
       orientation="0,1"
       id="guide899"
       inkscape:locked="false" />
    <sodipodi:guide
       position="347.5,508.5"
       orientation="0,1"
       id="guide901"
       inkscape:locked="false" />
    <sodipodi:guide
       position="2053,931.5"
       orientation="1,0"
       id="guide903"
       inkscape:locked="false" />
    <sodipodi:guide
       position="2207.5,931.5"
       orientation="1,0"
       id="guide905"
       inkscape:locked="false" />
    <sodipodi:guide
       position="2560,1440"
       orientation="1,0"
       id="guide909"
       inkscape:locked="false" />
  </sodipodi:namedview>
  <g
     id="g1342"
     inkscape:label="Camada 1">
    <g
       id="g1316">
      <rect
         style="fill:#666666;fill-opacity:1;stroke:none;stroke-width:35.94555664;stroke-miterlimit:4;stroke-dasharray:none;stroke-opacity:1"
         id="rect911"
         width="2560"
         height="1440"
         x="0"
         y="0" />
      <rect
         style="fill:#4a4a4a;fill-opacity:1;stroke:none;stroke-width:102.74362183;stroke-miterlimit:4;stroke-dasharray:none;stroke-opacity:1"
         id="rect883"
         width="2560"
         height="423"
         x="0"
         y="508.5" />
      <rect
         style="fill:#3f3f3f;fill-opacity:1;stroke:none;stroke-width:80.32073212;stroke-miterlimit:4;stroke-dasharray:none;stroke-opacity:1"
         id="rect881"
         width="1855"
         height="423"
         x="352.5"
         y="508.5" />
      <rect
         style="fill:#333333;fill-opacity:1;stroke:none;stroke-width:56.66815567;stroke-miterlimit:4;stroke-dasharray:none;stroke-opacity:1"
         id="rect879"
         width="1546"
         height="423"
         x="507"
         y="508.5" />
    </g>
    <g
       id="g1310"
       style="display:inline">
      <g
         id="g1290">
        <path
           id="path1005"
           style="font-style:normal;font-variant:normal;font-weight:normal;font-stretch:normal;font-size:45.25284195px;line-height:1.25;font-family:Comfortaa;-inkscape-font-specification:Comfortaa;letter-spacing:0px;word-spacing:0px;fill:#ffffff;fill-opacity:1;stroke:none;stroke-width:1.13132107"
           d="m 1583.8204,713.78528 q -1.0408,0 -1.4933,-0.85981 -0.4525,-0.8598 -0.091,-1.67435 l 13.3043,-31.58648 q 0.4978,-1.22183 1.7196,-1.22183 1.1766,0 1.6744,1.22183 l 13.3496,31.63173 q 0.4073,0.85981 -0.1358,1.67436 -0.4978,0.81455 -1.4481,0.81455 -0.543,0 -0.9955,-0.27152 -0.4073,-0.27152 -0.6788,-0.81455 l -12.4446,-30.18365 h 1.4029 l -12.5351,30.18365 q -0.2262,0.54303 -0.6788,0.81455 -0.4072,0.27152 -0.9503,0.27152 z m 2.9867,-8.41703 1.3576,-3.03194 h 18.3727 l 1.3576,3.03194 z m -30.5909,8.41703 q -0.7693,0 -1.267,-0.49778 -0.4978,-0.49778 -0.4978,-1.26708 v -31.81275 q 0,-0.7693 0.4978,-1.26708 0.4977,-0.49778 1.267,-0.49778 h 21.2236 q 0.7241,0 1.2218,0.49778 0.5431,0.45253 0.5431,1.22183 0,0.67879 -0.5431,1.17657 -0.4977,0.49778 -1.2218,0.49778 h -19.4587 v 12.48979 h 14.1641 q 0.7693,0 1.2671,0.49778 0.4978,0.49778 0.4978,1.22182 0,0.72405 -0.4978,1.22183 -0.4978,0.49778 -1.2671,0.49778 h -14.1641 v 12.62555 h 19.4587 q 0.7241,0 1.2218,0.49778 0.5431,0.49778 0.5431,1.17657 0,0.7693 -0.5431,1.26708 -0.4977,0.45253 -1.2218,0.45253 z m -27.9662,0 q -0.7693,0 -1.267,-0.49778 -0.4978,-0.49778 -0.4978,-1.26708 v -31.81275 q 0,-0.7693 0.4978,-1.26708 0.4977,-0.49778 1.267,-0.49778 h 8.4623 q 3.3035,0 5.8829,1.40284 2.5794,1.35758 4.0275,3.84649 1.4933,2.44365 1.4933,5.6566 0,3.0772 -1.4933,5.4756 -1.4481,2.3984 -4.0275,3.75598 -2.5794,1.35759 -5.8829,1.35759 h -6.6974 v 12.08251 q 0,0.7693 -0.4978,1.26708 -0.4978,0.49778 -1.2671,0.49778 z m 18.9157,0 q -0.5883,0 -0.9503,-0.22627 -0.3167,-0.22626 -0.5883,-0.67879 l -8.6885,-13.84737 3.5297,-0.90505 8.1003,12.94231 q 0.6788,1.08607 0.2262,1.90062 -0.4072,0.81455 -1.6291,0.81455 z m -17.1508,-17.24133 h 6.6974 q 2.3079,0 4.0728,-0.90506 1.8101,-0.95031 2.8509,-2.57941 1.0408,-1.62911 1.0408,-3.71074 0,-2.21739 -1.0408,-3.89174 -1.0408,-1.71961 -2.8509,-2.66992 -1.7649,-0.95031 -4.0728,-0.95031 h -6.6974 z m -37.2883,17.24133 q -1.0408,0 -1.4933,-0.85981 -0.4525,-0.8598 -0.091,-1.67435 l 13.3043,-31.58648 q 0.4978,-1.22183 1.7196,-1.22183 1.1766,0 1.6744,1.22183 l 13.3496,31.63173 q 0.4072,0.85981 -0.1358,1.67436 -0.4978,0.81455 -1.4481,0.81455 -0.543,0 -0.9955,-0.27152 -0.4073,-0.27152 -0.6788,-0.81455 l -12.4446,-30.18365 h 1.4029 l -12.5351,30.18365 q -0.2262,0.54303 -0.6788,0.81455 -0.4072,0.27152 -0.9503,0.27152 z m 2.9867,-8.41703 1.3576,-3.03194 h 18.3727 l 1.3575,3.03194 z m -43.8499,8.41703 q -0.7693,0 -1.2671,-0.49778 -0.4978,-0.49778 -0.4978,-1.26708 v -31.81275 q 0,-0.7693 0.4978,-1.26708 0.4978,-0.49778 1.2671,-0.49778 h 21.2235 q 0.7241,0 1.2219,0.49778 0.543,0.45253 0.543,1.22183 0,0.67879 -0.543,1.17657 -0.4978,0.49778 -1.2219,0.49778 h -19.4587 v 12.48979 h 14.1642 q 0.7693,0 1.267,0.49778 0.4978,0.49778 0.4978,1.22182 0,0.72405 -0.4978,1.22183 -0.4977,0.49778 -1.267,0.49778 h -14.1642 v 12.62555 h 19.4587 q 0.7241,0 1.2219,0.49778 0.543,0.49778 0.543,1.17657 0,0.7693 -0.543,1.26708 -0.4978,0.45253 -1.2219,0.45253 z m -31.0886,0 q -0.7241,0 -1.2671,-0.49778 -0.4978,-0.54304 -0.4978,-1.26708 v -31.81275 q 0,-0.7693 0.4978,-1.26708 0.4978,-0.49778 1.2671,-0.49778 h 21.2235 q 0.7693,0 1.2671,0.49778 0.4978,0.45253 0.4978,1.22183 0,0.67879 -0.4978,1.17657 -0.4978,0.49778 -1.2671,0.49778 h -19.4587 v 12.48979 h 14.1642 q 0.7693,0 1.267,0.49778 0.4978,0.49778 0.4978,1.22182 0,0.72405 -0.4978,1.22183 -0.4977,0.49778 -1.267,0.49778 h -14.1642 v 14.25465 q 0,0.72404 -0.4978,1.26708 -0.4977,0.49778 -1.267,0.49778 z m -32.7178,0 q -1.0408,0 -1.4934,-0.85981 -0.4525,-0.8598 -0.091,-1.67435 l 13.3044,-31.58648 q 0.4977,-1.22183 1.7196,-1.22183 1.1765,0 1.6743,1.22183 l 13.3496,31.63173 q 0.4073,0.85981 -0.1357,1.67436 -0.4978,0.81455 -1.4481,0.81455 -0.5431,0 -0.9956,-0.27152 -0.4073,-0.27152 -0.6788,-0.81455 l -12.4445,-30.18365 h 1.4028 l -12.535,30.18365 q -0.2263,0.54303 -0.6788,0.81455 -0.4073,0.27152 -0.9503,0.27152 z m 2.9867,-8.41703 1.3576,-3.03194 h 18.3726 l 1.3576,3.03194 z m -20.1375,8.86956 q -2.8962,0 -5.3851,-0.81455 -2.4436,-0.85981 -4.2537,-2.39841 -1.8101,-1.53859 -2.7604,-3.57497 -0.3621,-0.72405 -0.045,-1.31233 0.362,-0.63354 1.1766,-0.85981 0.6335,-0.18101 1.2218,0.13576 0.6335,0.31677 0.9503,0.95031 0.6788,1.31233 1.9911,2.35315 1.3124,1.04082 3.1225,1.6291 1.8101,0.54304 3.9822,0.54304 2.3984,0 4.2538,-0.7693 1.8554,-0.81455 2.8962,-2.3079 1.086,-1.53859 1.086,-3.71073 0,-2.76042 -2.0363,-4.75155 -2.0364,-1.99112 -6.3807,-2.53416 -5.2946,-0.63354 -8.2813,-3.2582 -2.9866,-2.66992 -2.9866,-6.51641 0,-2.76042 1.4481,-4.7968 1.4933,-2.03638 4.0727,-3.12245 2.5794,-1.13132 5.9281,-1.13132 2.4889,0 4.5253,0.81455 2.0364,0.7693 3.5297,2.08163 1.5386,1.26708 2.4889,2.80568 0.4526,0.72404 0.2716,1.40284 -0.1358,0.67879 -0.7693,1.04081 -0.6788,0.31677 -1.4029,0.0905 -0.6788,-0.22627 -1.0408,-0.85981 -0.6788,-1.04081 -1.7196,-1.94587 -0.9956,-0.95031 -2.4437,-1.49334 -1.448,-0.54304 -3.4844,-0.58829 -3.575,0 -5.7471,1.5386 -2.1722,1.49334 -2.1722,4.38952 0,1.5386 0.8146,2.85093 0.8145,1.26708 2.6699,2.21739 1.9006,0.90506 5.0683,1.35759 5.6566,0.81455 8.3718,3.48447 2.7604,2.62466 2.7604,6.87843 0,2.44365 -0.905,4.34427 -0.8598,1.90062 -2.4889,3.21295 -1.5839,1.26708 -3.756,1.94587 -2.1269,0.6788 -4.5706,0.6788 z m -49.4613,0 q -3.937,0 -7.2405,-1.35759 -3.3034,-1.35758 -5.7471,-3.80124 -2.3984,-2.44365 -3.7559,-5.74711 -1.3124,-3.30346 -1.3124,-7.24045 0,-3.89175 1.3124,-7.1952 1.3575,-3.30346 3.7559,-5.74712 2.4437,-2.44365 5.7471,-3.80123 3.3035,-1.35759 7.2405,-1.35759 3.8917,0 7.1952,1.35759 3.3035,1.35758 5.7471,3.80123 2.4437,2.44366 3.756,5.74712 1.3576,3.30345 1.3576,7.1952 0,3.93699 -1.3576,7.24045 -1.3123,3.30346 -3.756,5.74711 -2.4436,2.44366 -5.7471,3.80124 -3.3035,1.35759 -7.1952,1.35759 z m 0,-3.34871 q 3.1224,0 5.7924,-1.08607 2.6699,-1.13132 4.6158,-3.12245 1.9911,-2.03638 3.0772,-4.70629 1.086,-2.71517 1.086,-5.88287 0,-3.12245 -1.086,-5.79237 -1.0861,-2.71517 -3.0772,-4.70629 -1.9459,-2.03638 -4.6158,-3.12245 -2.67,-1.13132 -5.7924,-1.13132 -3.1677,0 -5.8376,1.13132 -2.6699,1.08607 -4.6611,3.12245 -1.9458,1.99112 -3.0319,4.70629 -1.0861,2.66992 -1.0861,5.79237 0,3.1677 1.0861,5.88287 1.0861,2.66991 3.0319,4.70629 1.9912,1.99113 4.6611,3.12245 2.6699,1.08607 5.8376,1.08607 z m -35.3424,3.34871 q -3.6655,0 -6.8785,-1.40284 -3.1677,-1.40284 -5.6113,-3.89175 -2.3984,-2.53415 -3.756,-5.79236 -1.3576,-3.30346 -1.3576,-7.05944 0,-3.71074 1.3123,-6.96894 1.3576,-3.30346 3.756,-5.79236 2.4437,-2.48891 5.6114,-3.89175 3.2129,-1.44809 6.9237,-1.44809 3.2582,0 5.9281,0.95031 2.6699,0.95031 5.1588,3.03194 0.4073,0.31677 0.4525,0.7693 0.091,0.40727 -0.091,0.81455 -0.181,0.36202 -0.543,0.54303 -0.091,0.36203 -0.4525,0.54304 -0.3621,0.18101 -0.8598,0.13576 -0.4526,-0.0453 -0.9051,-0.40728 -1.7649,-1.5386 -3.8465,-2.26264 -2.0816,-0.7693 -4.842,-0.7693 -2.9415,0 -5.5209,1.17657 -2.5342,1.17658 -4.48,3.21296 -1.9459,2.03637 -3.0772,4.70629 -1.0861,2.66992 -1.0861,5.65661 0,3.07719 1.0861,5.74711 1.1313,2.66992 3.0772,4.70629 1.9458,2.03638 4.48,3.21296 2.5794,1.13132 5.5209,1.13132 2.4889,0 4.7062,-0.81455 2.2174,-0.81456 4.2086,-2.35315 0.543,-0.45253 1.1313,-0.36203 0.6335,0.0905 1.0861,0.54304 0.4525,0.45253 0.4525,1.17657 0,0.36203 -0.091,0.6788 -0.091,0.27151 -0.4073,0.58828 -2.3079,2.12689 -5.1588,3.03194 -2.851,0.85981 -5.9281,0.85981 z m 11.5847,-5.15883 -3.4392,-0.72404 v -9.09582 h -7.0595 q -0.7693,0 -1.2671,-0.45253 -0.4977,-0.45253 -0.4977,-1.13132 0,-0.6788 0.4977,-1.08607 0.4978,-0.45253 1.2671,-0.45253 h 8.7338 q 0.7693,0 1.2671,0.49778 0.4978,0.45253 0.4978,1.22183 z m -51.905,5.15883 q -3.937,0 -7.2404,-1.35759 -3.3035,-1.35758 -5.7472,-3.80124 -2.3984,-2.44365 -3.7559,-5.74711 -1.3124,-3.30346 -1.3124,-7.24045 0,-3.89175 1.3124,-7.1952 1.3575,-3.30346 3.7559,-5.74712 2.4437,-2.44365 5.7472,-3.80123 3.3034,-1.35759 7.2404,-1.35759 3.8918,0 7.1952,1.35759 3.3035,1.35758 5.7471,3.80123 2.4437,2.44366 3.756,5.74712 1.3576,3.30345 1.3576,7.1952 0,3.93699 -1.3576,7.24045 -1.3123,3.30346 -3.756,5.74711 -2.4436,2.44366 -5.7471,3.80124 -3.3034,1.35759 -7.1952,1.35759 z m 0,-3.34871 q 3.1225,0 5.7924,-1.08607 2.6699,-1.13132 4.6158,-3.12245 1.9911,-2.03638 3.0772,-4.70629 1.086,-2.71517 1.086,-5.88287 0,-3.12245 -1.086,-5.79237 -1.0861,-2.71517 -3.0772,-4.70629 -1.9459,-2.03638 -4.6158,-3.12245 -2.6699,-1.13132 -5.7924,-1.13132 -3.1677,0 -5.8376,1.13132 -2.6699,1.08607 -4.661,3.12245 -1.9459,1.99112 -3.032,4.70629 -1.0861,2.66992 -1.0861,5.79237 0,3.1677 1.0861,5.88287 1.0861,2.66991 3.032,4.70629 1.9911,1.99113 4.661,3.12245 2.6699,1.08607 5.8376,1.08607 z m -40.0487,2.89618 q -0.724,0 -1.267,-0.49778 -0.4978,-0.49778 -0.4978,-1.26708 v -31.81275 q 0,-0.72405 0.4978,-1.22183 0.543,-0.54303 1.267,-0.54303 0.7241,0 1.2219,0.54303 0.543,0.49778 0.543,1.22183 v 30.2289 h 17.6939 q 0.724,0 1.2218,0.49778 0.543,0.45253 0.543,1.17657 0,0.72405 -0.543,1.22183 -0.4978,0.45253 -1.2218,0.45253 z m -48.1036,0 q -0.7693,0 -1.2671,-0.49778 -0.4978,-0.49778 -0.4978,-1.26708 v -31.81275 q 0,-0.7693 0.4978,-1.26708 0.4978,-0.49778 1.2671,-0.49778 h 8.1455 q 3.8917,0 7.1047,1.31233 3.2582,1.26708 5.6113,3.66548 2.3532,2.35315 3.6203,5.5661 1.3123,3.21295 1.3123,7.1047 0,3.89174 -1.3123,7.14995 -1.2671,3.21295 -3.6203,5.61135 -2.3531,2.35315 -5.6113,3.66548 -3.213,1.26708 -7.1047,1.26708 z m 1.7648,-3.1677 h 6.3807 q 4.1632,0 7.3309,-1.85537 3.213,-1.90062 5.0231,-5.15882 1.8101,-3.30346 1.8101,-7.51197 0,-4.20852 -1.8101,-7.46672 -1.8101,-3.30346 -5.0231,-5.15883 -3.1677,-1.85536 -7.3309,-1.85536 h -6.3807 z m -39.0984,3.1677 q -0.7693,0 -1.2671,-0.49778 -0.4977,-0.49778 -0.4977,-1.26708 v -31.81275 q 0,-0.7693 0.4977,-1.26708 0.4978,-0.49778 1.2671,-0.49778 0.8146,0 1.3576,0.63354 l 21.6309,28.41878 v -27.28746 q 0,-0.7693 0.4977,-1.26708 0.4978,-0.49778 1.2671,-0.49778 0.7241,0 1.2219,0.49778 0.543,0.49778 0.543,1.26708 v 31.81275 q 0,0.7693 -0.543,1.26708 -0.4978,0.49778 -1.2219,0.49778 -0.362,0 -0.724,-0.13576 -0.362,-0.13576 -0.5883,-0.45253 l -21.6761,-28.41878 v 27.24221 q 0,0.7693 -0.543,1.26708 -0.4978,0.49778 -1.2219,0.49778 z m -35.5234,0 q -1.0408,0 -1.4934,-0.85981 -0.4525,-0.8598 -0.091,-1.67435 l 13.3044,-31.58648 q 0.4978,-1.22183 1.7196,-1.22183 1.1766,0 1.6743,1.22183 l 13.3496,31.63173 q 0.4073,0.85981 -0.1357,1.67436 -0.4978,0.81455 -1.4481,0.81455 -0.5431,0 -0.9956,-0.27152 -0.4073,-0.27152 -0.6788,-0.81455 l -12.4445,-30.18365 h 1.4028 l -12.535,30.18365 q -0.2263,0.54303 -0.6788,0.81455 -0.4073,0.27152 -0.9503,0.27152 z m 2.9867,-8.41703 1.3576,-3.03194 h 18.3726 l 1.3576,3.03194 z m -33.6681,8.41703 q -0.724,0 -1.267,-0.49778 -0.4978,-0.54304 -0.4978,-1.26708 v -33.57761 h 3.5297 v 33.57761 q 0,0.72404 -0.4978,1.26708 -0.4978,0.49778 -1.2671,0.49778 z m -12.4897,-32.12952 q -0.7241,0 -1.1766,-0.45253 -0.4525,-0.45253 -0.4525,-1.13132 0,-0.72404 0.4525,-1.17657 0.4525,-0.45253 1.1766,-0.45253 h 25.0248 q 0.724,0 1.1766,0.45253 0.4525,0.45253 0.4525,1.17657 0,0.67879 -0.4525,1.13132 -0.4526,0.45253 -1.1766,0.45253 z m -30.5004,32.12952 q -0.7693,0 -1.2218,-0.45253 -0.4073,-0.45253 -0.4526,-1.13132 -0.045,-0.67879 0.4073,-1.26708 l 11.811,-16.11001 1.6291,-1.31233 10.5892,-14.43566 q 0.4978,-0.63354 1.3576,-0.63354 0.724,0 1.1313,0.49778 0.4525,0.45253 0.4978,1.13132 0.045,0.63354 -0.3168,1.13132 l -11.1322,15.11445 -1.5386,1.26708 -11.4942,15.65748 q -0.4978,0.54304 -1.2671,0.54304 z m 24.4818,0 q -0.362,0 -0.7241,-0.13576 -0.362,-0.18101 -0.6335,-0.49778 l -11.268,-15.61223 -1.4028,-1.04082 -10.9964,-15.29546 q -0.4073,-0.54303 -0.3621,-1.17657 0.045,-0.67879 0.4526,-1.13132 0.4525,-0.45253 1.1765,-0.45253 0.8599,0 1.3576,0.63354 l 10.6345,14.70717 1.267,0.85981 11.7658,16.29102 q 0.4072,0.54303 0.362,1.22183 0,0.67879 -0.4525,1.17657 -0.4073,0.45253 -1.1766,0.45253 z m -53.30783,0 q -0.7693,0 -1.26708,-0.49778 -0.49778,-0.49778 -0.49778,-1.26708 v -31.81275 q 0,-0.7693 0.49778,-1.26708 0.49778,-0.49778 1.26708,-0.49778 h 21.22353 q 0.7241,0 1.2219,0.49778 0.543,0.45253 0.543,1.22183 0,0.67879 -0.543,1.17657 -0.4978,0.49778 -1.2219,0.49778 h -19.45867 v 12.48979 h 14.16414 q 0.7693,0 1.26708,0.49778 0.49778,0.49778 0.49778,1.22182 0,0.72405 -0.49778,1.22183 -0.49778,0.49778 -1.26708,0.49778 h -14.16414 v 12.62555 h 19.45867 q 0.7241,0 1.2219,0.49778 0.543,0.49778 0.543,1.17657 0,0.7693 -0.543,1.26708 -0.4978,0.45253 -1.2219,0.45253 z m -21.13303,0 q -0.72404,0 -1.26707,-0.49778 -0.49779,-0.54304 -0.49779,-1.26708 v -33.57761 h 3.52973 v 33.57761 q 0,0.72404 -0.49779,1.26708 -0.49778,0.49778 -1.26708,0.49778 z m -12.48978,-32.12952 q -0.72405,0 -1.17657,-0.45253 -0.45253,-0.45253 -0.45253,-1.13132 0,-0.72404 0.45253,-1.17657 0.45252,-0.45253 1.17657,-0.45253 h 25.02482 q 0.72405,0 1.17658,0.45253 0.45252,0.45253 0.45252,1.17657 0,0.67879 -0.45252,1.13132 -0.45253,0.45253 -1.17658,0.45253 z"
           inkscape:connector-curvature="0" />
        <path
           id="path1022"
           style="font-style:normal;font-variant:normal;font-weight:normal;font-stretch:normal;font-size:37.29216003px;line-height:1.25;font-family:Comfortaa;-inkscape-font-specification:Comfortaa;letter-spacing:0px;word-spacing:0px;fill:#ffffff;fill-opacity:1;stroke:none;stroke-width:0.93230402"
           d="m 1354.824,776.01202 q -2.6104,0 -4.6988,-1.11876 -2.051,-1.15606 -3.2444,-3.13254 -1.1933,-1.97649 -1.1933,-4.47506 0,-0.63397 0.3729,-1.08148 0.3729,-0.4475 1.0069,-0.4475 0.6339,0 1.0069,0.4475 0.3729,0.44751 0.3729,1.08148 0,1.71544 0.8204,3.09525 0.8204,1.34251 2.2375,2.16294 1.4544,0.78314 3.2072,0.78314 2.9088,0 4.5496,-1.60357 1.6409,-1.64085 1.6409,-4.21401 0,-1.82732 -0.7832,-3.16983 -0.7831,-1.37981 -2.1256,-2.12566 -1.3425,-0.78313 -3.0207,-0.78313 -0.5967,0 -1.0069,-0.41022 -0.4102,-0.41021 -0.4102,-1.04418 0,-0.59667 0.4102,-1.00688 0.4102,-0.41022 1.0069,-0.41022 1.3052,0 2.3867,-0.63397 1.1188,-0.67125 1.79,-1.75273 0.6713,-1.08147 0.6713,-2.3867 0,-1.97648 -1.3425,-3.28171 -1.3425,-1.34251 -3.5801,-1.34251 -1.5662,0 -2.7969,0.63396 -1.2306,0.59668 -1.9392,1.64086 -0.6712,1.00689 -0.6712,2.31211 0,0.63397 -0.4102,1.08148 -0.373,0.41021 -0.9696,0.41021 -0.634,0 -1.0069,-0.41021 -0.373,-0.44751 -0.373,-1.04419 0,-2.05106 1.0442,-3.69192 1.0815,-1.67815 2.9088,-2.61045 1.8273,-0.9696 4.214,-0.9696 2.163,0 3.8784,0.9696 1.7527,0.9323 2.7596,2.61045 1.0442,1.64086 1.0442,3.69192 0,1.26794 -0.634,2.46129 -0.5966,1.19335 -1.6035,2.16294 -1.0069,0.93231 -2.2003,1.4544 1.9019,0.55938 3.1699,1.71544 1.2679,1.15605 1.8646,2.72232 0.5967,1.52898 0.5967,3.20713 0,2.46128 -1.1934,4.40047 -1.156,1.9019 -3.2071,3.02067 -2.0511,1.08147 -4.5497,1.08147 z m -28.7522,-0.18646 q -0.5967,0 -1.0442,-0.41021 -0.4102,-0.41022 -0.4102,-1.04418 0,-0.55939 0.4102,-1.00689 l 11.2996,-13.35059 q 0.9323,-1.00689 1.4916,-2.23753 0.5594,-1.26794 0.5594,-2.34941 0,-1.75273 -0.7085,-3.09525 -0.6713,-1.34252 -1.9392,-2.08836 -1.2307,-0.78314 -2.8342,-0.78314 -1.5663,0 -2.8715,0.82043 -1.2679,0.78314 -2.0138,2.12566 -0.7085,1.34251 -0.7085,3.02066 0,0.59667 -0.4103,1.00689 -0.4102,0.41021 -1.0441,0.41021 -0.5967,0 -1.0442,-0.41021 -0.4102,-0.41022 -0.4102,-1.00689 0,-2.49857 1.1187,-4.47506 1.1188,-1.97648 3.0207,-3.13254 1.9392,-1.15606 4.3632,-1.15606 2.424,0 4.2886,1.11877 1.9019,1.11876 2.9461,3.09525 1.0814,1.97648 1.0814,4.54964 0,1.23064 -0.4102,2.34941 -0.3729,1.11876 -1.0442,2.16294 -0.6712,1.00689 -1.4544,1.9019 l -9.5467,11.07577 h 11.6724 q 0.5967,0 1.0069,0.44751 0.4475,0.4475 0.4475,1.00689 0,0.63396 -0.4475,1.04418 -0.4102,0.41021 -1.0069,0.41021 z m -11.5232,0 q -0.5594,0 -0.9696,-0.41021 -0.4102,-0.41022 -0.4102,-1.04418 v -5.51924 h -13.3506 q -0.5967,0 -1.0069,-0.37292 -0.3729,-0.41022 -0.4475,-0.93231 -0.037,-0.52209 0.2983,-0.96959 l 14.7677,-19.31734 q 0.1865,-0.26105 0.4475,-0.41022 0.2983,-0.18646 0.7459,-0.18646 0.5966,0 0.9696,0.44751 0.4102,0.41021 0.4102,1.04418 v 18.0867 h 2.946 q 0.5967,0 1.0069,0.29833 0.4102,0.29834 0.4102,1.04418 0,0.4848 -0.4102,0.89502 -0.4102,0.37292 -1.0069,0.37292 h -2.946 v 5.51924 q 0,0.63396 -0.4102,1.04418 -0.4103,0.41021 -1.0442,0.41021 z m -13.1642,-8.46532 -0.5221,-1.11876 h 12.3065 v -15.99834 l 0.7458,0.78314 z m -19.0314,8.46532 q -0.4226,0 -0.6712,-0.24861 -0.2238,-0.24862 -0.2486,-0.62154 -0.025,-0.37292 0.2237,-0.69612 l 6.4888,-8.85067 0.8951,-0.72098 5.8175,-7.9308 q 0.2735,-0.34806 0.7459,-0.34806 0.3978,0 0.6215,0.27347 0.2486,0.24862 0.2735,0.62154 0.025,0.34806 -0.174,0.62153 l -6.116,8.30373 -0.8452,0.69612 -6.3148,8.60205 q -0.2735,0.29834 -0.6962,0.29834 z m 13.4501,0 q -0.1989,0 -0.3978,-0.0746 -0.1989,-0.0995 -0.3481,-0.27348 l -6.1905,-8.5772 -0.7707,-0.57181 -6.0413,-8.40317 q -0.2238,-0.29833 -0.1989,-0.64639 0.025,-0.37292 0.2486,-0.62154 0.2486,-0.24861 0.6464,-0.24861 0.4724,0 0.7459,0.34806 l 5.8424,8.07996 0.6961,0.47237 6.464,8.95012 q 0.2237,0.29834 0.1989,0.67126 0,0.37292 -0.2486,0.6464 -0.2238,0.24861 -0.6464,0.24861 z m -25.9429,0 q -2.5359,0 -4.5123,-1.11876 -1.9765,-1.15606 -3.1326,-3.13254 -1.1187,-1.97649 -1.1187,-4.51236 0,-2.49857 1.1187,-4.47506 1.1561,-2.01377 3.1326,-3.13254 1.9764,-1.15605 4.5123,-1.15605 2.4986,0 4.4751,1.15605 1.9765,1.11877 3.0952,3.13254 1.1561,1.97649 1.1561,4.47506 0,2.53587 -1.1561,4.51236 -1.1187,1.97648 -3.0952,3.13254 -1.9765,1.11876 -4.4751,1.11876 z m -0.037,-2.68503 q 1.7155,0 3.058,-0.78314 1.3798,-0.78313 2.1629,-2.16294 0.7832,-1.37981 0.7832,-3.13255 0,-1.75273 -0.7832,-3.13254 -0.7831,-1.37981 -2.1629,-2.16294 -1.3425,-0.82043 -3.058,-0.82043 -1.7154,0 -3.0579,0.82043 -1.3426,0.78313 -2.1257,2.16294 -0.7831,1.37981 -0.7831,3.13254 0,1.75274 0.7831,3.13255 0.7831,1.37981 2.1257,2.16294 1.3425,0.78314 3.0579,0.78314 z m -7.6449,-10.51639 9.2112,-15.14062 q 0.4848,-0.78314 1.3052,-0.78314 0.5594,0 0.9696,0.33563 0.4102,0.33563 0.4848,0.85772 0.1119,0.52209 -0.1865,1.00689 l -6.1532,10.03159 z m -10.9269,13.20142 q -0.5593,0 -0.9695,-0.41021 -0.4103,-0.41022 -0.4103,-1.04418 v -5.51924 h -13.3506 q -0.5966,0 -1.0068,-0.37292 -0.373,-0.41022 -0.4476,-0.93231 -0.037,-0.52209 0.2984,-0.96959 l 14.7677,-19.31734 q 0.1864,-0.26105 0.4475,-0.41022 0.2983,-0.18646 0.7458,-0.18646 0.5967,0 0.9696,0.44751 0.4102,0.41021 0.4102,1.04418 v 18.0867 h 2.9461 q 0.5967,0 1.0069,0.29833 0.4102,0.29834 0.4102,1.04418 0,0.4848 -0.4102,0.89502 -0.4102,0.37292 -1.0069,0.37292 h -2.9461 v 5.51924 q 0,0.63396 -0.4102,1.04418 -0.4102,0.41021 -1.0442,0.41021 z m -13.1641,-8.46532 -0.5221,-1.11876 h 12.3064 v -15.99834 l 0.7459,0.78314 z m -15.066,8.46532 q -2.685,0 -4.8107,-1.23064 -2.1256,-1.26793 -3.3936,-3.39359 -1.2306,-2.16294 -1.2306,-4.84798 0,-0.63396 0.4102,-1.04418 0.4102,-0.41021 1.0069,-0.41021 0.634,0 1.0442,0.41021 0.4475,0.41022 0.4475,1.04418 0,1.86461 0.8577,3.3563 0.8577,1.49168 2.3121,2.3494 1.4917,0.85772 3.3563,0.85772 1.8646,0 3.3563,-0.85772 1.4917,-0.85772 2.3494,-2.3494 0.8577,-1.49169 0.8577,-3.3563 0,-1.86461 -0.8577,-3.35629 -0.8577,-1.49169 -2.3494,-2.34941 -1.4917,-0.85772 -3.3563,-0.85772 h -6.5261 q -0.634,0 -1.0442,-0.41021 -0.4102,-0.44751 -0.4102,-1.04418 v -10.21805 q 0,-0.59668 0.4102,-1.00689 0.4102,-0.44751 1.0442,-0.44751 h 13.0895 q 0.5967,0 1.0069,0.44751 0.4475,0.41021 0.4475,1.00689 0,0.59667 -0.4102,1.04418 -0.4102,0.41021 -1.0442,0.41021 h -11.6724 v 7.30926 h 5.109 q 2.7224,0 4.848,1.26794 2.1257,1.23064 3.3563,3.39358 1.2679,2.12566 1.2679,4.81069 0,2.68504 -1.2679,4.84798 -1.2306,2.12566 -3.3563,3.39359 -2.1256,1.23064 -4.848,1.23064 z m -17.0424,0 q -0.5967,0 -1.0442,-0.41021 -0.4102,-0.41022 -0.4102,-1.04418 v -24.23991 l -3.7292,1.30523 q -0.4103,0.18646 -0.7459,0.18646 -0.634,0 -1.0442,-0.41021 -0.4102,-0.41022 -0.4102,-1.00689 0,-0.44751 0.1865,-0.82043 0.2237,-0.37292 0.7458,-0.55938 l 5.743,-1.97649 q 0.1865,-0.0746 0.3729,-0.11187 0.2238,-0.0746 0.373,-0.0746 0.6339,0 1.0068,0.44751 0.4103,0.41021 0.4103,1.00689 v 26.25368 q 0,0.63396 -0.4103,1.04418 -0.4102,0.41021 -1.0441,0.41021 z"
           inkscape:connector-curvature="0" />
      </g>
      <g
         id="g1286">
        <path
           id="path1150"
           style="font-style:normal;font-variant:normal;font-weight:normal;font-stretch:normal;font-size:35.39225006px;line-height:1.25;font-family:Comfortaa;-inkscape-font-specification:Comfortaa;letter-spacing:0px;word-spacing:0px;fill:#ffffff;fill-opacity:1;stroke:none;stroke-width:0.88480628"
           d="m 251.56043,456.87473 q -0.42471,0 -0.70785,-0.14157 -0.24774,-0.14157 -0.53088,-0.4955 l -6.12286,-7.78629 -1.06177,-0.9202 -6.15825,-7.82169 q -0.38931,-0.4601 -0.38931,-0.95559 0.0354,-0.49549 0.35392,-0.84941 0.31853,-0.38932 0.9202,-0.38932 0.60167,0 1.02637,0.42471 l 5.9459,7.60934 0.95559,0.77862 6.58296,8.42336 q 0.4601,0.56628 0.38932,1.06177 -0.0708,0.49549 -0.4601,0.77863 -0.35393,0.28314 -0.74324,0.28314 z m -14.01533,0 q -0.56628,0 -0.9202,-0.35393 -0.31853,-0.35392 -0.35392,-0.84941 0,-0.49549 0.38931,-0.95559 l 6.51218,-8.14022 1.52186,2.01736 -6.19364,7.85708 q -0.31853,0.42471 -0.95559,0.42471 z m 8.28178,-9.20199 -1.73422,-1.76961 6.12286,-7.7509 q 0.24775,-0.35393 0.53089,-0.4955 0.31853,-0.14157 0.63706,-0.14157 0.60167,0 0.9202,0.38932 0.31853,0.35392 0.28313,0.88481 0,0.49549 -0.35392,0.95559 z m -23.21724,9.37895 q -2.7252,0 -4.88413,-1.27412 -2.15893,-1.30952 -3.43305,-3.53923 -1.23873,-2.22971 -1.23873,-5.0257 0,-2.83138 1.27413,-5.06109 1.30951,-2.22971 3.53922,-3.50383 2.22971,-1.30952 5.0257,-1.30952 2.79599,0 4.99031,1.30952 2.22971,1.27412 3.50383,3.50383 1.30951,2.22971 1.34491,5.06109 l -1.09716,0.84942 q 0,2.54824 -1.20334,4.60099 -1.16795,2.01736 -3.2207,3.22069 -2.01735,1.16795 -4.60099,1.16795 z m 0.28314,-2.47746 q 2.05275,0 3.6454,-0.95559 1.62804,-0.95559 2.54824,-2.61903 0.95559,-1.69883 0.95559,-3.78697 0,-2.12353 -0.95559,-3.78697 -0.9202,-1.66344 -2.54824,-2.61903 -1.59265,-0.99098 -3.6454,-0.99098 -2.01736,0 -3.6454,0.99098 -1.62805,0.95559 -2.58364,2.61903 -0.95559,1.66344 -0.95559,3.78697 0,2.08814 0.95559,3.78697 0.95559,1.66344 2.58364,2.61903 1.62804,0.95559 3.6454,0.95559 z m 8.45875,2.3005 q -0.60167,0 -0.99099,-0.35393 -0.38931,-0.38931 -0.38931,-0.99098 v -6.05207 l 0.67245,-2.79599 2.08815,0.53088 v 8.31718 q 0,0.60167 -0.38932,0.99098 -0.38931,0.35393 -0.99098,0.35393 z m -50.25697,0 q -0.56628,0 -0.99099,-0.38932 -0.38931,-0.42471 -0.38931,-0.99098 v -24.88075 q 0,-0.60167 0.38931,-0.99099 0.42471,-0.38931 0.99099,-0.38931 0.84941,0 1.23873,0.70784 l 11.92718,23.71281 h -1.20333 l 11.71483,-23.71281 q 0.42471,-0.70784 1.23873,-0.70784 0.56628,0 0.95559,0.38931 0.38932,0.38932 0.38932,0.99099 v 24.88075 q 0,0.56627 -0.38932,0.99098 -0.38931,0.38932 -0.95559,0.38932 -0.60167,0 -1.02637,-0.38932 -0.38932,-0.42471 -0.38932,-0.99098 v -21.30614 l 0.60167,0.0354 -10.44071,21.34152 q -0.38932,0.67245 -1.20334,0.67245 -0.88481,0 -1.27412,-0.84941 l -10.5115,-21.023 0.70785,-0.17696 v 21.30614 q 0,0.56627 -0.42471,0.99098 -0.38932,0.38932 -0.95559,0.38932 z m -35.74611,8.28178 q -0.63706,0 -1.02637,-0.38931 -0.35392,-0.35393 -0.35392,-0.99099 v -16.70514 q 0.0354,-2.76059 1.30951,-4.95491 1.30951,-2.22971 3.50383,-3.50384 2.22971,-1.27412 4.99031,-1.27412 2.83138,0 5.06109,1.30952 2.22971,1.27412 3.50383,3.50383 1.30952,2.22971 1.30952,5.06109 0,2.79599 -1.27412,5.0257 -1.23873,2.22971 -3.39766,3.53923 -2.15893,1.27412 -4.88413,1.27412 -2.37128,0 -4.31786,-0.99099 -1.91118,-1.02637 -3.07912,-2.68981 v 10.40532 q 0,0.63706 -0.38932,0.99099 -0.35392,0.38931 -0.95559,0.38931 z m 8.42336,-10.58228 q 2.05275,0 3.68079,-0.95559 1.62805,-0.95559 2.54824,-2.61903 0.9556,-1.69883 0.9556,-3.78697 0,-2.12353 -0.9556,-3.78697 -0.92019,-1.66344 -2.54824,-2.61903 -1.62804,-0.99098 -3.68079,-0.99098 -2.01736,0 -3.6454,0.99098 -1.62805,0.95559 -2.54824,2.61903 -0.9202,1.66344 -0.9202,3.78697 0,2.08814 0.9202,3.78697 0.92019,1.66344 2.54824,2.61903 1.62804,0.95559 3.6454,0.95559 z m -24.95146,2.47746 q -2.83138,0 -5.0611,-1.27412 -2.22971,-1.27413 -3.50383,-3.50384 -1.27412,-2.22971 -1.27412,-5.06109 0,-2.86677 1.27412,-5.09648 1.27412,-2.22971 3.50383,-3.50384 2.22972,-1.27412 5.0611,-1.27412 2.83138,0 5.0257,1.27412 2.22971,1.27413 3.50383,3.50384 1.27412,2.22971 1.30951,5.09648 0,2.83138 -1.30951,5.06109 -1.27412,2.22971 -3.50383,3.50384 -2.19432,1.27412 -5.0257,1.27412 z m 0,-2.47746 q 2.05275,0 3.68079,-0.95559 1.62804,-0.95559 2.54824,-2.61903 0.9202,-1.66343 0.9202,-3.78697 0,-2.12353 -0.9202,-3.78697 -0.9202,-1.69883 -2.54824,-2.65442 -1.62804,-0.95559 -3.68079,-0.95559 -2.05275,0 -3.6808,0.95559 -1.62804,0.95559 -2.58363,2.65442 -0.9202,1.66344 -0.9202,3.78697 0,2.12354 0.9202,3.78697 0.95559,1.66344 2.58363,2.61903 1.62805,0.95559 3.6808,0.95559 z m -15.46637,2.3005 q -1.87579,0 -3.36226,-0.88481 -1.45109,-0.88481 -2.3005,-2.40667 -0.84941,-1.55726 -0.84941,-3.53923 v -17.30681 q 0,-0.60167 0.35392,-0.99098 0.38931,-0.38932 0.99098,-0.38932 0.60167,0 0.99098,0.38932 0.38932,0.38931 0.38932,0.99098 v 17.30681 q 0,1.80501 1.06177,2.97295 1.06176,1.13255 2.7252,1.13255 h 0.95559 q 0.56628,0 0.9202,0.38932 0.35392,0.38931 0.35392,0.99098 0,0.60167 -0.42471,0.99098 -0.4247,0.35393 -1.06176,0.35393 z m -8.81267,-16.28044 q -0.53088,0 -0.88481,-0.31853 -0.35392,-0.35392 -0.35392,-0.84941 0,-0.53089 0.35392,-0.84942 0.35393,-0.35392 0.88481,-0.35392 h 9.02502 q 0.53089,0 0.88481,0.35392 0.35392,0.31853 0.35392,0.84942 0,0.49549 -0.35392,0.84941 -0.35392,0.31853 -0.88481,0.31853 z m -16.775877,9.80365 -1.663435,-1.805 12.104149,-10.93621 q 0.424707,-0.38931 0.884806,-0.35392 0.4601,0 0.849414,0.42471 0.389313,0.42471 0.353923,0.9202 0,0.4601 -0.424707,0.81402 z m -0.884806,6.47679 q -0.601668,0 -0.990983,-0.35393 -0.353922,-0.38931 -0.353922,-0.99098 v -24.95154 q 0,-0.60166 0.353922,-0.95559 0.389315,-0.38931 0.990983,-0.38931 0.601668,0 0.955591,0.38931 0.389315,0.35393 0.389315,0.95559 v 24.95154 q 0,0.60167 -0.389315,0.99098 -0.353923,0.35393 -0.955591,0.35393 z m 13.095133,-0.17697 q -0.4601,0.38932 -0.955591,0.31853 -0.495492,-0.0354 -0.849414,-0.49549 l -7.892472,-9.69747 1.911182,-1.69883 7.963255,9.80365 q 0.35392,0.42471 0.31853,0.9202 -0.0354,0.4601 -0.49549,0.84941 z m -26.756527,0.35393 q -2.088143,0 -4.140893,-0.70785 -2.052751,-0.70784 -3.326872,-2.12353 -0.389315,-0.42471 -0.31853,-0.95559 0.07078,-0.53089 0.530884,-0.9202 0.495491,-0.35393 1.026375,-0.28314 0.530884,0.0708 0.884806,0.4601 0.849414,0.99098 2.229712,1.52187 1.41569,0.53088 3.114518,0.53088 2.619026,0 3.786971,-0.88481 1.167944,-0.9202 1.203336,-2.19432 0,-1.27412 -1.203336,-2.08814 -1.203337,-0.84941 -3.963932,-1.30951 -3.574618,-0.56628 -5.238053,-1.98197 -1.663436,-1.41569 -1.663436,-3.36226 0,-1.80501 0.955591,-3.00834 0.95559,-1.20334 2.548242,-1.80501 1.592651,-0.60167 3.503832,-0.60167 2.371281,0 4.070109,0.81403 1.73422,0.81402 2.795988,2.19431 0.353922,0.4601 0.283138,0.9556 -0.07079,0.49549 -0.566276,0.81402 -0.424707,0.24774 -0.990983,0.17696 -0.530884,-0.10618 -0.920199,-0.53089 -0.884806,-1.02637 -2.05275,-1.48647 -1.167944,-0.49549 -2.689811,-0.49549 -1.946574,0 -3.114518,0.81402 -1.167944,0.77863 -1.167944,1.98197 0,0.81402 0.424707,1.41569 0.460099,0.60166 1.521866,1.06176 1.09716,0.4601 3.043734,0.77863 2.654419,0.42471 4.176285,1.27412 1.557259,0.81403 2.19432,1.94658 0.672453,1.09716 0.672453,2.40667 0,1.66344 -0.990983,2.93756 -0.955591,1.23873 -2.689811,1.94657 -1.698828,0.70785 -3.92854,0.70785 z m -19.713425,0 q -2.866773,0 -5.096484,-1.23873 -2.19432,-1.27412 -3.468441,-3.50383 -1.238729,-2.22972 -1.238729,-5.09649 0,-2.90216 1.167945,-5.09648 1.203336,-2.22971 3.291479,-3.50384 2.088143,-1.27412 4.813346,-1.27412 2.689811,0 4.671777,1.23873 2.017358,1.20334 3.114518,3.36227 1.09716,2.15892 1.09716,4.91952 0,0.56627 -0.353923,0.9202 -0.353922,0.31853 -0.920198,0.31853 H 45.542551 v -2.26511 h 15.324845 l -1.521867,1.09716 q 0.03539,-2.05275 -0.743237,-3.68079 -0.77863,-1.62804 -2.229712,-2.54824 -1.41569,-0.9202 -3.397656,-0.9202 -2.017358,0 -3.539225,0.95559 -1.521867,0.95559 -2.371281,2.65442 -0.814022,1.66343 -0.814022,3.82236 0,2.15893 0.920199,3.82236 0.955591,1.66344 2.583634,2.61903 1.628044,0.95559 3.751579,0.95559 1.274121,0 2.548242,-0.42471 1.309513,-0.46009 2.088142,-1.13255 0.389315,-0.31853 0.884807,-0.31853 0.495491,-0.0354 0.849414,0.24775 0.460099,0.4247 0.460099,0.9202 0.03539,0.49549 -0.389315,0.84941 -1.167944,0.99098 -2.972949,1.66344 -1.805005,0.63706 -3.46844,0.63706 z m -34.29504,-0.17696 q -0.601668,0 -0.990983,-0.38932 -0.389315,-0.38931 -0.389315,-0.99098 v -24.88075 q 0,-0.60167 0.389315,-0.99099 0.389315,-0.38931 0.990983,-0.38931 h 6.370605 q 3.043734,0 5.556583,1.02637 2.548242,0.99099 4.388639,2.86678 1.840398,1.84039 2.831381,4.35324 1.026375,2.51285 1.026375,5.55659 0,3.04373 -1.026375,5.59197 -0.990983,2.51285 -2.831381,4.38864 -1.840397,1.8404 -4.388639,2.86677 -2.512849,0.99099 -5.556583,0.99099 z m 1.380298,-2.47746 h 4.990307 q 3.256087,0 5.733545,-1.45108 2.512849,-1.48648 3.928539,-4.03472 1.41569,-2.58364 1.41569,-5.87511 0,-3.29148 -1.41569,-5.83973 -1.41569,-2.58363 -3.928539,-4.03471 -2.477458,-1.45108 -5.733545,-1.45108 h -4.990307 z"
           inkscape:connector-curvature="0" />
        <path
           id="path1167"
           style="font-style:normal;font-variant:normal;font-weight:normal;font-stretch:normal;font-size:25.1068821px;line-height:1.25;font-family:Comfortaa;-inkscape-font-specification:Comfortaa;letter-spacing:0px;word-spacing:0px;fill:#ffffff;fill-opacity:1;stroke:none;stroke-width:0.62767208"
           d="m 123.0533,492.92711 q -1.75748,0 -3.16347,-0.75321 -1.38088,-0.77831 -2.1843,-2.10898 -0.80342,-1.33066 -0.80342,-3.01282 0,-0.42682 0.25107,-0.7281 0.25107,-0.30128 0.67789,-0.30128 0.42682,0 0.67788,0.30128 0.25107,0.30128 0.25107,0.7281 0,1.15492 0.55235,2.08387 0.55236,0.90385 1.50642,1.4562 0.97917,0.52724 2.15919,0.52724 1.95834,0 3.06304,-1.07959 1.1047,-1.10471 1.1047,-2.83708 0,-1.23024 -0.52724,-2.13408 -0.52725,-0.92896 -1.43109,-1.4311 -0.90385,-0.52724 -2.03366,-0.52724 -0.40171,0 -0.67789,-0.27618 -0.27617,-0.27617 -0.27617,-0.70299 0,-0.40171 0.27617,-0.67789 0.27618,-0.27617 0.67789,-0.27617 0.87874,0 1.60684,-0.42682 0.7532,-0.45192 1.20513,-1.18002 0.45192,-0.7281 0.45192,-1.60684 0,-1.33067 -0.90385,-2.20941 -0.90384,-0.90385 -2.41026,-0.90385 -1.05449,0 -1.88301,0.42682 -0.82853,0.40171 -1.30556,1.1047 -0.45192,0.67789 -0.45192,1.55663 0,0.42682 -0.27618,0.7281 -0.25107,0.27618 -0.65278,0.27618 -0.42682,0 -0.67788,-0.27618 -0.25107,-0.30128 -0.25107,-0.70299 0,-1.38088 0.70299,-2.48558 0.7281,-1.12981 1.95834,-1.75749 1.23023,-0.65277 2.83707,-0.65277 1.4562,0 2.61112,0.65277 1.18002,0.62768 1.85791,1.75749 0.70299,1.1047 0.70299,2.48558 0,0.85363 -0.42682,1.65705 -0.40171,0.80342 -1.07959,1.4562 -0.67789,0.62767 -1.48131,0.97917 1.28045,0.3766 2.13409,1.15492 0.85363,0.77831 1.25534,1.8328 0.40171,1.02938 0.40171,2.15919 0,1.65705 -0.80342,2.96261 -0.77831,1.28045 -2.15919,2.03366 -1.38088,0.7281 -3.06304,0.7281 z m -19.35739,-0.12554 q -0.40171,0 -0.70299,-0.27617 -0.27618,-0.27618 -0.27618,-0.70299 0,-0.37661 0.27618,-0.67789 l 7.60738,-8.98826 q 0.62768,-0.67789 1.00428,-1.50642 0.3766,-0.85363 0.3766,-1.58173 0,-1.18002 -0.47703,-2.08387 -0.45192,-0.90385 -1.30556,-1.40599 -0.82852,-0.52724 -1.90812,-0.52724 -1.05449,0 -1.93323,0.55235 -0.85363,0.52724 -1.35577,1.43109 -0.47703,0.90385 -0.47703,2.03366 0,0.40171 -0.27618,0.67789 -0.27617,0.27617 -0.70299,0.27617 -0.40171,0 -0.70299,-0.27617 -0.27618,-0.27618 -0.27618,-0.67789 0,-1.68216 0.75321,-3.01283 0.7532,-1.33066 2.03365,-2.10897 1.30556,-0.77832 2.93751,-0.77832 1.63195,0 2.88729,0.75321 1.28045,0.75321 1.98345,2.08387 0.72809,1.33067 0.72809,3.06304 0,0.82853 -0.27617,1.58173 -0.25107,0.75321 -0.70299,1.4562 -0.45193,0.67789 -0.97917,1.28045 l -6.42736,7.45675 h 7.85845 q 0.40171,0 0.67789,0.30128 0.30128,0.30128 0.30128,0.67789 0,0.42681 -0.30128,0.70299 -0.27618,0.27617 -0.67789,0.27617 z m -7.758006,0 q -0.376603,0 -0.652779,-0.27617 -0.276176,-0.27618 -0.276176,-0.70299 v -3.71582 h -8.988264 q -0.40171,0 -0.677886,-0.25107 -0.251068,-0.27618 -0.301282,-0.62767 -0.02511,-0.3515 0.200855,-0.65278 l 9.942325,-13.00537 q 0.125535,-0.17575 0.301283,-0.27617 0.200855,-0.12554 0.502138,-0.12554 0.40171,0 0.652778,0.30129 0.276176,0.27617 0.276176,0.70299 v 12.17684 h 1.983444 q 0.40171,0 0.677886,0.20085 0.276175,0.20086 0.276175,0.70299 0,0.32639 -0.276175,0.60257 -0.276176,0.25107 -0.677886,0.25107 h -1.983444 v 3.71582 q 0,0.42681 -0.276176,0.70299 -0.276175,0.27617 -0.702992,0.27617 z m -8.86273,-5.69926 -0.351496,-0.7532 h 8.285271 v -10.77086 l 0.502138,0.52725 z m -12.812862,5.69926 q -0.284545,0 -0.451924,-0.16737 -0.150642,-0.16738 -0.16738,-0.41845 -0.01674,-0.25107 0.150642,-0.46866 l 4.368598,-5.9587 0.602565,-0.4854 3.916674,-5.3394 q 0.184117,-0.23433 0.502137,-0.23433 0.267807,0 0.418448,0.18411 0.16738,0.16738 0.184118,0.41845 0.01674,0.23433 -0.117166,0.41845 l -4.117529,5.59047 -0.569089,0.46866 -4.251433,5.79132 q -0.184117,0.20085 -0.468661,0.20085 z m 9.055216,0 q -0.133904,0 -0.267807,-0.0502 -0.133903,-0.0669 -0.234331,-0.18412 l -4.167743,-5.77458 -0.518875,-0.38497 -4.067315,-5.65742 q -0.150642,-0.20085 -0.133904,-0.43519 0.01674,-0.25106 0.167379,-0.41844 0.16738,-0.16738 0.435186,-0.16738 0.318021,0 0.502138,0.23433 l 3.933412,5.43982 0.468662,0.31802 4.35186,6.02566 q 0.150641,0.20085 0.133903,0.45192 0,0.25107 -0.167379,0.43519 -0.150642,0.16737 -0.435186,0.16737 z m -17.641747,0 q -1.857909,0 -3.188574,-1.18002 -1.330664,-1.18002 -2.033657,-3.36432 -0.677886,-2.20941 -0.677886,-5.29755 0,-3.03794 0.677886,-5.24734 0.702993,-2.20941 2.033657,-3.38943 1.330665,-1.18002 3.188574,-1.18002 1.908123,0 3.213681,1.20513 1.330665,1.18002 2.008551,3.38943 0.702993,2.2094 0.702993,5.22223 0,3.06304 -0.702993,5.27244 -0.677886,2.1843 -2.008551,3.38943 -1.305558,1.18002 -3.213681,1.18002 z m 0,-1.95833 q 1.355772,0 2.234513,-1.00428 0.878741,-1.02938 1.305558,-2.81197 0.426817,-1.78259 0.426817,-4.06731 0,-2.25962 -0.451924,-4.0171 -0.426817,-1.78259 -1.305558,-2.81198 -0.878741,-1.02938 -2.209406,-1.02938 -1.330664,0 -2.209405,1.02938 -0.853634,1.00428 -1.305558,2.78687 -0.426817,1.78259 -0.426817,4.04221 0,2.30983 0.426817,4.09242 0.451924,1.75748 1.305558,2.78686 0.878741,1.00428 2.209405,1.00428 z m -14.160246,1.95833 q -1.707268,0 -3.037933,-0.7532 -1.330665,-0.77832 -2.108978,-2.10898 -0.753207,-1.33066 -0.753207,-3.03793 0,-1.68216 0.753207,-3.01283 0.778313,-1.35577 2.108978,-2.10898 1.330665,-0.77831 3.037933,-0.77831 1.682161,0 3.012825,0.77831 1.330665,0.75321 2.083872,2.10898 0.778313,1.33067 0.778313,3.01283 0,1.70727 -0.778313,3.03793 -0.753207,1.33066 -2.083872,2.10898 -1.330664,0.7532 -3.012825,0.7532 z m -0.02511,-1.80769 q 1.154916,0 2.058764,-0.52725 0.928955,-0.52724 1.456199,-1.45619 0.527245,-0.92896 0.527245,-2.10898 0,-1.18003 -0.527245,-2.10898 -0.527244,-0.92896 -1.456199,-1.4562 -0.903848,-0.55235 -2.058764,-0.55235 -1.154917,0 -2.058765,0.55235 -0.903847,0.52724 -1.431092,1.4562 -0.527244,0.92895 -0.527244,2.10898 0,1.18002 0.527244,2.10898 0.527245,0.92895 1.431092,1.45619 0.903848,0.52725 2.058765,0.52725 z m -5.146911,-7.08014 6.2014,-10.1934 q 0.326389,-0.52724 0.878741,-0.52724 0.376603,0 0.652779,0.22596 0.276175,0.22596 0.326389,0.57746 0.07532,0.3515 -0.125534,0.67789 l -4.142636,6.75375 z m -10.118044,8.88783 q -1.807695,0 -3.238788,-0.82852 -1.431092,-0.85364 -2.284726,-2.28473 -0.828527,-1.4562 -0.828527,-3.26389 0,-0.42682 0.276176,-0.703 0.276176,-0.27617 0.677886,-0.27617 0.426817,0 0.702992,0.27617 0.301283,0.27618 0.301283,0.703 0,1.25534 0.577458,2.25962 0.577458,1.00427 1.556627,1.58173 1.004275,0.57746 2.259619,0.57746 1.255344,0 2.25962,-0.57746 1.004275,-0.57746 1.581733,-1.58173 0.577459,-1.00428 0.577459,-2.25962 0,-1.25535 -0.577459,-2.25962 -0.577458,-1.00428 -1.581733,-1.58174 -1.004276,-0.57745 -2.25962,-0.57745 h -4.393704 q -0.426817,0 -0.702993,-0.27618 -0.276175,-0.30128 -0.276175,-0.70299 v -6.87929 q 0,-0.40171 0.276175,-0.67788 0.276176,-0.30129 0.702993,-0.30129 h 8.812516 q 0.40171,0 0.677885,0.30129 0.301283,0.27617 0.301283,0.67788 0,0.40171 -0.276176,0.70299 -0.276175,0.27618 -0.702992,0.27618 h -7.858455 v 4.92095 h 3.439643 q 1.832803,0 3.263895,0.85363 1.431092,0.82853 2.259619,2.28473 0.853634,1.43109 0.853634,3.23879 0,1.80769 -0.853634,3.26389 -0.828527,1.43109 -2.259619,2.28473 -1.431092,0.82852 -3.263895,0.82852 z m -19.809314,0 q -0.40171,0 -0.702993,-0.27617 -0.276175,-0.27618 -0.276175,-0.70299 0,-0.37661 0.276175,-0.67789 l 7.607386,-8.98826 q 0.627672,-0.67789 1.004275,-1.50642 0.376603,-0.85363 0.376603,-1.58173 0,-1.18002 -0.477031,-2.08387 -0.451924,-0.90385 -1.305558,-1.40599 -0.828527,-0.52724 -1.908123,-0.52724 -1.054489,0 -1.93323,0.55235 -0.853634,0.52724 -1.355771,1.43109 -0.477031,0.90385 -0.477031,2.03366 0,0.40171 -0.276176,0.67789 -0.276175,0.27617 -0.702992,0.27617 -0.40171,0 -0.702993,-0.27617 -0.276176,-0.27618 -0.276176,-0.67789 0,-1.68216 0.753207,-3.01283 0.753206,-1.33066 2.033657,-2.10897 1.305558,-0.77832 2.937505,-0.77832 1.631948,0 2.887292,0.75321 1.280451,0.75321 1.983443,2.08387 0.7281,1.33067 0.7281,3.06304 0,0.82853 -0.276176,1.58173 -0.251068,0.75321 -0.702992,1.4562 -0.451924,0.67789 -0.979169,1.28045 l -6.427362,7.45675 h 7.858455 q 0.40171,0 0.677885,0.30128 0.301283,0.30128 0.301283,0.67789 0,0.42681 -0.301283,0.70299 -0.276175,0.27617 -0.677885,0.27617 z"
           inkscape:connector-curvature="0" />
      </g>
      <g
         id="g1282">
        <path
           id="path1172"
           style="font-style:normal;font-variant:normal;font-weight:normal;font-stretch:normal;font-size:35.39225006px;line-height:1.25;font-family:Comfortaa;-inkscape-font-specification:Comfortaa;letter-spacing:0px;word-spacing:0px;fill:#ffffff;fill-opacity:1;stroke:none;stroke-width:0.88480628"
           d="m 50.178944,42.590752 q -0.884806,0 -1.274121,-0.884807 L 38.393325,17.108332 q -0.389315,-0.990983 -0.07079,-1.557259 0.353923,-0.601669 1.203337,-0.601669 0.884806,0 1.274121,0.884807 l 9.768261,23.358885 h -0.77863 l 9.732869,-23.288101 q 0.212354,-0.530884 0.530884,-0.743237 0.31853,-0.212354 0.849414,-0.212354 0.814022,0 1.09716,0.637061 0.283138,0.601668 -0.03539,1.380298 l -10.54689,24.739182 q -0.212354,0.495492 -0.530884,0.707845 -0.31853,0.176962 -0.707845,0.176962 z m -24.314433,0 q -0.566276,0 -0.990983,-0.389315 -0.389315,-0.424707 -0.389315,-0.990983 v -26.26105 h 2.760596 v 26.26105 q 0,0.566276 -0.389315,0.990983 -0.389315,0.389315 -0.990983,0.389315 z M 16.09625,17.462254 q -0.566276,0 -0.920198,-0.353922 -0.353923,-0.353923 -0.353923,-0.884807 0,-0.566276 0.353923,-0.920198 0.353922,-0.353923 0.920198,-0.353923 h 19.571914 q 0.566276,0 0.920199,0.353923 0.353922,0.353922 0.353922,0.920198 0,0.530884 -0.353922,0.884807 -0.353923,0.353922 -0.920199,0.353922 z"
           inkscape:connector-curvature="0" />
        <path
           id="path1191"
           style="font-style:normal;font-variant:normal;font-weight:normal;font-stretch:normal;font-size:25.1068821px;line-height:1.25;font-family:Comfortaa;-inkscape-font-specification:Comfortaa;letter-spacing:0px;word-spacing:0px;fill:#ffffff;fill-opacity:1;stroke:none;stroke-width:0.62767208"
           d="m 133.82411,79.056427 q -1.85791,0 -3.18857,-1.180023 -1.33067,-1.180024 -2.03366,-3.364323 -0.67789,-2.209405 -0.67789,-5.297552 0,-3.037933 0.67789,-5.247338 0.70299,-2.209406 2.03366,-3.389429 1.33066,-1.180024 3.18857,-1.180024 1.90813,0 3.21368,1.205131 1.33067,1.180023 2.00855,3.389429 0.703,2.209405 0.703,5.222231 0,3.06304 -0.703,5.272445 -0.67788,2.184299 -2.00855,3.38943 -1.30555,1.180023 -3.21368,1.180023 z m 0,-1.958337 q 1.35577,0 2.23451,-1.004275 0.87875,-1.029382 1.30556,-2.811971 0.42682,-1.782589 0.42682,-4.067315 0,-2.259619 -0.45192,-4.017101 -0.42682,-1.782589 -1.30556,-2.811971 -0.87874,-1.029382 -2.20941,-1.029382 -1.33066,0 -2.2094,1.029382 -0.85364,1.004276 -1.30556,2.786864 -0.42682,1.782589 -0.42682,4.042208 0,2.309833 0.42682,4.092422 0.45192,1.757482 1.30556,2.786864 0.87874,1.004275 2.2094,1.004275 z m -12.15171,1.958337 q -0.3766,0 -0.65278,-0.276176 -0.27617,-0.276175 -0.27617,-0.702992 V 74.36144 h -8.98827 q -0.40171,0 -0.67788,-0.251069 -0.25107,-0.276175 -0.30129,-0.627672 -0.0251,-0.351496 0.20086,-0.652779 l 9.94232,-13.005365 q 0.12554,-0.175748 0.30129,-0.276175 0.20085,-0.125535 0.50213,-0.125535 0.40171,0 0.65278,0.301283 0.27618,0.276175 0.27618,0.702992 v 12.176838 h 1.98344 q 0.40171,0 0.67789,0.200855 0.27617,0.200855 0.27617,0.702993 0,0.32639 -0.27617,0.602565 -0.27618,0.251069 -0.67789,0.251069 h -1.98344 v 3.715819 q 0,0.426817 -0.27618,0.702992 -0.27617,0.276176 -0.70299,0.276176 z m -8.86273,-5.699262 -0.35149,-0.753207 h 8.28527 V 61.833106 l 0.50213,0.527244 z m -7.38141,5.699262 q -0.3766,0 -0.65278,-0.276176 -0.27617,-0.276175 -0.27617,-0.702992 V 74.36144 h -8.988268 q -0.40171,0 -0.677886,-0.251069 -0.251069,-0.276175 -0.301283,-0.627672 -0.02511,-0.351496 0.200855,-0.652779 l 9.942322,-13.005365 q 0.12554,-0.175748 0.30129,-0.276175 0.20085,-0.125535 0.50213,-0.125535 0.40171,0 0.65278,0.301283 0.27618,0.276175 0.27618,0.702992 v 12.176838 h 1.98344 q 0.40171,0 0.67789,0.200855 0.27617,0.200855 0.27617,0.702993 0,0.32639 -0.27617,0.602565 -0.27618,0.251069 -0.67789,0.251069 h -1.98344 v 3.715819 q 0,0.426817 -0.27618,0.702992 -0.27617,0.276176 -0.70299,0.276176 z m -8.862729,-5.699262 -0.351497,-0.753207 h 8.285276 V 61.833106 l 0.50213,0.527244 z m -5.874966,5.699262 q -0.40171,0 -0.702992,-0.276176 -0.276176,-0.276175 -0.276176,-0.702992 V 61.757785 l -2.510688,0.878741 q -0.276176,0.125535 -0.502138,0.125535 -0.426817,0 -0.702993,-0.276176 -0.276175,-0.276176 -0.276175,-0.677886 0,-0.301283 0.125534,-0.552351 0.150641,-0.251069 0.502138,-0.376604 l 3.86646,-1.330664 q 0.125534,-0.05021 0.251068,-0.07532 0.150642,-0.05021 0.251069,-0.05021 0.426817,0 0.677886,0.301283 0.276176,0.276175 0.276176,0.677886 v 17.675245 q 0,0.426817 -0.276176,0.702992 -0.276176,0.276176 -0.702993,0.276176 z m -16.428253,0 q -0.284545,0 -0.451924,-0.167379 -0.150642,-0.167379 -0.16738,-0.418448 -0.01674,-0.251069 0.150642,-0.468662 l 4.368598,-5.958701 0.602565,-0.485399 3.916674,-5.339398 q 0.184117,-0.234331 0.502137,-0.234331 0.267807,0 0.418448,0.184118 0.16738,0.167379 0.184118,0.418448 0.01674,0.234331 -0.117166,0.418448 l -4.117529,5.590466 -0.569089,0.468662 -4.251433,5.791321 q -0.184117,0.200855 -0.468661,0.200855 z m 9.055216,0 q -0.133904,0 -0.267807,-0.05021 -0.133903,-0.06695 -0.234331,-0.184117 l -4.167743,-5.774583 -0.518875,-0.384972 -4.067315,-5.657418 q -0.150642,-0.200855 -0.133904,-0.435186 0.01674,-0.251069 0.167379,-0.418448 0.16738,-0.16738 0.435186,-0.16738 0.318021,0 0.502138,0.234331 l 3.933412,5.439825 0.468662,0.318021 4.35186,6.025652 q 0.150641,0.200855 0.133903,0.451924 0,0.251069 -0.167379,0.435186 -0.150642,0.167379 -0.435186,0.167379 z m -17.641747,0 q -1.857909,0 -3.188574,-1.180023 -1.330664,-1.180024 -2.033657,-3.364323 -0.677886,-2.209405 -0.677886,-5.297552 0,-3.037933 0.677886,-5.247338 0.702993,-2.209406 2.033657,-3.389429 1.330665,-1.180024 3.188574,-1.180024 1.908123,0 3.213681,1.205131 1.330665,1.180023 2.008551,3.389429 0.702993,2.209405 0.702993,5.222231 0,3.06304 -0.702993,5.272445 -0.677886,2.184299 -2.008551,3.38943 -1.305558,1.180023 -3.213681,1.180023 z m 0,-1.958337 q 1.355772,0 2.234513,-1.004275 0.878741,-1.029382 1.305558,-2.811971 0.426817,-1.782589 0.426817,-4.067315 0,-2.259619 -0.451924,-4.017101 -0.426817,-1.782589 -1.305558,-2.811971 -0.878741,-1.029382 -2.209406,-1.029382 -1.330664,0 -2.209405,1.029382 -0.853634,1.004276 -1.305558,2.786864 -0.426817,1.782589 -0.426817,4.042208 0,2.309833 0.426817,4.092422 0.451924,1.757482 1.305558,2.786864 0.878741,1.004275 2.209405,1.004275 z m -14.160246,1.958337 q -1.707268,0 -3.037933,-0.753206 -1.330665,-0.778314 -2.108978,-2.108979 -0.753207,-1.330664 -0.753207,-3.037932 0,-1.682161 0.753207,-3.012826 0.778313,-1.355772 2.108978,-2.108978 1.330665,-0.778314 3.037933,-0.778314 1.682161,0 3.012825,0.778314 1.330665,0.753206 2.083872,2.108978 0.778313,1.330665 0.778313,3.012826 0,1.707268 -0.778313,3.037932 -0.753207,1.330665 -2.083872,2.108979 -1.330664,0.753206 -3.012825,0.753206 z m -0.02511,-1.807696 q 1.154916,0 2.058764,-0.527244 0.928955,-0.527245 1.456199,-1.456199 0.527245,-0.928955 0.527245,-2.108978 0,-1.180024 -0.527245,-2.108978 -0.527244,-0.928955 -1.456199,-1.4562 -0.903848,-0.552351 -2.058764,-0.552351 -1.154917,0 -2.058765,0.552351 -0.903847,0.527245 -1.431092,1.4562 -0.527244,0.928954 -0.527244,2.108978 0,1.180023 0.527244,2.108978 0.527245,0.928954 1.431092,1.456199 0.903848,0.527244 2.058765,0.527244 z m -5.146911,-7.08014 6.2014,-10.193394 q 0.326389,-0.527245 0.878741,-0.527245 0.376603,0 0.652779,0.225962 0.276175,0.225962 0.326389,0.577458 0.07532,0.351497 -0.125534,0.677886 l -4.142636,6.753751 z M 36.22547,79.056427 q -1.807695,0 -3.238788,-0.828527 -1.431092,-0.853634 -2.284726,-2.284726 -0.828527,-1.4562 -0.828527,-3.263895 0,-0.426817 0.276176,-0.702993 0.276176,-0.276175 0.677886,-0.276175 0.426817,0 0.702992,0.276175 0.301283,0.276176 0.301283,0.702993 0,1.255344 0.577458,2.259619 0.577458,1.004276 1.556627,1.581734 1.004275,0.577458 2.259619,0.577458 1.255344,0 2.25962,-0.577458 1.004275,-0.577458 1.581733,-1.581734 0.577459,-1.004275 0.577459,-2.259619 0,-1.255344 -0.577459,-2.259619 -0.577458,-1.004276 -1.581733,-1.581734 -1.004276,-0.577458 -2.25962,-0.577458 h -4.393704 q -0.426817,0 -0.702993,-0.276176 -0.276175,-0.301283 -0.276175,-0.702993 v -6.879285 q 0,-0.401711 0.276175,-0.677886 0.276176,-0.301283 0.702993,-0.301283 h 8.812516 q 0.40171,0 0.677885,0.301283 0.301283,0.276175 0.301283,0.677886 0,0.40171 -0.276176,0.702992 -0.276175,0.276176 -0.702992,0.276176 h -7.858455 v 4.920949 h 3.439643 q 1.832803,0 3.263895,0.853634 1.431092,0.828527 2.259619,2.284726 0.853634,1.431092 0.853634,3.238788 0,1.807695 -0.853634,3.263895 -0.828527,1.431092 -2.259619,2.284726 -1.431092,0.828527 -3.263895,0.828527 z m -19.809314,0 q -0.40171,0 -0.702993,-0.276176 -0.276175,-0.276175 -0.276175,-0.702992 0,-0.376604 0.276175,-0.677886 l 7.607386,-8.988264 q 0.627672,-0.677886 1.004275,-1.506413 0.376603,-0.853634 0.376603,-1.581734 0,-1.180023 -0.477031,-2.083871 -0.451924,-0.903847 -1.305558,-1.405985 -0.828527,-0.527245 -1.908123,-0.527245 -1.054489,0 -1.93323,0.552352 -0.853634,0.527244 -1.355771,1.431092 -0.477031,0.903848 -0.477031,2.033657 0,0.401711 -0.276176,0.677886 -0.276175,0.276176 -0.702992,0.276176 -0.40171,0 -0.702993,-0.276176 -0.276176,-0.276175 -0.276176,-0.677886 0,-1.682161 0.753207,-3.012825 0.753206,-1.330665 2.033657,-2.108978 1.305558,-0.778314 2.937505,-0.778314 1.631948,0 2.887292,0.753207 1.280451,0.753206 1.983443,2.083871 0.7281,1.330665 0.7281,3.063039 0,0.828528 -0.276176,1.581734 -0.251068,0.753207 -0.702992,1.456199 -0.451924,0.677886 -0.979169,1.280451 l -6.427362,7.456744 h 7.858455 q 0.40171,0 0.677885,0.301283 0.301283,0.301282 0.301283,0.677886 0,0.426817 -0.301283,0.702992 -0.276175,0.276176 -0.677885,0.276176 z"
           inkscape:connector-curvature="0" />
      </g>
      <g
         id="g1278">
        <path
           id="path1069"
           style="font-style:normal;font-variant:normal;font-weight:normal;font-stretch:normal;font-size:35.39225006px;line-height:1.25;font-family:Comfortaa;-inkscape-font-specification:Comfortaa;letter-spacing:0px;word-spacing:0px;fill:#ffffff;fill-opacity:1;stroke:none;stroke-width:0.88480628"
           d="m 1056.9034,457.05169 q -2.8667,0 -5.0964,-1.23873 -2.1944,-1.27412 -3.4685,-3.50383 -1.2387,-2.22972 -1.2387,-5.09649 0,-2.90216 1.1679,-5.09648 1.2034,-2.22971 3.2915,-3.50384 2.0882,-1.27412 4.8134,-1.27412 2.6898,0 4.6717,1.23873 2.0174,1.20334 3.1145,3.36227 1.0972,2.15892 1.0972,4.91952 0,0.56627 -0.3539,0.9202 -0.3539,0.31853 -0.9202,0.31853 h -15.0417 v -2.26511 h 15.3248 l -1.5218,1.09716 q 0.035,-2.05275 -0.7433,-3.68079 -0.7786,-1.62804 -2.2297,-2.54824 -1.4157,-0.9202 -3.3976,-0.9202 -2.0174,0 -3.5393,0.95559 -1.5218,0.95559 -2.3713,2.65442 -0.814,1.66343 -0.814,3.82236 0,2.15893 0.9202,3.82236 0.9556,1.66344 2.5837,2.61903 1.628,0.95559 3.7515,0.95559 1.2742,0 2.5483,-0.42471 1.3095,-0.46009 2.0881,-1.13255 0.3893,-0.31853 0.8848,-0.31853 0.4955,-0.0354 0.8494,0.24775 0.4601,0.4247 0.4601,0.9202 0.035,0.49549 -0.3893,0.84941 -1.1679,0.99098 -2.9729,1.66344 -1.805,0.63706 -3.4685,0.63706 z m -13.5198,-0.17696 q -1.4157,0 -2.5482,-0.77863 -1.0972,-0.77863 -1.7342,-2.15893 -0.6017,-1.3803 -0.6017,-3.1853 v -20.17359 q 0,-0.60166 0.3539,-0.95559 0.3893,-0.38931 0.991,-0.38931 0.6017,0 0.9556,0.38931 0.3893,0.35393 0.3893,0.95559 v 20.17359 q 0,1.52186 0.6017,2.47745 0.637,0.95559 1.5926,0.95559 h 0.8848 q 0.5309,0 0.8494,0.38932 0.3186,0.35392 0.3186,0.95559 0,0.60167 -0.4601,0.99098 -0.4247,0.35393 -1.1326,0.35393 z m -12.458,0 q -0.6371,0 -1.0264,-0.35393 -0.3539,-0.38931 -0.3539,-1.02637 v -16.59897 q 0,-0.63706 0.3539,-0.99098 0.3893,-0.38932 1.0264,-0.38932 0.6016,0 0.9556,0.38932 0.3893,0.35392 0.3893,0.99098 v 16.59897 q 0,0.63706 -0.3893,1.02637 -0.354,0.35393 -0.9556,0.35393 z m -0.035,-23.04036 q -0.7786,0 -1.3449,-0.56628 -0.5663,-0.56627 -0.5663,-1.38029 0,-0.88481 0.5663,-1.3803 0.6016,-0.53088 1.3803,-0.53088 0.7432,0 1.3095,0.53088 0.6017,0.49549 0.6017,1.3803 0,0.81402 -0.5663,1.38029 -0.5663,0.56628 -1.3803,0.56628 z m -17.1302,23.21732 q -2.7606,0 -4.9903,-1.27412 -2.1943,-1.27413 -3.5039,-3.46844 -1.2741,-2.22972 -1.3095,-4.99031 v -16.70514 q 0,-0.63706 0.3539,-0.99099 0.3894,-0.38931 1.0264,-0.38931 0.6017,0 0.9556,0.38931 0.3893,0.35393 0.3893,0.99099 V 441.019 q 1.168,-1.66344 3.0792,-2.65442 1.9465,-1.02638 4.3178,-1.02638 2.7252,0 4.8841,1.30952 2.159,1.27412 3.3977,3.50383 1.2741,2.22971 1.2741,5.0257 0,2.83138 -1.3095,5.06109 -1.2741,2.22971 -3.5038,3.53923 -2.2297,1.27412 -5.0611,1.27412 z m 0,-2.47746 q 2.0527,0 3.6808,-0.95559 1.628,-0.99098 2.5482,-2.65442 0.9556,-1.66344 0.9556,-3.78697 0,-2.08814 -0.9556,-3.75158 -0.9202,-1.69883 -2.5482,-2.65442 -1.6281,-0.95559 -3.6808,-0.95559 -2.0174,0 -3.6454,0.95559 -1.6281,0.95559 -2.5483,2.65442 -0.9202,1.66344 -0.9202,3.75158 0,2.12353 0.9202,3.78697 0.9202,1.66344 2.5483,2.65442 1.628,0.95559 3.6454,0.95559 z m -24.95148,2.47746 q -2.83138,0 -5.0611,-1.27412 -2.22971,-1.27413 -3.50383,-3.50384 -1.27412,-2.22971 -1.27412,-5.06109 0,-2.86677 1.27412,-5.09648 1.27412,-2.22971 3.50383,-3.50384 2.22972,-1.27412 5.0611,-1.27412 2.83138,0 5.0257,1.27412 2.22971,1.27413 3.50383,3.50384 1.27412,2.22971 1.30951,5.09648 0,2.83138 -1.30951,5.06109 -1.27412,2.22971 -3.50383,3.50384 -2.19432,1.27412 -5.0257,1.27412 z m 0,-2.47746 q 2.05275,0 3.68079,-0.95559 1.62804,-0.95559 2.54824,-2.61903 0.9202,-1.66343 0.9202,-3.78697 0,-2.12353 -0.9202,-3.78697 -0.9202,-1.69883 -2.54824,-2.65442 -1.62804,-0.95559 -3.68079,-0.95559 -2.05275,0 -3.6808,0.95559 -1.62804,0.95559 -2.58363,2.65442 -0.9202,1.66344 -0.9202,3.78697 0,2.12354 0.9202,3.78697 0.95559,1.66344 2.58363,2.61903 1.62805,0.95559 3.6808,0.95559 z m -16.17422,2.3005 q -0.60167,0 -0.99098,-0.35393 -0.38932,-0.38931 -0.38932,-0.99098 v -10.19297 q 0,-2.51285 -1.30951,-3.96393 -1.30951,-1.48647 -3.36226,-1.48647 -2.19432,0 -3.61001,1.48647 -1.3803,1.45108 -1.34491,3.89315 h -2.44206 q 0.0354,-2.37128 1.02637,-4.17629 0.99098,-1.805 2.7252,-2.79599 1.73422,-0.99098 3.92854,-0.99098 2.08815,0 3.6808,0.99098 1.62804,0.99099 2.51285,2.79599 0.9202,1.80501 0.9202,4.24707 v 10.19297 q 0,0.60167 -0.38932,0.99098 -0.35392,0.35393 -0.95559,0.35393 z m -24.77457,0 q -0.63707,0 -1.02638,-0.35393 -0.35392,-0.38931 -0.35392,-0.99098 v -16.63436 q 0,-0.60167 0.35392,-0.99098 0.38931,-0.38932 1.02638,-0.38932 0.60166,0 0.95559,0.38932 0.38931,0.38931 0.38931,0.99098 v 16.63436 q 0,0.60167 -0.38931,0.99098 -0.35393,0.35393 -0.95559,0.35393 z m 12.42268,0 q -0.60167,0 -0.99099,-0.35393 -0.38931,-0.38931 -0.38931,-0.99098 v -10.19297 q 0,-2.51285 -1.30952,-3.96393 -1.30951,-1.48647 -3.36226,-1.48647 -2.19432,0 -3.61001,1.45108 -1.41569,1.41569 -1.41569,3.71618 h -1.94657 q 0.0708,-2.2651 0.99098,-3.99932 0.95559,-1.76961 2.58363,-2.7606 1.62805,-0.99098 3.6808,-0.99098 2.08814,0 3.68079,0.99098 1.62805,0.99099 2.51285,2.79599 0.9202,1.80501 0.9202,4.24707 v 10.19297 q 0,0.60167 -0.38931,0.99098 -0.35393,0.35393 -0.95559,0.35393 z m -40.38249,0.17696 q -2.79599,0 -5.0257,-1.27412 -2.22971,-1.30952 -3.53923,-3.53923 -1.27412,-2.22971 -1.27412,-5.06109 0,-2.79599 1.23873,-5.0257 1.27412,-2.22971 3.43305,-3.50383 2.15893,-1.30952 4.88413,-1.30952 2.37128,0 4.28246,1.02638 1.91118,0.99098 3.07913,2.65442 v -10.40532 q 0,-0.63706 0.38931,-0.99099 0.38932,-0.38931 0.99098,-0.38931 0.60167,0 0.99099,0.38931 0.38931,0.35393 0.38931,0.99099 v 16.70514 q -0.0708,2.76059 -1.3803,4.99031 -1.27412,2.19431 -3.50383,3.46844 -2.19432,1.27412 -4.95491,1.27412 z m 0,-2.47746 q 2.05275,0 3.6454,-0.95559 1.62804,-0.99098 2.54824,-2.65442 0.95559,-1.66344 0.95559,-3.78697 0,-2.08814 -0.95559,-3.75158 -0.9202,-1.69883 -2.54824,-2.65442 -1.59265,-0.95559 -3.6454,-0.95559 -2.01736,0 -3.64541,0.95559 -1.62804,0.95559 -2.58363,2.65442 -0.95559,1.66344 -0.95559,3.75158 0,2.12353 0.95559,3.78697 0.95559,1.66344 2.58363,2.65442 1.62805,0.95559 3.64541,0.95559 z m -16.17419,2.3005 q -0.60167,0 -0.99098,-0.38932 -0.38932,-0.38931 -0.38932,-0.95559 v -9.20199 q 0,-2.19431 -0.84941,-3.61 -0.81402,-1.41569 -2.2651,-2.12354 -1.41569,-0.70784 -3.2207,-0.70784 -1.73422,0 -3.14991,0.67245 -1.3803,0.67245 -2.19432,1.8404 -0.81402,1.16794 -0.81402,2.65441 h -1.94657 q 0.0708,-2.22971 1.20333,-3.96393 1.13255,-1.76961 3.00834,-2.76059 1.87579,-1.02638 4.17629,-1.02638 2.51285,0 4.49482,1.06177 1.98196,1.02637 3.11451,3.04373 1.16795,2.01736 1.16795,4.91952 v 9.20199 q 0,0.56628 -0.38932,0.95559 -0.38931,0.38932 -0.95559,0.38932 z m -15.21867,0 q -0.63706,0 -1.02637,-0.35393 -0.35392,-0.38931 -0.35392,-0.99098 v -16.63436 q 0,-0.63706 0.35392,-0.99098 0.38931,-0.38932 1.02637,-0.38932 0.60167,0 0.9556,0.38932 0.38931,0.35392 0.38931,0.99098 v 16.63436 q 0,0.60167 -0.38931,0.99098 -0.35393,0.35393 -0.9556,0.35393 z m -16.81124,0.17696 q -2.7252,0 -4.88413,-1.27412 -2.15893,-1.30952 -3.43305,-3.53923 -1.23873,-2.22971 -1.23873,-5.0257 0,-2.83138 1.27412,-5.06109 1.30952,-2.22971 3.53923,-3.50383 2.22971,-1.30952 5.0257,-1.30952 2.79598,0 4.9903,1.30952 2.22972,1.27412 3.50384,3.50383 1.30951,2.22971 1.3449,5.06109 l -1.09716,0.84942 q 0,2.54824 -1.20333,4.60099 -1.16795,2.01736 -3.2207,3.22069 -2.01736,1.16795 -4.60099,1.16795 z m 0.28314,-2.47746 q 2.05275,0 3.6454,-0.95559 1.62804,-0.95559 2.54824,-2.61903 0.95559,-1.69883 0.95559,-3.78697 0,-2.12353 -0.95559,-3.78697 -0.9202,-1.66344 -2.54824,-2.61903 -1.59265,-0.99098 -3.6454,-0.99098 -2.01736,0 -3.6454,0.99098 -1.62805,0.95559 -2.58364,2.61903 -0.95559,1.66344 -0.95559,3.78697 0,2.08814 0.95559,3.78697 0.95559,1.66344 2.58364,2.61903 1.62804,0.95559 3.6454,0.95559 z m 8.45874,2.3005 q -0.60166,0 -0.99098,-0.35393 -0.38931,-0.38931 -0.38931,-0.99098 v -6.05207 l 0.67245,-2.79599 2.08814,0.53088 v 8.31718 q 0,0.60167 -0.38931,0.99098 -0.38932,0.35393 -0.99099,0.35393 z m -35.00286,0 q -0.60167,0 -0.99099,-0.35393 -0.38931,-0.38931 -0.38931,-0.99098 v -10.19297 q 0,-2.51285 -1.30951,-3.96393 -1.30952,-1.48647 -3.36227,-1.48647 -2.19432,0 -3.61001,1.48647 -1.38029,1.45108 -1.3449,3.89315 h -2.44207 q 0.0354,-2.37128 1.02638,-4.17629 0.99098,-1.805 2.7252,-2.79599 1.73422,-0.99098 3.92854,-0.99098 2.08814,0 3.68079,0.99098 1.62805,0.99099 2.51285,2.79599 0.9202,1.80501 0.9202,4.24707 v 10.19297 q 0,0.60167 -0.38931,0.99098 -0.35392,0.35393 -0.95559,0.35393 z m -24.77458,0 q -0.63706,0 -1.02637,-0.35393 -0.35393,-0.38931 -0.35393,-0.99098 v -16.63436 q 0,-0.60167 0.35393,-0.99098 0.38931,-0.38932 1.02637,-0.38932 0.60167,0 0.95559,0.38932 0.38932,0.38931 0.38932,0.99098 v 16.63436 q 0,0.60167 -0.38932,0.99098 -0.35392,0.35393 -0.95559,0.35393 z m 12.42268,0 q -0.60167,0 -0.99098,-0.35393 -0.38932,-0.38931 -0.38932,-0.99098 v -10.19297 q 0,-2.51285 -1.30951,-3.96393 -1.30951,-1.48647 -3.36226,-1.48647 -2.19432,0 -3.61001,1.45108 -1.41569,1.41569 -1.41569,3.71618 h -1.94658 q 0.0708,-2.2651 0.99099,-3.99932 0.95559,-1.76961 2.58363,-2.7606 1.62805,-0.99098 3.6808,-0.99098 2.08814,0 3.68079,0.99098 1.62804,0.99099 2.51285,2.79599 0.9202,1.80501 0.9202,4.24707 v 10.19297 q 0,0.60167 -0.38932,0.99098 -0.35392,0.35393 -0.95559,0.35393 z m -29.3401,0.21235 q -2.51285,0 -4.49482,-1.02638 -1.98196,-1.06176 -3.14991,-3.07912 -1.13255,-2.01736 -1.13255,-4.91952 v -9.20199 q 0,-0.56628 0.38932,-0.95559 0.38931,-0.38932 0.95559,-0.38932 0.60167,0 0.99098,0.38932 0.38932,0.38931 0.38932,0.95559 v 9.20199 q 0,2.19431 0.81402,3.61 0.84941,1.41569 2.2651,2.12354 1.45108,0.70784 3.25609,0.70784 1.73422,0 3.11452,-0.67245 1.41569,-0.67245 2.22971,-1.8404 0.81402,-1.16794 0.81402,-2.65441 h 1.94657 q -0.10617,2.22971 -1.23872,3.99932 -1.09716,1.73422 -2.97295,2.7606 -1.87579,0.99098 -4.17629,0.99098 z m 7.7863,-0.21235 q -0.60167,0 -0.99099,-0.35393 -0.35392,-0.38931 -0.35392,-1.02637 v -16.63436 q 0,-0.60167 0.35392,-0.95559 0.38932,-0.38932 0.99099,-0.38932 0.60166,0 0.99098,0.38932 0.38931,0.35392 0.38931,0.95559 v 16.63436 q 0,0.63706 -0.38931,1.02637 -0.38932,0.35393 -0.99098,0.35393 z m -23.5712,0 q -0.60167,0 -0.99098,-0.35393 -0.38932,-0.38931 -0.38932,-0.99098 v -10.19297 q 0,-2.51285 -1.30951,-3.96393 -1.30951,-1.48647 -3.36227,-1.48647 -2.19431,0 -3.61,1.48647 -1.3803,1.45108 -1.34491,3.89315 h -2.44207 q 0.0354,-2.37128 1.02638,-4.17629 0.99098,-1.805 2.7252,-2.79599 1.73422,-0.99098 3.92854,-0.99098 2.08815,0 3.6808,0.99098 1.62804,0.99099 2.51285,2.79599 0.92019,1.80501 0.92019,4.24707 v 10.19297 q 0,0.60167 -0.38931,0.99098 -0.35392,0.35393 -0.95559,0.35393 z m -24.77458,0 q -0.63706,0 -1.02637,-0.35393 -0.35392,-0.38931 -0.35392,-0.99098 v -16.63436 q 0,-0.60167 0.35392,-0.99098 0.38931,-0.38932 1.02637,-0.38932 0.60167,0 0.9556,0.38932 0.38931,0.38931 0.38931,0.99098 v 16.63436 q 0,0.60167 -0.38931,0.99098 -0.35393,0.35393 -0.9556,0.35393 z m 12.42268,0 q -0.60166,0 -0.99098,-0.35393 -0.38931,-0.38931 -0.38931,-0.99098 v -10.19297 q 0,-2.51285 -1.30952,-3.96393 -1.30951,-1.48647 -3.36226,-1.48647 -2.19432,0 -3.61001,1.45108 -1.41569,1.41569 -1.41569,3.71618 h -1.94657 q 0.0708,-2.2651 0.99098,-3.99932 0.95559,-1.76961 2.58363,-2.7606 1.62805,-0.99098 3.6808,-0.99098 2.08814,0 3.68079,0.99098 1.62804,0.99099 2.51285,2.79599 0.9202,1.80501 0.9202,4.24707 v 10.19297 q 0,0.60167 -0.38932,0.99098 -0.35392,0.35393 -0.95559,0.35393 z m -22.08475,0 q -0.63706,0 -1.02637,-0.35393 -0.35393,-0.38931 -0.35393,-1.02637 v -16.59897 q 0,-0.63706 0.35393,-0.99098 0.38931,-0.38932 1.02637,-0.38932 0.60167,0 0.95559,0.38932 0.38932,0.35392 0.38932,0.99098 v 16.59897 q 0,0.63706 -0.38932,1.02637 -0.35392,0.35393 -0.95559,0.35393 z m -0.0354,-23.04036 q -0.77863,0 -1.34491,-0.56628 -0.56627,-0.56627 -0.56627,-1.38029 0,-0.88481 0.56627,-1.3803 0.60167,-0.53088 1.3803,-0.53088 0.74324,0 1.30952,0.53088 0.60166,0.49549 0.60166,1.3803 0,0.81402 -0.56627,1.38029 -0.56628,0.56628 -1.3803,0.56628 z m -9.27269,23.04036 q -0.60166,0 -0.99098,-0.38932 -0.38931,-0.38931 -0.38931,-0.95559 v -9.20199 q 0,-2.19431 -0.84942,-3.61 -0.81402,-1.41569 -2.2651,-2.12354 -1.41569,-0.70784 -3.2207,-0.70784 -1.73422,0 -3.14991,0.67245 -1.38029,0.67245 -2.19432,1.8404 -0.81402,1.16794 -0.81402,2.65441 h -1.94657 q 0.0708,-2.22971 1.20334,-3.96393 1.13255,-1.76961 3.00834,-2.76059 1.87579,-1.02638 4.17628,-1.02638 2.51285,0 4.49482,1.06177 1.98196,1.02637 3.11452,3.04373 1.16794,2.01736 1.16794,4.91952 v 9.20199 q 0,0.56628 -0.38931,0.95559 -0.38932,0.38932 -0.9556,0.38932 z m -15.21866,0 q -0.63706,0 -1.02638,-0.35393 -0.35392,-0.38931 -0.35392,-0.99098 v -16.63436 q 0,-0.63706 0.35392,-0.99098 0.38932,-0.38932 1.02638,-0.38932 0.60167,0 0.95559,0.38932 0.38931,0.35392 0.38931,0.99098 v 16.63436 q 0,0.60167 -0.38931,0.99098 -0.35392,0.35393 -0.95559,0.35393 z m -9.66207,0 q -0.63707,0 -1.02638,-0.35393 -0.35392,-0.38931 -0.35392,-1.02637 v -16.59897 q 0,-0.63706 0.35392,-0.99098 0.38931,-0.38932 1.02638,-0.38932 0.60166,0 0.95559,0.38932 0.38931,0.35392 0.38931,0.99098 v 16.59897 q 0,0.63706 -0.38931,1.02637 -0.35393,0.35393 -0.95559,0.35393 z m -0.0354,-23.04036 q -0.77863,0 -1.3449,-0.56628 -0.56628,-0.56627 -0.56628,-1.38029 0,-0.88481 0.56628,-1.3803 0.60167,-0.53088 1.3803,-0.53088 0.74323,0 1.30951,0.53088 0.60167,0.49549 0.60167,1.3803 0,0.81402 -0.56628,1.38029 -0.56628,0.56628 -1.3803,0.56628 z m -9.27272,23.04036 q -0.60167,0 -0.99099,-0.35393 -0.38931,-0.38931 -0.38931,-0.99098 v -10.19297 q 0,-2.51285 -1.30952,-3.96393 -1.30951,-1.48647 -3.36226,-1.48647 -2.19432,0 -3.61001,1.48647 -1.3803,1.45108 -1.3449,3.89315 h -2.44207 q 0.0354,-2.37128 1.02638,-4.17629 0.99098,-1.805 2.7252,-2.79599 1.73422,-0.99098 3.92854,-0.99098 2.08814,0 3.68079,0.99098 1.62805,0.99099 2.51285,2.79599 0.9202,1.80501 0.9202,4.24707 v 10.19297 q 0,0.60167 -0.38931,0.99098 -0.35393,0.35393 -0.95559,0.35393 z m -24.77458,0 q -0.63706,0 -1.02637,-0.35393 -0.35393,-0.38931 -0.35393,-0.99098 v -16.63436 q 0,-0.60167 0.35393,-0.99098 0.38931,-0.38932 1.02637,-0.38932 0.60167,0 0.95559,0.38932 0.38932,0.38931 0.38932,0.99098 v 16.63436 q 0,0.60167 -0.38932,0.99098 -0.35392,0.35393 -0.95559,0.35393 z m 12.42268,0 q -0.60167,0 -0.99098,-0.35393 -0.38932,-0.38931 -0.38932,-0.99098 v -10.19297 q 0,-2.51285 -1.30951,-3.96393 -1.30951,-1.48647 -3.36226,-1.48647 -2.19432,0 -3.61001,1.45108 -1.41569,1.41569 -1.41569,3.71618 h -1.94658 q 0.0708,-2.2651 0.99099,-3.99932 0.95559,-1.76961 2.58363,-2.7606 1.62804,-0.99098 3.68079,-0.99098 2.08815,0 3.6808,0.99098 1.62804,0.99099 2.51285,2.79599 0.9202,1.80501 0.9202,4.24707 v 10.19297 q 0,0.60167 -0.38932,0.99098 -0.35392,0.35393 -0.95559,0.35393 z m -47.81486,8.28178 q -0.63706,0 -1.02638,-0.38931 -0.35392,-0.35393 -0.35392,-0.99099 v -16.70514 q 0.0354,-2.76059 1.30951,-4.95491 1.30952,-2.22971 3.50384,-3.50384 2.22971,-1.27412 4.9903,-1.27412 2.83138,0 5.0611,1.30952 2.22971,1.27412 3.50383,3.50383 1.30951,2.22971 1.30951,5.06109 0,2.79599 -1.27412,5.0257 -1.23873,2.22971 -3.39765,3.53923 -2.15893,1.27412 -4.88414,1.27412 -2.37128,0 -4.31785,-0.99099 -1.91118,-1.02637 -3.07913,-2.68981 v 10.40532 q 0,0.63706 -0.38931,0.99099 -0.35392,0.38931 -0.95559,0.38931 z m 8.42335,-10.58228 q 2.05276,0 3.6808,-0.95559 1.62804,-0.95559 2.54824,-2.61903 0.95559,-1.69883 0.95559,-3.78697 0,-2.12353 -0.95559,-3.78697 -0.9202,-1.66344 -2.54824,-2.61903 -1.62804,-0.99098 -3.6808,-0.99098 -2.01735,0 -3.6454,0.99098 -1.62804,0.95559 -2.54824,2.61903 -0.9202,1.66344 -0.9202,3.78697 0,2.08814 0.9202,3.78697 0.9202,1.66344 2.54824,2.61903 1.62805,0.95559 3.6454,0.95559 z m -24.95146,2.47746 q -2.83138,0 -5.06109,-1.27412 -2.22971,-1.27413 -3.50383,-3.50384 -1.27412,-2.22971 -1.27412,-5.06109 0,-2.86677 1.27412,-5.09648 1.27412,-2.22971 3.50383,-3.50384 2.22971,-1.27412 5.06109,-1.27412 2.83138,0 5.0257,1.27412 2.22971,1.27413 3.50383,3.50384 1.27413,2.22971 1.30952,5.09648 0,2.83138 -1.30952,5.06109 -1.27412,2.22971 -3.50383,3.50384 -2.19432,1.27412 -5.0257,1.27412 z m 0,-2.47746 q 2.05275,0 3.6808,-0.95559 1.62804,-0.95559 2.54824,-2.61903 0.9202,-1.66343 0.9202,-3.78697 0,-2.12353 -0.9202,-3.78697 -0.9202,-1.69883 -2.54824,-2.65442 -1.62805,-0.95559 -3.6808,-0.95559 -2.05275,0 -3.68079,0.95559 -1.62805,0.95559 -2.58364,2.65442 -0.92019,1.66344 -0.92019,3.78697 0,2.12354 0.92019,3.78697 0.95559,1.66344 2.58364,2.61903 1.62804,0.95559 3.68079,0.95559 z m -15.46637,2.3005 q -1.87578,0 -3.36226,-0.88481 -1.45108,-0.88481 -2.3005,-2.40667 -0.84941,-1.55726 -0.84941,-3.53923 v -17.30681 q 0,-0.60167 0.35392,-0.99098 0.38932,-0.38932 0.99099,-0.38932 0.60166,0 0.99098,0.38932 0.38931,0.38931 0.38931,0.99098 v 17.30681 q 0,1.80501 1.06177,2.97295 1.06177,1.13255 2.7252,1.13255 h 0.9556 q 0.56627,0 0.92019,0.38932 0.35393,0.38931 0.35393,0.99098 0,0.60167 -0.42471,0.99098 -0.42471,0.35393 -1.06177,0.35393 z m -8.81267,-16.28044 q -0.53088,0 -0.8848,-0.31853 -0.35392,-0.35392 -0.35392,-0.84941 0,-0.53089 0.35392,-0.84942 0.35392,-0.35392 0.8848,-0.35392 h 9.02503 q 0.53088,0 0.8848,0.35392 0.35393,0.31853 0.35393,0.84942 0,0.49549 -0.35393,0.84941 -0.35392,0.31853 -0.8848,0.31853 z m -16.77587,9.80365 -1.66344,-1.805 12.10415,-10.93621 q 0.42471,-0.38931 0.88481,-0.35392 0.4601,0 0.84941,0.42471 0.38932,0.42471 0.35393,0.9202 0,0.4601 -0.42471,0.81402 z m -0.88481,6.47679 q -0.60167,0 -0.99098,-0.35393 -0.35392,-0.38931 -0.35392,-0.99098 v -24.95154 q 0,-0.60166 0.35392,-0.95559 0.38931,-0.38931 0.99098,-0.38931 0.60167,0 0.95559,0.38931 0.38932,0.35393 0.38932,0.95559 v 24.95154 q 0,0.60167 -0.38932,0.99098 -0.35392,0.35393 -0.95559,0.35393 z m 13.09514,-0.17697 q -0.4601,0.38932 -0.9556,0.31853 -0.49549,-0.0354 -0.84941,-0.49549 l -7.89247,-9.69747 1.91118,-1.69883 7.96326,9.80365 q 0.35392,0.42471 0.31853,0.9202 -0.0354,0.4601 -0.49549,0.84941 z m -26.75653,0.35393 q -2.08814,0 -4.14089,-0.70785 -2.05276,-0.70784 -3.32688,-2.12353 -0.38931,-0.42471 -0.31853,-0.95559 0.0708,-0.53089 0.53089,-0.9202 0.49549,-0.35393 1.02637,-0.28314 0.53089,0.0708 0.88481,0.4601 0.84941,0.99098 2.22971,1.52187 1.41569,0.53088 3.11452,0.53088 2.61903,0 3.78697,-0.88481 1.16794,-0.9202 1.20334,-2.19432 0,-1.27412 -1.20334,-2.08814 -1.20334,-0.84941 -3.96393,-1.30951 -3.57462,-0.56628 -5.23806,-1.98197 -1.66343,-1.41569 -1.66343,-3.36226 0,-1.80501 0.95559,-3.00834 0.95559,-1.20334 2.54824,-1.80501 1.59265,-0.60167 3.50383,-0.60167 2.37128,0 4.07011,0.81403 1.73422,0.81402 2.79599,2.19431 0.35392,0.4601 0.28314,0.9556 -0.0708,0.49549 -0.56628,0.81402 -0.4247,0.24774 -0.99098,0.17696 -0.53088,-0.10618 -0.9202,-0.53089 -0.88481,-1.02637 -2.05275,-1.48647 -1.16794,-0.49549 -2.68981,-0.49549 -1.94657,0 -3.11452,0.81402 -1.16794,0.77863 -1.16794,1.98197 0,0.81402 0.4247,1.41569 0.4601,0.60166 1.52187,1.06176 1.09716,0.4601 3.04373,0.77863 2.65442,0.42471 4.17629,1.27412 1.55726,0.81403 2.19432,1.94658 0.67245,1.09716 0.67245,2.40667 0,1.66344 -0.99098,2.93756 -0.95559,1.23873 -2.68981,1.94657 -1.69883,0.70785 -3.92854,0.70785 z m -19.71343,0 q -2.86677,0 -5.09648,-1.23873 -2.19432,-1.27412 -3.46844,-3.50383 -1.23873,-2.22972 -1.23873,-5.09649 0,-2.90216 1.16794,-5.09648 1.20334,-2.22971 3.29148,-3.50384 2.08815,-1.27412 4.81335,-1.27412 2.68981,0 4.67178,1.23873 2.01736,1.20334 3.11451,3.36227 1.09716,2.15892 1.09716,4.91952 0,0.56627 -0.35392,0.9202 -0.35392,0.31853 -0.9202,0.31853 h -15.0417 v -2.26511 h 15.32484 l -1.52187,1.09716 q 0.0354,-2.05275 -0.74323,-3.68079 -0.77863,-1.62804 -2.22971,-2.54824 -1.41569,-0.9202 -3.39766,-0.9202 -2.01736,0 -3.53923,0.95559 -1.52186,0.95559 -2.37128,2.65442 -0.81402,1.66343 -0.81402,3.82236 0,2.15893 0.9202,3.82236 0.95559,1.66344 2.58363,2.61903 1.62805,0.95559 3.75158,0.95559 1.27412,0 2.54825,-0.42471 1.30951,-0.46009 2.08814,-1.13255 0.38931,-0.31853 0.8848,-0.31853 0.4955,-0.0354 0.84942,0.24775 0.4601,0.4247 0.4601,0.9202 0.0354,0.49549 -0.38932,0.84941 -1.16794,0.99098 -2.97295,1.66344 -1.805,0.63706 -3.46844,0.63706 z m -34.29504,-0.17696 q -0.60166,0 -0.99098,-0.38932 -0.38931,-0.38931 -0.38931,-0.99098 v -24.88075 q 0,-0.60167 0.38931,-0.99099 0.38932,-0.38931 0.99098,-0.38931 h 6.37061 q 3.04373,0 5.55658,1.02637 2.54824,0.99099 4.38864,2.86678 1.8404,1.84039 2.83138,4.35324 1.02638,2.51285 1.02638,5.55659 0,3.04373 -1.02638,5.59197 -0.99098,2.51285 -2.83138,4.38864 -1.8404,1.8404 -4.38864,2.86677 -2.51285,0.99099 -5.55658,0.99099 z m 1.3803,-2.47746 h 4.99031 q 3.25609,0 5.73354,-1.45108 2.51285,-1.48648 3.92854,-4.03472 1.41569,-2.58364 1.41569,-5.87511 0,-3.29148 -1.41569,-5.83973 -1.41569,-2.58363 -3.92854,-4.03471 -2.47745,-1.45108 -5.73354,-1.45108 h -4.99031 z"
           inkscape:connector-curvature="0" />
        <path
           id="path1086"
           style="font-style:normal;font-variant:normal;font-weight:normal;font-stretch:normal;font-size:25.1068821px;line-height:1.25;font-family:Comfortaa;-inkscape-font-specification:Comfortaa;letter-spacing:0px;word-spacing:0px;fill:#ffffff;fill-opacity:1;stroke:none;stroke-width:0.62767208"
           d="m 626.95976,492.92711 q -1.75748,0 -3.16347,-0.75321 -1.38087,-0.77831 -2.1843,-2.10898 -0.80342,-1.33066 -0.80342,-3.01282 0,-0.42682 0.25107,-0.7281 0.25107,-0.30128 0.67789,-0.30128 0.42682,0 0.67789,0.30128 0.25106,0.30128 0.25106,0.7281 0,1.15492 0.55236,2.08387 0.55235,0.90385 1.50641,1.4562 0.97917,0.52724 2.15919,0.52724 1.95834,0 3.06304,-1.07959 1.1047,-1.10471 1.1047,-2.83708 0,-1.23024 -0.52724,-2.13408 -0.52725,-0.92896 -1.43109,-1.4311 -0.90385,-0.52724 -2.03366,-0.52724 -0.40171,0 -0.67789,-0.27618 -0.27617,-0.27617 -0.27617,-0.70299 0,-0.40171 0.27617,-0.67789 0.27618,-0.27617 0.67789,-0.27617 0.87874,0 1.60684,-0.42682 0.75321,-0.45192 1.20513,-1.18002 0.45192,-0.7281 0.45192,-1.60684 0,-1.33067 -0.90384,-2.20941 -0.90385,-0.90385 -2.41027,-0.90385 -1.05448,0 -1.88301,0.42682 -0.82853,0.40171 -1.30556,1.1047 -0.45192,0.67789 -0.45192,1.55663 0,0.42682 -0.27618,0.7281 -0.25107,0.27618 -0.65278,0.27618 -0.42681,0 -0.67788,-0.27618 -0.25107,-0.30128 -0.25107,-0.70299 0,-1.38088 0.70299,-2.48558 0.7281,-1.12981 1.95834,-1.75749 1.23023,-0.65277 2.83707,-0.65277 1.4562,0 2.61112,0.65277 1.18002,0.62768 1.85791,1.75749 0.70299,1.1047 0.70299,2.48558 0,0.85363 -0.42681,1.65705 -0.40171,0.80342 -1.0796,1.4562 -0.67789,0.62767 -1.48131,0.97917 1.28045,0.3766 2.13409,1.15492 0.85363,0.77831 1.25534,1.8328 0.40171,1.02938 0.40171,2.15919 0,1.65705 -0.80342,2.96261 -0.77831,1.28045 -2.15919,2.03366 -1.38088,0.7281 -3.06304,0.7281 z m -19.35739,-0.12554 q -0.40171,0 -0.70299,-0.27617 -0.27618,-0.27618 -0.27618,-0.70299 0,-0.37661 0.27618,-0.67789 l 7.60738,-8.98826 q 0.62768,-0.67789 1.00428,-1.50642 0.3766,-0.85363 0.3766,-1.58173 0,-1.18002 -0.47703,-2.08387 -0.45192,-0.90385 -1.30556,-1.40599 -0.82852,-0.52724 -1.90812,-0.52724 -1.05449,0 -1.93323,0.55235 -0.85363,0.52724 -1.35577,1.43109 -0.47703,0.90385 -0.47703,2.03366 0,0.40171 -0.27618,0.67789 -0.27617,0.27617 -0.70299,0.27617 -0.40171,0 -0.70299,-0.27617 -0.27618,-0.27618 -0.27618,-0.67789 0,-1.68216 0.75321,-3.01283 0.7532,-1.33066 2.03366,-2.10897 1.30555,-0.77832 2.9375,-0.77832 1.63195,0 2.88729,0.75321 1.28045,0.75321 1.98345,2.08387 0.7281,1.33067 0.7281,3.06304 0,0.82853 -0.27618,1.58173 -0.25107,0.75321 -0.70299,1.4562 -0.45193,0.67789 -0.97917,1.28045 l -6.42736,7.45675 h 7.85845 q 0.40171,0 0.67789,0.30128 0.30128,0.30128 0.30128,0.67789 0,0.42681 -0.30128,0.70299 -0.27618,0.27617 -0.67789,0.27617 z m -7.75801,0 q -0.37661,0 -0.65278,-0.27617 -0.27618,-0.27618 -0.27618,-0.70299 v -3.71582 h -8.98826 q -0.40171,0 -0.67789,-0.25107 -0.25107,-0.27618 -0.30128,-0.62767 -0.0251,-0.3515 0.20086,-0.65278 l 9.94232,-13.00537 q 0.12553,-0.17575 0.30128,-0.27617 0.20086,-0.12554 0.50214,-0.12554 0.40171,0 0.65278,0.30129 0.27618,0.27617 0.27618,0.70299 v 12.17684 h 1.98344 q 0.40171,0 0.67788,0.20085 0.27618,0.20086 0.27618,0.70299 0,0.32639 -0.27618,0.60257 -0.27617,0.25107 -0.67788,0.25107 h -1.98344 v 3.71582 q 0,0.42681 -0.27618,0.70299 -0.27618,0.27617 -0.70299,0.27617 z m -8.86273,-5.69926 -0.3515,-0.7532 h 8.28527 v -10.77086 l 0.50214,0.52725 z m -12.81286,5.69926 q -0.28455,0 -0.45193,-0.16737 -0.15064,-0.16738 -0.16737,-0.41845 -0.0167,-0.25107 0.15064,-0.46866 l 4.36859,-5.9587 0.60257,-0.4854 3.91667,-5.3394 q 0.18412,-0.23433 0.50214,-0.23433 0.26781,0 0.41845,0.18411 0.16738,0.16738 0.18412,0.41845 0.0167,0.23433 -0.11717,0.41845 l -4.11753,5.59047 -0.56909,0.46866 -4.25143,5.79132 q -0.18412,0.20085 -0.46866,0.20085 z m 9.05521,0 q -0.1339,0 -0.2678,-0.0502 -0.13391,-0.0669 -0.23433,-0.18412 l -4.16775,-5.77458 -0.51887,-0.38497 -4.06732,-5.65742 q -0.15064,-0.20085 -0.1339,-0.43519 0.0167,-0.25106 0.16738,-0.41844 0.16738,-0.16738 0.43519,-0.16738 0.31802,0 0.50213,0.23433 l 3.93341,5.43982 0.46867,0.31802 4.35186,6.02566 q 0.15064,0.20085 0.1339,0.45192 0,0.25107 -0.16738,0.43519 -0.15064,0.16737 -0.43519,0.16737 z m -17.46598,0 q -1.70727,0 -3.03793,-0.7532 -1.33067,-0.77832 -2.10898,-2.10898 -0.75321,-1.33066 -0.75321,-3.03793 0,-1.68216 0.75321,-3.01283 0.77831,-1.35577 2.10898,-2.10898 1.33066,-0.77831 3.03793,-0.77831 1.68216,0 3.01283,0.77831 1.33066,0.75321 2.08387,2.10898 0.77831,1.33067 0.77831,3.01283 0,1.70727 -0.77831,3.03793 -0.75321,1.33066 -2.08387,2.10898 -1.33067,0.7532 -3.01283,0.7532 z m -0.0251,-1.80769 q 1.15492,0 2.05877,-0.52725 0.92895,-0.52724 1.4562,-1.45619 0.52724,-0.92896 0.52724,-2.10898 0,-1.18003 -0.52724,-2.10898 -0.52725,-0.92896 -1.4562,-1.4562 -0.90385,-0.55235 -2.05877,-0.55235 -1.15491,0 -2.05876,0.55235 -0.90385,0.52724 -1.43109,1.4562 -0.52725,0.92895 -0.52725,2.10898 0,1.18002 0.52725,2.10898 0.52724,0.92895 1.43109,1.45619 0.90385,0.52725 2.05876,0.52725 z m -5.14691,-7.08014 6.2014,-10.1934 q 0.32639,-0.52724 0.87874,-0.52724 0.37661,0 0.65278,0.22596 0.27618,0.22596 0.32639,0.57746 0.0753,0.3515 -0.12553,0.67789 l -4.14264,6.75375 z m -7.35631,8.88783 q -0.3766,0 -0.65278,-0.27617 -0.27617,-0.27618 -0.27617,-0.70299 v -3.71582 h -8.98827 q -0.40171,0 -0.67788,-0.25107 -0.25107,-0.27618 -0.30129,-0.62767 -0.0251,-0.3515 0.20086,-0.65278 l 9.94232,-13.00537 q 0.12554,-0.17575 0.30129,-0.27617 0.20085,-0.12554 0.50214,-0.12554 0.40171,0 0.65277,0.30129 0.27618,0.27617 0.27618,0.70299 v 12.17684 h 1.98344 q 0.40171,0 0.67789,0.20085 0.27617,0.20086 0.27617,0.70299 0,0.32639 -0.27617,0.60257 -0.27618,0.25107 -0.67789,0.25107 h -1.98344 v 3.71582 q 0,0.42681 -0.27618,0.70299 -0.27617,0.27617 -0.70299,0.27617 z m -8.86273,-5.69926 -0.35149,-0.7532 h 8.28527 v -10.77086 l 0.50213,0.52725 z m -10.14315,5.69926 q -1.8077,0 -3.23879,-0.82852 -1.43109,-0.85364 -2.28472,-2.28473 -0.82853,-1.4562 -0.82853,-3.26389 0,-0.42682 0.27617,-0.703 0.27618,-0.27617 0.67789,-0.27617 0.42682,0 0.70299,0.27617 0.30129,0.27618 0.30129,0.703 0,1.25534 0.57745,2.25962 0.57746,1.00427 1.55663,1.58173 1.00428,0.57746 2.25962,0.57746 1.25534,0 2.25962,-0.57746 1.00427,-0.57746 1.58173,-1.58173 0.57746,-1.00428 0.57746,-2.25962 0,-1.25535 -0.57746,-2.25962 -0.57746,-1.00428 -1.58173,-1.58174 -1.00428,-0.57745 -2.25962,-0.57745 h -4.3937 q -0.42682,0 -0.703,-0.27618 -0.27617,-0.30128 -0.27617,-0.70299 v -6.87929 q 0,-0.40171 0.27617,-0.67788 0.27618,-0.30129 0.703,-0.30129 h 8.81251 q 0.40171,0 0.67789,0.30129 0.30128,0.27617 0.30128,0.67788 0,0.40171 -0.27618,0.70299 -0.27617,0.27618 -0.70299,0.27618 h -7.85845 v 4.92095 h 3.43964 q 1.8328,0 3.26389,0.85363 1.4311,0.82853 2.25962,2.28473 0.85364,1.43109 0.85364,3.23879 0,1.80769 -0.85364,3.26389 -0.82852,1.43109 -2.25962,2.28473 -1.43109,0.82852 -3.26389,0.82852 z m -11.4738,0 q -0.40171,0 -0.703,-0.27617 -0.27617,-0.27618 -0.27617,-0.70299 v -16.31948 l -2.51069,0.87874 q -0.27618,0.12554 -0.50214,0.12554 -0.42682,0 -0.70299,-0.27618 -0.27618,-0.27617 -0.27618,-0.67788 0,-0.30129 0.12554,-0.55235 0.15064,-0.25107 0.50213,-0.37661 l 3.86646,-1.33066 q 0.12554,-0.0502 0.25107,-0.0753 0.15064,-0.0502 0.25107,-0.0502 0.42682,0 0.67789,0.30129 0.27617,0.27617 0.27617,0.67788 v 17.67525 q 0,0.42681 -0.27617,0.70299 -0.27618,0.27617 -0.70299,0.27617 z"
           inkscape:connector-curvature="0" />
        <path
           id="rect1247"
           d="m 507,415.76462 h 0.90668 v 92.73536 H 507 Z"
           style="fill:#ffffff;fill-opacity:1;stroke:none;stroke-width:12.24771595;stroke-miterlimit:4;stroke-dasharray:none;stroke-opacity:1"
           inkscape:connector-curvature="0" />
      </g>
      <g
         id="g1273">
        <path
           id="path1099"
           style="font-style:normal;font-variant:normal;font-weight:normal;font-stretch:normal;font-size:35.39225006px;line-height:1.25;font-family:Comfortaa;-inkscape-font-specification:Comfortaa;letter-spacing:0px;word-spacing:0px;fill:#ffffff;fill-opacity:1;stroke:none;stroke-width:0.88480628"
           d="m 472.22117,456.87473 q -1.87579,0 -3.36227,-0.88481 -1.45108,-0.88481 -2.30049,-2.40667 -0.84942,-1.55726 -0.84942,-3.53923 v -17.30681 q 0,-0.60167 0.35392,-0.99098 0.38932,-0.38932 0.99099,-0.38932 0.60167,0 0.99098,0.38932 0.38931,0.38931 0.38931,0.99098 v 17.30681 q 0,1.80501 1.06177,2.97295 1.06177,1.13255 2.72521,1.13255 h 0.95559 q 0.56627,0 0.92019,0.38932 0.35393,0.38931 0.35393,0.99098 0,0.60167 -0.42471,0.99098 -0.42471,0.35393 -1.06177,0.35393 z m -8.81267,-16.28044 q -0.53089,0 -0.88481,-0.31853 -0.35392,-0.35392 -0.35392,-0.84941 0,-0.53089 0.35392,-0.84942 0.35392,-0.35392 0.88481,-0.35392 h 9.02502 q 0.53088,0 0.88481,0.35392 0.35392,0.31853 0.35392,0.84942 0,0.49549 -0.35392,0.84941 -0.35393,0.31853 -0.88481,0.31853 z m -11.71478,16.4574 q -2.86677,0 -5.09648,-1.23873 -2.19432,-1.27412 -3.46844,-3.50383 -1.23873,-2.22972 -1.23873,-5.09649 0,-2.90216 1.16794,-5.09648 1.20334,-2.22971 3.29148,-3.50384 2.08814,-1.27412 4.81335,-1.27412 2.68981,0 4.67177,1.23873 2.01736,1.20334 3.11452,3.36227 1.09716,2.15892 1.09716,4.91952 0,0.56627 -0.35392,0.9202 -0.35392,0.31853 -0.9202,0.31853 h -15.04171 v -2.26511 h 15.32485 l -1.52187,1.09716 q 0.0354,-2.05275 -0.74324,-3.68079 -0.77862,-1.62804 -2.22971,-2.54824 -1.41569,-0.9202 -3.39765,-0.9202 -2.01736,0 -3.53923,0.95559 -1.52186,0.95559 -2.37128,2.65442 -0.81402,1.66343 -0.81402,3.82236 0,2.15893 0.9202,3.82236 0.95559,1.66344 2.58363,2.61903 1.62805,0.95559 3.75158,0.95559 1.27412,0 2.54824,-0.42471 1.30952,-0.46009 2.08815,-1.13255 0.38931,-0.31853 0.8848,-0.31853 0.49549,-0.0354 0.84942,0.24775 0.46009,0.4247 0.46009,0.9202 0.0354,0.49549 -0.38931,0.84941 -1.16794,0.99098 -2.97295,1.66344 -1.805,0.63706 -3.46844,0.63706 z m -13.5198,-0.17696 q -1.41569,0 -2.54824,-0.77863 -1.09716,-0.77863 -1.73422,-2.15893 -0.60167,-1.3803 -0.60167,-3.1853 v -20.17359 q 0,-0.60166 0.35392,-0.95559 0.38932,-0.38931 0.99099,-0.38931 0.60166,0 0.95559,0.38931 0.38931,0.35393 0.38931,0.95559 v 20.17359 q 0,1.52186 0.60167,2.47745 0.63706,0.95559 1.59265,0.95559 h 0.88481 q 0.53088,0 0.84941,0.38932 0.31853,0.35392 0.31853,0.95559 0,0.60167 -0.4601,0.99098 -0.42471,0.35393 -1.13255,0.35393 z m -19.39491,0.17696 q -2.7606,0 -4.99031,-1.27412 -2.19432,-1.27413 -3.50383,-3.46844 -1.27412,-2.22972 -1.30952,-4.99031 v -16.70514 q 0,-0.63706 0.35393,-0.99099 0.38931,-0.38931 1.02637,-0.38931 0.60167,0 0.95559,0.38931 0.38932,0.35393 0.38932,0.99099 V 441.019 q 1.16794,-1.66344 3.07912,-2.65442 1.94658,-1.02638 4.31786,-1.02638 2.7252,0 4.88413,1.30952 2.15892,1.27412 3.39765,3.50383 1.27412,2.22971 1.27412,5.0257 0,2.83138 -1.30951,5.06109 -1.27412,2.22971 -3.50383,3.53923 -2.22971,1.27412 -5.06109,1.27412 z m 0,-2.47746 q 2.05275,0 3.68079,-0.95559 1.62804,-0.99098 2.54824,-2.65442 0.95559,-1.66344 0.95559,-3.78697 0,-2.08814 -0.95559,-3.75158 -0.9202,-1.69883 -2.54824,-2.65442 -1.62804,-0.95559 -3.68079,-0.95559 -2.01736,0 -3.64541,0.95559 -1.62804,0.95559 -2.54824,2.65442 -0.9202,1.66344 -0.9202,3.75158 0,2.12353 0.9202,3.78697 0.9202,1.66344 2.54824,2.65442 1.62805,0.95559 3.64541,0.95559 z m -25.23461,2.47746 q -2.72521,0 -4.88413,-1.27412 -2.15893,-1.30952 -3.43305,-3.53923 -1.23873,-2.22971 -1.23873,-5.0257 0,-2.83138 1.27412,-5.06109 1.30951,-2.22971 3.53923,-3.50383 2.22971,-1.30952 5.0257,-1.30952 2.79598,0 4.9903,1.30952 2.22971,1.27412 3.50384,3.50383 1.30951,2.22971 1.3449,5.06109 l -1.09716,0.84942 q 0,2.54824 -1.20333,4.60099 -1.16795,2.01736 -3.2207,3.22069 -2.01736,1.16795 -4.60099,1.16795 z m 0.28314,-2.47746 q 2.05275,0 3.6454,-0.95559 1.62804,-0.95559 2.54824,-2.61903 0.95559,-1.69883 0.95559,-3.78697 0,-2.12353 -0.95559,-3.78697 -0.9202,-1.66344 -2.54824,-2.61903 -1.59265,-0.99098 -3.6454,-0.99098 -2.01736,0 -3.64541,0.99098 -1.62804,0.95559 -2.58363,2.61903 -0.95559,1.66344 -0.95559,3.78697 0,2.08814 0.95559,3.78697 0.95559,1.66344 2.58363,2.61903 1.62805,0.95559 3.64541,0.95559 z m 8.45874,2.3005 q -0.60166,0 -0.99098,-0.35393 -0.38931,-0.38931 -0.38931,-0.99098 v -6.05207 l 0.67245,-2.79599 2.08814,0.53088 v 8.31718 q 0,0.60167 -0.38931,0.99098 -0.38932,0.35393 -0.99099,0.35393 z m -26.75644,0 q -0.56628,0 -0.99098,-0.38932 -0.38932,-0.42471 -0.38932,-0.99098 v -26.26105 h 2.7606 v 26.26105 q 0,0.56627 -0.38932,0.99098 -0.38931,0.38932 -0.99098,0.38932 z m -9.76826,-25.1285 q -0.56628,0 -0.9202,-0.35392 -0.35392,-0.35393 -0.35392,-0.88481 0,-0.56628 0.35392,-0.9202 0.35392,-0.35392 0.9202,-0.35392 h 19.57191 q 0.56628,0 0.9202,0.35392 0.35392,0.35392 0.35392,0.9202 0,0.53088 -0.35392,0.88481 -0.35392,0.35392 -0.9202,0.35392 z"
           inkscape:connector-curvature="0" />
        <path
           id="path1116"
           style="font-style:normal;font-variant:normal;font-weight:normal;font-stretch:normal;font-size:25.1068821px;line-height:1.25;font-family:Comfortaa;-inkscape-font-specification:Comfortaa;letter-spacing:0px;word-spacing:0px;fill:#ffffff;fill-opacity:1;stroke:none;stroke-width:0.62767208"
           d="m 473.12771,492.92711 q -1.75749,0 -3.16347,-0.75321 -1.38088,-0.77831 -2.1843,-2.10898 -0.80342,-1.33066 -0.80342,-3.01282 0,-0.42682 0.25107,-0.7281 0.25107,-0.30128 0.67789,-0.30128 0.42681,0 0.67788,0.30128 0.25107,0.30128 0.25107,0.7281 0,1.15492 0.55235,2.08387 0.55235,0.90385 1.50641,1.4562 0.97917,0.52724 2.1592,0.52724 1.95833,0 3.06304,-1.07959 1.1047,-1.10471 1.1047,-2.83708 0,-1.23024 -0.52725,-2.13408 -0.52724,-0.92896 -1.43109,-1.4311 -0.90385,-0.52724 -2.03366,-0.52724 -0.40171,0 -0.67788,-0.27618 -0.27618,-0.27617 -0.27618,-0.70299 0,-0.40171 0.27618,-0.67789 0.27617,-0.27617 0.67788,-0.27617 0.87875,0 1.60684,-0.42682 0.75321,-0.45192 1.20514,-1.18002 0.45192,-0.7281 0.45192,-1.60684 0,-1.33067 -0.90385,-2.20941 -0.90385,-0.90385 -2.41026,-0.90385 -1.05449,0 -1.88302,0.42682 -0.82852,0.40171 -1.30555,1.1047 -0.45193,0.67789 -0.45193,1.55663 0,0.42682 -0.27617,0.7281 -0.25107,0.27618 -0.65278,0.27618 -0.42682,0 -0.67789,-0.27618 -0.25107,-0.30128 -0.25107,-0.70299 0,-1.38088 0.703,-2.48558 0.7281,-1.12981 1.95833,-1.75749 1.23024,-0.65277 2.83708,-0.65277 1.4562,0 2.61112,0.65277 1.18002,0.62768 1.85791,1.75749 0.70299,1.1047 0.70299,2.48558 0,0.85363 -0.42682,1.65705 -0.40171,0.80342 -1.07959,1.4562 -0.67789,0.62767 -1.48131,0.97917 1.28045,0.3766 2.13408,1.15492 0.85364,0.77831 1.25535,1.8328 0.40171,1.02938 0.40171,2.15919 0,1.65705 -0.80342,2.96261 -0.77832,1.28045 -2.15919,2.03366 -1.38088,0.7281 -3.06304,0.7281 z m -19.35739,-0.12554 q -0.40171,0 -0.703,-0.27617 -0.27617,-0.27618 -0.27617,-0.70299 0,-0.37661 0.27617,-0.67789 l 7.60739,-8.98826 q 0.62767,-0.67789 1.00428,-1.50642 0.3766,-0.85363 0.3766,-1.58173 0,-1.18002 -0.47703,-2.08387 -0.45193,-0.90385 -1.30556,-1.40599 -0.82853,-0.52724 -1.90812,-0.52724 -1.05449,0 -1.93323,0.55235 -0.85364,0.52724 -1.35577,1.43109 -0.47704,0.90385 -0.47704,2.03366 0,0.40171 -0.27617,0.67789 -0.27618,0.27617 -0.70299,0.27617 -0.40171,0 -0.703,-0.27617 -0.27617,-0.27618 -0.27617,-0.67789 0,-1.68216 0.7532,-3.01283 0.75321,-1.33066 2.03366,-2.10897 1.30556,-0.77832 2.93751,-0.77832 1.63194,0 2.88729,0.75321 1.28045,0.75321 1.98344,2.08387 0.7281,1.33067 0.7281,3.06304 0,0.82853 -0.27617,1.58173 -0.25107,0.75321 -0.703,1.4562 -0.45192,0.67789 -0.97917,1.28045 l -6.42736,7.45675 h 7.85846 q 0.40171,0 0.67788,0.30128 0.30129,0.30128 0.30129,0.67789 0,0.42681 -0.30129,0.70299 -0.27617,0.27617 -0.67788,0.27617 z m -7.75801,0 q -0.3766,0 -0.65278,-0.27617 -0.27617,-0.27618 -0.27617,-0.70299 v -3.71582 h -8.98827 q -0.40171,0 -0.67788,-0.25107 -0.25107,-0.27618 -0.30129,-0.62767 -0.0251,-0.3515 0.20086,-0.65278 l 9.94232,-13.00537 q 0.12554,-0.17575 0.30129,-0.27617 0.20085,-0.12554 0.50213,-0.12554 0.40171,0 0.65278,0.30129 0.27618,0.27617 0.27618,0.70299 v 12.17684 h 1.98344 q 0.40171,0 0.67789,0.20085 0.27617,0.20086 0.27617,0.70299 0,0.32639 -0.27617,0.60257 -0.27618,0.25107 -0.67789,0.25107 h -1.98344 v 3.71582 q 0,0.42681 -0.27618,0.70299 -0.27617,0.27617 -0.70299,0.27617 z m -8.86273,-5.69926 -0.3515,-0.7532 h 8.28528 v -10.77086 l 0.50213,0.52725 z m -12.81286,5.69926 q -0.28455,0 -0.45193,-0.16737 -0.15064,-0.16738 -0.16737,-0.41845 -0.0167,-0.25107 0.15064,-0.46866 l 4.36859,-5.9587 0.60257,-0.4854 3.91667,-5.3394 q 0.18412,-0.23433 0.50214,-0.23433 0.26781,0 0.41845,0.18411 0.16738,0.16738 0.18412,0.41845 0.0167,0.23433 -0.11717,0.41845 l -4.11753,5.59047 -0.56909,0.46866 -4.25143,5.79132 q -0.18412,0.20085 -0.46866,0.20085 z m 9.05521,0 q -0.1339,0 -0.2678,-0.0502 -0.13391,-0.0669 -0.23433,-0.18412 l -4.16775,-5.77458 -0.51887,-0.38497 -4.06732,-5.65742 q -0.15064,-0.20085 -0.1339,-0.43519 0.0167,-0.25106 0.16738,-0.41844 0.16738,-0.16738 0.43518,-0.16738 0.31803,0 0.50214,0.23433 l 3.93341,5.43982 0.46867,0.31802 4.35186,6.02566 q 0.15064,0.20085 0.1339,0.45192 0,0.25107 -0.16738,0.43519 -0.15064,0.16737 -0.43519,0.16737 z m -18.2192,0 q -1.80769,0 -3.23879,-0.82852 -1.43109,-0.85364 -2.28472,-2.28473 -0.82853,-1.4562 -0.82853,-3.26389 0,-0.42682 0.27618,-0.703 0.27617,-0.27617 0.67788,-0.27617 0.42682,0 0.703,0.27617 0.30128,0.27618 0.30128,0.703 0,1.25534 0.57746,2.25962 0.57745,1.00427 1.55662,1.58173 1.00428,0.57746 2.25962,0.57746 1.25535,0 2.25962,-0.57746 1.00428,-0.57746 1.58174,-1.58173 0.57745,-1.00428 0.57745,-2.25962 0,-1.25535 -0.57745,-2.25962 -0.57746,-1.00428 -1.58174,-1.58174 -1.00427,-0.57745 -2.25962,-0.57745 h -4.3937 q -0.42682,0 -0.70299,-0.27618 -0.27618,-0.30128 -0.27618,-0.70299 v -6.87929 q 0,-0.40171 0.27618,-0.67788 0.27617,-0.30129 0.70299,-0.30129 h 8.81251 q 0.40171,0 0.67789,0.30129 0.30128,0.27617 0.30128,0.67788 0,0.40171 -0.27617,0.70299 -0.27618,0.27618 -0.703,0.27618 h -7.85845 v 4.92095 h 3.43964 q 1.8328,0 3.2639,0.85363 1.43109,0.82853 2.25962,2.28473 0.85363,1.43109 0.85363,3.23879 0,1.80769 -0.85363,3.26389 -0.82853,1.43109 -2.25962,2.28473 -1.4311,0.82852 -3.2639,0.82852 z m -15.74198,0 q -1.8077,0 -3.23879,-0.82852 -1.43109,-0.85364 -2.28473,-2.28473 -0.82852,-1.4562 -0.82852,-3.26389 0,-0.42682 0.27617,-0.703 0.27618,-0.27617 0.67789,-0.27617 0.42681,0 0.70299,0.27617 0.30128,0.27618 0.30128,0.703 0,1.25534 0.57746,2.25962 0.57746,1.00427 1.55663,1.58173 1.00427,0.57746 2.25962,0.57746 1.25534,0 2.25962,-0.57746 1.00427,-0.57746 1.58173,-1.58173 0.57746,-1.00428 0.57746,-2.25962 0,-1.25535 -0.57746,-2.25962 -0.57746,-1.00428 -1.58173,-1.58174 -1.00428,-0.57745 -2.25962,-0.57745 h -4.39371 q -0.42681,0 -0.70299,-0.27618 -0.27618,-0.30128 -0.27618,-0.70299 v -6.87929 q 0,-0.40171 0.27618,-0.67788 0.27618,-0.30129 0.70299,-0.30129 h 8.81252 q 0.40171,0 0.67788,0.30129 0.30129,0.27617 0.30129,0.67788 0,0.40171 -0.27618,0.70299 -0.27617,0.27618 -0.70299,0.27618 h -7.85846 v 4.92095 h 3.43965 q 1.8328,0 3.26389,0.85363 1.43109,0.82853 2.25962,2.28473 0.85363,1.43109 0.85363,3.23879 0,1.80769 -0.85363,3.26389 -0.82853,1.43109 -2.25962,2.28473 -1.43109,0.82852 -3.26389,0.82852 z m -15.41559,0.10043 q -1.68216,0 -3.01283,-0.77831 -1.33066,-0.80342 -2.10898,-2.15919 -0.7532,-1.35577 -0.7532,-3.06304 0,-1.65706 0.7532,-2.96261 0.77832,-1.30556 2.10898,-2.05877 1.33067,-0.75321 3.01283,-0.75321 1.68216,0 3.01282,0.75321 1.33067,0.75321 2.08388,2.05877 0.7532,1.30555 0.7532,2.96261 -0.0251,1.70727 -0.80342,3.06304 -0.7532,1.35577 -2.08387,2.15919 -1.30556,0.77831 -2.96261,0.77831 z m 0,-1.75748 q 1.1047,0 1.98344,-0.55235 0.87874,-0.57746 1.38088,-1.53152 0.52725,-0.95406 0.52725,-2.15919 0,-1.15492 -0.50214,-2.05877 -0.50214,-0.92895 -1.38088,-1.4562 -0.87874,-0.52724 -2.00855,-0.52724 -1.12981,0 -2.00855,0.52724 -0.87874,0.52725 -1.40599,1.4562 -0.50214,0.90385 -0.50214,2.05877 0,1.20513 0.50214,2.15919 0.50214,0.95406 1.38088,1.53152 0.90385,0.55235 2.03366,0.55235 z m 0,-8.46102 q -1.38088,0 -2.48558,-0.62767 -1.10471,-0.62767 -1.73238,-1.70727 -0.62767,-1.07959 -0.62767,-2.46047 0,-1.33067 0.62767,-2.41026 0.62767,-1.0796 1.73238,-1.70727 1.1047,-0.62767 2.48558,-0.62767 1.38088,-0.0251 2.48558,0.60256 1.1047,0.60257 1.73237,1.70727 0.62768,1.0796 0.60257,2.43537 0,1.38088 -0.65278,2.46047 -0.62767,1.0796 -1.73237,1.70727 -1.0796,0.62767 -2.43537,0.62767 z m 0,-1.68216 q 0.82853,0 1.4813,-0.40171 0.67789,-0.42682 1.0796,-1.12981 0.40171,-0.7281 0.40171,-1.60684 0.0251,-0.85363 -0.3766,-1.50641 -0.37661,-0.67789 -1.05449,-1.05449 -0.67789,-0.37661 -1.53152,-0.37661 -1.28045,0 -2.13409,0.85364 -0.82852,0.82853 -0.85363,2.08387 -0.0251,1.33066 0.82853,2.23451 0.85363,0.90385 2.15919,0.90385 z m -10.94656,11.80023 q -0.40171,0 -0.70299,-0.27617 -0.27618,-0.27618 -0.27618,-0.70299 v -16.31948 l -2.51069,0.87874 q -0.27617,0.12554 -0.50214,0.12554 -0.42681,0 -0.70299,-0.27618 -0.27617,-0.27617 -0.27617,-0.67788 0,-0.30129 0.12553,-0.55235 0.15064,-0.25107 0.50214,-0.37661 l 3.86646,-1.33066 q 0.12553,-0.0502 0.25107,-0.0753 0.15064,-0.0502 0.25107,-0.0502 0.42681,0 0.67788,0.30129 0.27618,0.27617 0.27618,0.67788 v 17.67525 q 0,0.42681 -0.27618,0.70299 -0.27617,0.27617 -0.70299,0.27617 z"
           inkscape:connector-curvature="0" />
        <path
           id="path1129"
           style="font-style:normal;font-variant:normal;font-weight:normal;font-stretch:normal;font-size:35.39225006px;line-height:1.25;font-family:Comfortaa;-inkscape-font-specification:Comfortaa;letter-spacing:0px;word-spacing:0px;fill:#ffffff;fill-opacity:1;stroke:none;stroke-width:0.88480628"
           d="m 472.22117,456.87473 q -1.87579,0 -3.36227,-0.88481 -1.45108,-0.88481 -2.30049,-2.40667 -0.84942,-1.55726 -0.84942,-3.53923 v -17.30681 q 0,-0.60167 0.35392,-0.99098 0.38932,-0.38932 0.99099,-0.38932 0.60167,0 0.99098,0.38932 0.38931,0.38931 0.38931,0.99098 v 17.30681 q 0,1.80501 1.06177,2.97295 1.06177,1.13255 2.72521,1.13255 h 0.95559 q 0.56627,0 0.92019,0.38932 0.35393,0.38931 0.35393,0.99098 0,0.60167 -0.42471,0.99098 -0.42471,0.35393 -1.06177,0.35393 z m -8.81267,-16.28044 q -0.53089,0 -0.88481,-0.31853 -0.35392,-0.35392 -0.35392,-0.84941 0,-0.53089 0.35392,-0.84942 0.35392,-0.35392 0.88481,-0.35392 h 9.02502 q 0.53088,0 0.88481,0.35392 0.35392,0.31853 0.35392,0.84942 0,0.49549 -0.35392,0.84941 -0.35393,0.31853 -0.88481,0.31853 z m -11.71478,16.4574 q -2.86677,0 -5.09648,-1.23873 -2.19432,-1.27412 -3.46844,-3.50383 -1.23873,-2.22972 -1.23873,-5.09649 0,-2.90216 1.16794,-5.09648 1.20334,-2.22971 3.29148,-3.50384 2.08814,-1.27412 4.81335,-1.27412 2.68981,0 4.67177,1.23873 2.01736,1.20334 3.11452,3.36227 1.09716,2.15892 1.09716,4.91952 0,0.56627 -0.35392,0.9202 -0.35392,0.31853 -0.9202,0.31853 h -15.04171 v -2.26511 h 15.32485 l -1.52187,1.09716 q 0.0354,-2.05275 -0.74324,-3.68079 -0.77862,-1.62804 -2.22971,-2.54824 -1.41569,-0.9202 -3.39765,-0.9202 -2.01736,0 -3.53923,0.95559 -1.52186,0.95559 -2.37128,2.65442 -0.81402,1.66343 -0.81402,3.82236 0,2.15893 0.9202,3.82236 0.95559,1.66344 2.58363,2.61903 1.62805,0.95559 3.75158,0.95559 1.27412,0 2.54824,-0.42471 1.30952,-0.46009 2.08815,-1.13255 0.38931,-0.31853 0.8848,-0.31853 0.49549,-0.0354 0.84942,0.24775 0.46009,0.4247 0.46009,0.9202 0.0354,0.49549 -0.38931,0.84941 -1.16794,0.99098 -2.97295,1.66344 -1.805,0.63706 -3.46844,0.63706 z m -13.5198,-0.17696 q -1.41569,0 -2.54824,-0.77863 -1.09716,-0.77863 -1.73422,-2.15893 -0.60167,-1.3803 -0.60167,-3.1853 v -20.17359 q 0,-0.60166 0.35392,-0.95559 0.38932,-0.38931 0.99099,-0.38931 0.60166,0 0.95559,0.38931 0.38931,0.35393 0.38931,0.95559 v 20.17359 q 0,1.52186 0.60167,2.47745 0.63706,0.95559 1.59265,0.95559 h 0.88481 q 0.53088,0 0.84941,0.38932 0.31853,0.35392 0.31853,0.95559 0,0.60167 -0.4601,0.99098 -0.42471,0.35393 -1.13255,0.35393 z m -19.39491,0.17696 q -2.7606,0 -4.99031,-1.27412 -2.19432,-1.27413 -3.50383,-3.46844 -1.27412,-2.22972 -1.30952,-4.99031 v -16.70514 q 0,-0.63706 0.35393,-0.99099 0.38931,-0.38931 1.02637,-0.38931 0.60167,0 0.95559,0.38931 0.38932,0.35393 0.38932,0.99099 V 441.019 q 1.16794,-1.66344 3.07912,-2.65442 1.94658,-1.02638 4.31786,-1.02638 2.7252,0 4.88413,1.30952 2.15892,1.27412 3.39765,3.50383 1.27412,2.22971 1.27412,5.0257 0,2.83138 -1.30951,5.06109 -1.27412,2.22971 -3.50383,3.53923 -2.22971,1.27412 -5.06109,1.27412 z m 0,-2.47746 q 2.05275,0 3.68079,-0.95559 1.62804,-0.99098 2.54824,-2.65442 0.95559,-1.66344 0.95559,-3.78697 0,-2.08814 -0.95559,-3.75158 -0.9202,-1.69883 -2.54824,-2.65442 -1.62804,-0.95559 -3.68079,-0.95559 -2.01736,0 -3.64541,0.95559 -1.62804,0.95559 -2.54824,2.65442 -0.9202,1.66344 -0.9202,3.75158 0,2.12353 0.9202,3.78697 0.9202,1.66344 2.54824,2.65442 1.62805,0.95559 3.64541,0.95559 z m -25.23461,2.47746 q -2.72521,0 -4.88413,-1.27412 -2.15893,-1.30952 -3.43305,-3.53923 -1.23873,-2.22971 -1.23873,-5.0257 0,-2.83138 1.27412,-5.06109 1.30951,-2.22971 3.53923,-3.50383 2.22971,-1.30952 5.0257,-1.30952 2.79598,0 4.9903,1.30952 2.22971,1.27412 3.50384,3.50383 1.30951,2.22971 1.3449,5.06109 l -1.09716,0.84942 q 0,2.54824 -1.20333,4.60099 -1.16795,2.01736 -3.2207,3.22069 -2.01736,1.16795 -4.60099,1.16795 z m 0.28314,-2.47746 q 2.05275,0 3.6454,-0.95559 1.62804,-0.95559 2.54824,-2.61903 0.95559,-1.69883 0.95559,-3.78697 0,-2.12353 -0.95559,-3.78697 -0.9202,-1.66344 -2.54824,-2.61903 -1.59265,-0.99098 -3.6454,-0.99098 -2.01736,0 -3.64541,0.99098 -1.62804,0.95559 -2.58363,2.61903 -0.95559,1.66344 -0.95559,3.78697 0,2.08814 0.95559,3.78697 0.95559,1.66344 2.58363,2.61903 1.62805,0.95559 3.64541,0.95559 z m 8.45874,2.3005 q -0.60166,0 -0.99098,-0.35393 -0.38931,-0.38931 -0.38931,-0.99098 v -6.05207 l 0.67245,-2.79599 2.08814,0.53088 v 8.31718 q 0,0.60167 -0.38931,0.99098 -0.38932,0.35393 -0.99099,0.35393 z m -26.75644,0 q -0.56628,0 -0.99098,-0.38932 -0.38932,-0.42471 -0.38932,-0.99098 v -26.26105 h 2.7606 v 26.26105 q 0,0.56627 -0.38932,0.99098 -0.38931,0.38932 -0.99098,0.38932 z m -9.76826,-25.1285 q -0.56628,0 -0.9202,-0.35392 -0.35392,-0.35393 -0.35392,-0.88481 0,-0.56628 0.35392,-0.9202 0.35392,-0.35392 0.9202,-0.35392 h 19.57191 q 0.56628,0 0.9202,0.35392 0.35392,0.35392 0.35392,0.9202 0,0.53088 -0.35392,0.88481 -0.35392,0.35392 -0.9202,0.35392 z"
           inkscape:connector-curvature="0" />
        <path
           inkscape:connector-curvature="0"
           style="fill:#ffffff;fill-opacity:1;stroke:none;stroke-width:12.24771595;stroke-miterlimit:4;stroke-dasharray:none;stroke-opacity:1"
           d="m 352.5,415.76462 h 0.90668 v 92.73536 H 352.5 Z"
           id="path1250" />
      </g>
    </g>
  </g>
</svg>
